<?xml version="1.0" encoding="utf-8"?>
<!-- Generator: Adobe Illustrator 25.0.0, SVG Export Plug-In . SVG Version: 6.00 Build 0)  -->
<svg version="1.1" id="圖層_1" xmlns:amcharts="http://amcharts.com/ammap"
	 xmlns="http://www.w3.org/2000/svg" xmlns:xlink="http://www.w3.org/1999/xlink" x="0px" y="0px" viewBox="0 0 595.3 841.9"
	 style="enable-background:new 0 0 595.3 841.9;" xml:space="preserve">
<style type="text/css">
	.st0{fill:#CCCCCC;stroke:#FFFFFF;stroke-width:0.5;}
</style>
<defs>
	
		<amcharts:ammap  bottomLatitude="21.896159" leftLongitude="118.152323" projection="mercator" rightLongitude="122.011791" topLatitude="26.384302">
		</amcharts:ammap>
</defs>
<g>
	<path id="TW-NWT" class="st0" d="M581.6,282.6l-0.2-0.3h-1.2l-0.9,0.6l-1.5,0.6h-2.2l-1.7,0.6l-0.8,1l-1.4,1.3l-1.5,0.6l-1.7-0.2
		l-1.7-0.6l-1.1,0.2l-1.2,0.6l-0.4,1.2l-0.2,1.1l0.6,1.2l0.9,1l0.3,1.3l-0.5,1.4l-0.9,0.9l-1.4,0.8l-1,0.4l-2,0.1l-2,0.4l-2.5,2.6
		l-0.5,2.1l-0.1,1.3l-0.7,1l-1.3,0.6l-1.9,0.2l-1.2-0.4l-1.2-0.2l-1.2,0.6l-0.9,1.1l-0.6,0.9l-0.9,0.3l-1.1,0.2l-1.1,0.8l-0.5,1.1
		l-1.2,0.9l-1.2,0.6l-1.2,0.2l-0.9,0.4l-1.2,0.2l-1.4,0.4l-1.2,0.2h-1.4l-0.6,0.8l-0.7,2l-1-0.3l-1.3,0.2l-0.6,0.6l-1,0.6l-0.1,1
		v1.5l-0.4,0.7l-0.8,0.7l0.1,0.9l0.4,0.6l0.7,0.7l0.1,1.9l-0.2,0.9l-0.6,1.1l-0.7,0.7l-0.9,0.2l-1.4,1.5l-1.5,0.2l-1.9,0.3l-1,1.4
		l-0.9,0.9l-1.7,1l-1.4,0.7l-1.7,0.2l-0.9,0.9l-1.2,0.2l-1.7-0.2l-0.5,0.2L509,334l-0.5-0.9l0.1-1.9l-1-1l-1.1-0.5l-1.4-1.7
		l-1.5-2.9l-0.9-2l-1-1.7l-0.2-1.9l0.5-1.3l1.5-1.3l1-1.1l0.3-1.3l-0.7-0.5l-0.8-1.3l-0.6-1.8l-1.2-1.2l-1.4-1.7l-1.1-1l-1.9-0.8
		h-1.5l-1.2,0.5h-1.6l-1.4-0.8l-2.2-0.8l-0.1-0.7l1.3-0.2l0.3-0.5l-0.9-1.2l-0.1-1.3l-0.6-1.8l-0.9-1.3l-1-0.6l-1.1-1.6l-0.2-1
		l0.4-0.9l0.9-0.9l0.2-0.8l-0.6-0.3l-0.9-0.2l-0.2-1l0.2-1.3l0.7-0.9v-1.7l-0.1-1.4l-0.3-0.9l0.4-0.9h6.7l1.1-1.1l0.7-1.3l1.1-0.3
		l0.5-0.5l0.7-0.5l0.1-1l-0.4-0.3l-0.1-0.8l0.9-0.6l0.6-0.2l0.3-0.8l-0.4-0.7l-1.2-0.7l-0.2-1.7l0.2-1.3l-0.7-1.5l-1-0.6l-2.2-0.1
		l-3.3-0.5l-0.6-0.8l-0.4-1.3l-0.8-1.5l-1.4-0.6l-1.6-1l-1.4-0.2l-2.1-0.5l-1.3-1l-1.1-1.3l1.3-0.6l0.7-0.5l1.4-0.1l2.5,0.3l2.7-0.2
		l1-0.4l1.2-0.7l1.1-0.5l1.1-1l2.7-1.3l1.1-0.5l0.8-0.6l0.8-0.8l1.1-2.1l1.5-0.2l1.1,0.5l1.9,2.4l0.8,1.3l0.5,2l0.8,2l0.6,0.8
		l0.1,1.1l0.5,0.6l2.2,1.2l2,0.2l1.2,1.2l1.2,2l0.1,2.1l-0.1,3l-1.2,1.2l-1,1.1l-0.1,1.1l0.2,2.2l1.1,0.8l1.3-0.6l0.9-1.2h1.1
		l1.2,1.5l0.7,3.3l1.3,0.9l1.5,0.5l0.9,1.8l1.5,1.1h2.8l1.9,0.7l1.7-0.2l0.4-1.3l-0.6-0.7l-0.9-0.7v-2l-0.5-1.7v-1.4l0.4-1l1.4-1.1
		l2.5,0.2l3.5-0.3h1.4l0.4-0.6l-0.5-0.6l-1.6-0.2l-0.9,0.2l-1.8-1l-1-0.9l-0.7-0.8l0.1-0.7l0.9-0.5l-0.5-0.9l-0.6-0.6v-0.8l0.7-0.7
		l0.7-1l0.3-1l-0.1-1.4l-0.5-1.1l-1.4-1l-1.3-0.5l-1.4-1l0.2-1.3l0.9-1.3l-0.6-0.9l-1.3-1.3l-0.6-1l0.2-1.1l-0.2-1.7l-0.9-0.6
		l-0.4-1.3l0.4-1.9l-0.7-0.6l-1.5-0.3l-0.6-0.4l-0.5-1.3l-0.8-0.5l-0.4,0.2l-0.4,0.8l-0.8,0.8l-0.8,0.6l-0.2,0.9l-1.9,0.8l-1.1,1
		l-0.8,0.5l-1.4,0.3l-0.8,0.9l-1.3,1.6l-1.4,2.1l-1.4,1.3l-0.6,2.9l-0.9,0.2l-1,0.2l0.7-1.6l-0.2-2.7l-1-1.8l-1-1.4l-1.7-1.9
		l-1.4-0.7l-1.4-0.4l-1.1-0.7l-0.1-0.4l0.8-0.6l0.8-0.4l0.5-1.8l0.5-1.1l1.8-1.8l0.3-0.9l0.3-0.7l0.9-2.7l0.8-0.6l1.4-0.4h1.3
		l0.5-0.5l0.5-1.3l0.4-1.3l0.9-0.7l0.8-0.3l1.7-1l0.7-0.9l0.9-0.4l1,0.1l1.7,0.1l0.4-0.9l0.7-0.8l0.7,0.2l0.3,0.5l2.8,0.1l0.9-1.4
		l0.8-0.4l0.7,0.4l0.8,1.2l1.2,0.5l0.9,0.5l1.4,0.4l1.6,1.1l0.9,0.9l0.9,1.7l0.6,1.4l0.1,1.8l0.7,1.1l1.6,0.6l0.4,0.7l-0.2,0.8
		l0.1,0.8l0.8,1l0.9,0.9l0.9,0.7l2.8,0.1l1.2-0.5l0.7-0.7v0.5l-0.4,1.7l-0.7,0.5l-0.3,1.1l0.2,0.8l1.2,0.5l0.7,0.6l0.8,0.2v0.3
		l-0.3,0.8l-0.8,0.5l-2.6,1l-0.8,0.5l-1.1,0.5l-1.5,0.5l-1.2,0.1l-0.7,0.8l-2.1,0.5l-0.6,0.6l0.6,1.7l2.1,1.2l-0.1,1.3l0.4,1
		l0.5,1.5l0.9,0.8l0.6,1l0.6,0.8l1.5,0.2l0.6,0.5l1.1,1.2l1.9,0.2l1.6,0.5l1.6,1.7l0.6,0.8l1.8,0.4l1.9-0.1l1.4-0.6l2.4-1.2l0.5-1.1
		l-0.6-1.3l-1.1-0.5l-0.8-0.6l-0.3-1.1l0.2-1.3l0.9-1.3l0.8-0.9l0.9-0.6l0.7-0.2l0.8,0.5l0.6,0.5l0.8-0.5l0.7-1.2l0.7-0.9l0.5-1.4
		l0.1-0.2l1,0l0.3,2l0.8,0.3l0.6-0.4l1.8-0.5l0.7,0.5l4.8,0l1.5,0.6l1.8-0.1l0.6-0.5l1.3,0l0.5-0.6l1.3-0.5l0.4,0.9l-0.7,1l0.2,1
		l0.3,0.6l0,1l-0.7,0.6l-0.3,1.1l-0.2,1.6l0.2,1.3l1.2,0.6l0.7,0.7l0.4,0.7v4.7l0.8,0.9l2.3,1.8l1.5-0.1l1.3-1.3l1.1,0.2l2.2,1.4
		l2,0.3l0.5,0.8l-0.1,0.8l-0.7,0.8l-0.9,0.4l-1.4,0.8l-1.1,0.1l-0.9,0.8l-1,0.6L581.6,282.6z"/>
	<path id="TW-HUA" class="st0" d="M438.9,538.4l0.4-0.5l0.6-0.4l1-0.1l0.9-0.5l0.7-0.5l0.7-0.2l0.3-0.4l0.9-0.3l0.3-0.9l-0.1-1.2
		l-0.6-0.8l-0.6-0.5l0.1-0.6l0.7-0.4l0.2-1l0.6-1.2l0.7-1.1l0.9-0.6l0.4-0.8l0.4-1.1l0.8-0.6l0.7-0.2h1.1l0.8-0.3l1.5-0.4l1.2-0.1
		l1.6,1l0.9,0.4l1.1-0.4l1.1-1l1.2-0.4v-4l0.3-1.1l0.3-0.7l0.9-0.6l-0.1-0.6l-0.6-1.6l-0.4-0.6v-0.6l0.5-0.4l1.3-0.1l1.1,0.2
		l0.9-0.3l1.3-0.8l1.2-1h1.2l1.2-0.1l0.8-1.2l0.9-1.7l0.4-2.3l0.4-2.8l0.5-2.3l0.3-2.6l0.6-1.9l0.4-1.5l-0.1-3.8l-0.8-1.1l-0.4-0.9
		l-0.1-1.4l-0.6-1l-1.4-1.5l-1.2-0.5l-0.5-0.6l0.1-1.2l0.8-1l1-0.2l0.9-0.6l0.4-0.5l0.1-1.4l-0.5-1.5l1.8-1.8l0.3-2.1l0.3-2.5l1-1.1
		l0.9-2.4l0.5-0.9l1.4-0.6l0.7-0.8l0.1-1.5l-1-1.9l0.3-0.8l1-1.1l0.8-0.5l0.2-0.9l-0.5-0.9l-0.3-0.8l0.1-6.8l-0.4-1.2l-0.9-0.6
		l-0.1-1.8l2-4.1l0.8-1.1l0.2-1.4l0.1-2.9l0.6-1.4l1.3-0.8l0.9-1.1l1.9-1.7l0.7-1.2l0.3-1.2v-2.1l-0.8-0.9l-1.2-0.1l-0.4-0.9
		l-0.8-1.4l-1-0.8l-1.4-0.4l-0.5-1.3v-2.1l0.7-1.8l0.7-1.4l1.4-0.5l2-1.3l0.8-1.2l0.8-0.6l0.8-0.5l2.3-0.3l0.5-0.6l-0.1-1.5
		l-0.6-0.6l-0.2-0.9l1-0.5l0.5-0.8l-0.2-1.1l0.8-1.1l1-0.3l1.1-0.4l1.1-0.6l0.7-1l-0.1-2.2v-1.4l0.6-0.7l1.2-0.4l0.7-0.8l0.5-1.1
		l1-1.1l0.9-0.3l1.8-0.4l0.8-1.1l0.4-0.9l0.4-1.1l0.5-2v-1.8l0.4-0.7l0.8-0.4l0.7-0.5l0.3-0.5l0.5,0.6l1.1,0.9l1.5,0.8l2.1,0.9
		l2,0.2l3.6,0.4l2.1,0.6l2.2,1.2l2,1.7l2,0.4l1.5,0.5l1.4,0.2l1.2-0.6l0.2-0.8l-0.9-0.8l-0.3-0.6l0.5-0.7l0.9-0.4l2-0.5h1.1l0.7-0.4
		l-0.2-0.7l-0.7-0.7l-0.3-1.1l0.4-1.3l1,0.1l0.8,0.7l0.9,1l1.1,0.3l1.5,0.6l1.4,1.1l1.6,1.1l4.4,1.6l2.8,0.2l2,0.5l1,0.5l1.2,0.8
		l2.1-0.1l-0.1,1.1l-0.4,0.7l-1,1.1l-1.1,0.7l-0.6,0.7l-0.5,0.9l-0.6,2.1l-0.1,1.4l-1.3,1.3l-0.3,0.5l-1.5,1.2L546,405l-1,0.5
		l-0.5,0.7l-0.5,1v0.6l-0.2,0.3l-0.8,0.5l-0.8,0.3l-0.2,0.3l-0.7,0.3l-0.8,0.9l-0.4,0l-1.1,0.6l-0.5,0.6l-0.4,0.9l-0.4,0.5l-0.8,1.8
		l-0.3,1.4l0.1,1.3l0.2,1l0.7,1.1l0.2,0.8l0,1.2l-0.1,0.6l-0.3,1l-1.1,2l-1.1,1l-1.6,1l-0.9,0.7l-0.6,0.6l-0.5,0.9l-0.5,1.1
		l-0.5,0.8l-0.3,1.5l0,2.3l0.2,0.7l0.6,2l0.3,0.5l1.1,2.1l0.4,0.6l0.9,0.8l0.8,0.6l0.5,1.3v0.5l-0.5,0.7l-0.2,0.6l-0.3,0.1l-0.5,0.8
		l-0.1,0.9l-0.4-0.1l0.4-0.6l0.3-1.1l-0.3-0.5h-0.3l0.3,1.2l-0.3,0.7l-0.8,1l-0.7,0.4l0,0.6l0.3,0.2l-0.2,0.6l-0.5-0.6h-0.5
		l-0.6,0.4l-0.4,0.8l0,0.4l-0.9,0.9l-0.2,0.9v0.7l0.5,1.2l0.3,1.2l0.1,0.9l-0.3,0.4L529,458l-0.3,0.6l0,0.6l-0.3,1.1v0.8l0.2,0.8
		l-0.2,1v0.8l-0.4,1.8v0.6l-0.9,3.8l-0.3,1.1l-0.5,1l-0.5,1.3l-0.3,0.5v0.8l-0.3,0.8l-0.3,0.5l-1,1.1v0.5l-0.4,1l-0.2,2.5l-0.2,0.3
		l0.1,0.8v1.6l-0.1,0.8l0.5,0.3l-0.1,0.9l-0.8,1.8v0.5l-0.5,0.7v0.4l-0.4,0.3l-0.2,0.9l-0.3,0.1l-0.2,0.6h-0.5l-0.6,1.1l-0.1,0.5
		v1.6l0.1,0.7l0.3,0.2l0.4-0.2l-0.3,1.2l-0.3,0.1v0.6l-0.3,0.8l-0.1,0.8l-0.3,0.2l0.2,0.7l-0.5,0.8l0.2,0.5l-0.4,0.4l-0.2,0.7
		l0.3,0.4l-0.3,0.7l-0.5,0.1l-0.4,0.6l-0.3,1.1v0.8l-0.4,0.8l-0.2,1.2l0,4.7l-0.3,0.6l-0.1,1.2l-0.3,0.2l0,1l-0.6,1v0.7l-0.3,0
		l-0.5,0.8l-0.1,0.4l-0.7,1.1l-0.2,1.2l-0.3,0.6l0.1,1l-0.2,0.8l-0.4,0.3l-0.1,1.2l-0.2,0.3l0.3,1.7l-0.1,0.9l0.1,0.6l0.5,1.4l0.6,0
		l0.3,0.8l-0.2,0.8l-0.5,0.5l-0.3,1.1l-0.6,0.6l-0.2,0.5l-0.6-0.2l-0.2,0.2l-0.7,0l0.2,0.4l0.7,0.2l0.4,0.3l-0.1,0.7l-0.4,1.2l0,1.3
		l-0.1,0.2l-0.1,1.5h-0.3l-0.6,1.2l-0.3-0.3l-1-0.6l-0.9-0.9l-2.9-0.5l-1.9,0.3l-0.6,0.6l-1.4,0.4l-0.9,1l-0.6,1.5l-1.4,2.5
		l-0.8,2.2l-0.4,1.4l0.2,1.7l1.9,1.1l0.2,0.8l-1.2,2.2l-1.2,1.8l-1.3,1.7l-0.7,1.8l-0.6,0.7l-1,0.9l-0.3,1.5l0,2.9L493,566l-1.2,0.8
		l-0.4,1.3l-0.2,1.6l-0.6,1.1l-0.5,1.1l-0.7,1.2l-1.1,3.9l-0.6,1.4l-0.9,1.4l-1.4,1.3l-0.5,1l-0.1,9l-0.8,0.6l-1.1,0.6l-2.5,0.1
		l-0.8,0.3l-0.9,0.8l-1.1-0.1l-0.8-0.6l-0.2-1.8l-0.5-1.4l-0.8-0.7l-3.2-0.8l-1.4-1.3l-1.3-0.6l-0.3-0.6l-0.4-1.7l-0.8-0.9l-1-0.6
		l-0.3-1.7l0-1.8l-0.7-0.6l-0.7-1.5l-1.3-0.7l-0.5-0.6H462l-0.9,0.6l-0.9,0.8l-0.8,0.3l-1.2-0.5l-1-0.6l-0.6-1.3l-0.9-1l-1.5-0.9
		l-1.8-0.5l-1.7-0.8l-1.7-0.3l-1.1-1l-1.7-3.2l-0.5-1.7l0-2l-0.5-1l-0.7-0.8l-0.4-1.4l-0.6-0.6l0.3-0.3l0.1-1.6l-0.3-1.2l-1.3-0.9
		l-1.8-1.4l-1.6-1.1l-1.6-0.7l-1-0.9l-1.3-0.5l-0.6-0.4l0.7-2.1l0.8-0.5l0.8-1.3l0.6-1.1l2-0.8l1-0.6l0.2-3.2l-0.4-1.3l-1-0.2
		L438.9,538.4z"/>
	<path id="TW-PEN" class="st0" d="M214.7,528l1.1,0.8l-0.2,0.2l-0.7,0l-1.2,1l-1.1,0l-0.4,0.2l-0.6,0l-0.3,0.4h-0.5l-0.3-0.3l0-1.2
		l0.7,0l0.1,0.7l0.5-0.1l0.3-0.3l0-0.5l1-0.1l0.4-0.5h1L214.7,528z M225.8,492.6l-0.2,0.7l-0.3-0.5L225.8,492.6z M219.6,507.6
		l0.3,0.9l-0.7,0.1l-0.1-0.8L219.6,507.6z M210.5,565.1l0.2,0.4l0,0.7l-0.8-0.1l-0.5-0.4l0.1-0.6L210.5,565.1z M200.2,573.5l1,0.2
		l-0.1,0.5l-0.6,0.5l0.1,0.5l-0.2,0.7l0.3,0.8l-0.2,0.3l-0.8-0.2l-0.5,0.3l-0.3,0.5l-0.3,0.1l0.1,0.6l0.3,0.2v0.5l-0.5,0.3l-0.1-0.5
		l-1.5-0.5l-0.1-0.6l0.3-0.4l0-0.9l-0.5-0.4l-0.4-0.6l-0.6-0.5l0-0.5l0.9-0.4h0.8l0.2-0.2h0.8l0.7-0.3L200.2,573.5z M184.2,556.8
		l0.2,0.3v0.8l-0.5-0.2l-0.1-0.6L184.2,556.8z M214.6,548l0.3,0.5l0.4,0.3l0.4,1.3l-0.7-0.1l-1.1,0l-0.5,0.2l-0.3,0.8l-0.5-0.2
		l-0.6,0.1l0-1.2l0.8,0.2l0.3-0.4l-0.1-0.6l0.7,0l0.5-0.2L214.6,548z M225.3,507.5l0.2,0.2l0.9,0.3v1l-0.3,0.5l-0.1,0.5l-1.3-0.3
		l-1-1v-0.4h0.8l0.3-0.7L225.3,507.5z M235.9,566.6l0.4,0.1l0.1,0.4l-0.3,0.3l0,0.5l-0.5,0.4l-0.3,0.7l0.2,0.4l-0.6,0.5l-0.3-0.5
		l-0.6-0.6l0.4-0.8l-0.4-0.4l0.3-0.7l0.8-0.3l0.4,0.1L235.9,566.6z M235.9,510.5l-0.5,0.6l-0.4-0.4L235.9,510.5z M212,566.4l0.5,0.3
		l0,0.3l-0.9,0.8l-0.6,0.2l-0.1,0.4l-0.5-0.2v-0.4l0.5-0.2l0.3-0.4l0.2-0.6L212,566.4z M234.5,497.7l0,1.1l-0.4-0.4l0.1-0.5
		L234.5,497.7z M223.2,495.4l0.6,1.2l-0.5,0l-0.3-1.1L223.2,495.4z M217.7,491.4l0.2,0.5l-0.2,0.7l0.2,0.5l-0.5,0.3l-0.4-0.4
		l0.3-0.4l-0.1-0.6l-0.2-0.6L217.7,491.4z M233.7,500.5l0.6,0.6l0,0.4l-1.1,0.2l-0.7-0.1l0.4-0.8l0.7,0.1L233.7,500.5z M221.7,498.6
		l0.6,0.4l0.2,0.5l0.8,0.1l0.4-0.7l0.3-0.1l0.4,0.2l-0.1,0.3l0.3,0.6l0.5,0.1l-0.1,0.7l0.8,0.3l-0.4,0.5l0.4,1h0.4l0,0.8l-0.2,0.4
		l-1-0.3l-0.5,0.5l0.2,0.7H224l0.2,0.5l0.4,0l0.1,0.5l0.5-0.5l0.6,0.3l0,0.5l-0.3,0.2l-0.8,0.3l0.2,0.6l-0.6,0.6l-1-0.3l-0.6,0
		l-0.5,0.5l0-0.9l0.3-0.2l0.2-0.5l0.5-0.2l-0.2-1.4l-0.5-0.2l-0.7-0.7l-0.5-0.2l-0.1-1.1l-0.5-1.1l-1-0.1l-0.3,0.5l-0.5,0.7
		l-0.1,0.6l-0.9-0.6l-0.9-0.1l-1.7,2.3l0.4,0.1l-0.2,0.6l-0.6,0.9l-1-0.2l-0.5,0.5h-1l-0.3-0.2l-0.4,0.2l-0.1,0.4l0.5,0.9l-0.3,0.3
		l0.4,0.8l-0.3,0.7l0.5,0.9l-0.1,0.7l-0.2,0.5l-0.4,0.6h-0.7l-0.2,0.3l0.2,0.8l0.4,0.3l-0.2,0.5l-0.5,0.5v0.5l0.5,0.2l-0.2,1
		l0.7,0.2l-0.5,0.7h-0.8l-0.2-0.2l-1-0.2l-0.7-0.3l-0.7,0.1l-0.4,0.8l-1.1-0.1l-0.7,0.3l-0.4,0.4l-0.8,0l-0.5-0.3l0.3-0.8l1.3-0.6
		l0.5-1.1l0.4,0l0.9,0.8h0.5l0.8-0.6v-0.2l0.7-0.5l0-0.6l0.3-0.6l0-0.4l-0.8-0.7l-0.9-0.2l-0.2-0.4v-0.5l0.9-0.3l0.5,0.8l0.3-0.4
		l-0.1-0.7l0.2-0.5l0.5-0.8l0.4-0.3l-0.3-0.5l-0.4,0l-0.7-0.6l0-0.4l0.7-0.8l-0.3-0.2l-0.1-0.5l0.3-1.1l0.6-0.1l0.6-2h0.4l0-1.1
		l1.5,0l0,0.9l-0.6,0.5v0.4l0.3,0.3l0.4-0.2l0.3,0.5l0.9,0.5h0.5l0.8-0.6l1-1.2l0-0.7h0.5l-0.2-0.5l0.4-1.5l0.3-0.5l0.7-0.1l0.3-0.3
		l0.4,0.1l1.1-0.4l0.2-0.3l0.8,0l0.2-0.4L221.7,498.6z M229.5,502.8l0.3,0.1l-0.1,0.7l-0.9,0.5l0.1-1.1L229.5,502.8z M212.3,525.4
		l0.1,0.6l-0.4,0.5l-0.7,0l-0.3-0.2l0.3-0.9l0.4,0.1L212.3,525.4z M226.7,568.3l0.7,0.1l-0.2,0.6l0.1,0.7l-0.6,0.3l-0.7-0.3
		l-0.6-0.6l0.1-0.5l0.6-0.3L226.7,568.3z M232,509.6l0.6,0.2l0.4,0.4l0,0.6l-0.2,0.3l0,0.5l0.8,0.3l-0.3,0.5l0.1,0.5l0.5-0.2
		l0.5,0.1l0.3-0.4l-0.2-0.4l0.3-1l0.5,0.2l0.1,0.6l0.3,0.3h0.5l-0.2,0.5l0.1,0.4l0.8,1.1l-0.3,1.6l0.3,0.1l0,0.8l0.3,0.6l0.7,0.3
		l0.5,0l0.4,0.3l0,0.8l-0.5,0.3l-1.1,0.5l-0.4-0.3l-0.3,0.4l-0.5-0.1l-0.3-0.6l0.5-0.2l0-0.3l-1.2-0.6h-0.4L234,518l-0.6-0.1l-1.6,0
		l-0.6-0.2l-0.3,0.5l-0.6,0.3l-0.3,0.7l-0.3,0.1l-0.1,0.9l-0.5,0.2l-1,0.1l-0.6,0.7l0.2,0.5l-0.4,0.4l-0.3-0.4l-0.7,0.2l0,0.7h-0.3
		l-0.3,0.5l-0.4,0.1l-0.1,0.9l1,0.1l-0.1,0.6l-0.8,0.5l0.3,0.3l0.1,1l-0.6,0.1l-0.7-0.3l-0.3-0.4l-1.6-0.2l0,0.4l-0.7,0.3h-0.8
		l-0.4,0.3l-0.8-0.4l0-0.7l0.5-0.6l-0.2-0.8l-1.1-0.7l-0.5,0.5l-0.9,0l-0.2-0.3l-0.5-1.3l-0.5,0l-0.1-0.5l-0.4-0.3h-0.6l-0.2-0.8
		l0.3-0.4l0-0.5l0.7,0l0-0.7l0.5-0.1l0.3,1.5l0,0.4l0.8,0.5l0.1,0.7l-0.4,0.5l0.3,0.6l0.5-0.6h0.5l0-0.5l0.4,0l0.5,0.2l0.8,0.9
		l-0.5,0.4l0.3,0.8l0.5-0.2l0.4-0.7l-0.1-1l0.5-0.3l0.5,0.3h0.7l0.3,0.5h0.5l-0.2-1l-0.5-0.5l1-0.5l0.3-0.5l0.6-0.5l-0.4-0.3
		l-0.3,0.3l-1-0.1l-0.8-0.2l-0.3,0.5l-0.4-0.2l-0.8,0.4l-0.6,0l-0.1-0.3l-1,0l-0.5-0.1l0.2-0.5l-0.3-0.5l0.2-0.2l1.5,0l0.1-0.5
		l0.3,0l0.5-0.7l-0.8-0.6l-0.4,0.4l-0.4,0.1l-0.3,0.4l-0.8,0l-0.5,0.3l-0.3-0.3l0.4-0.4l0.2-0.5l0.4-0.3l0-0.4l0.6-0.4L219,515
		l-0.8-1.1l0.1-0.2l0.9,0.1l0.6-0.1l0.5-0.3l0.4-0.5l0.5,0l0.1-0.6l0.8,0.5v0.9l-0.5,0.3l0.4,0.5l0.4,0.2l-0.2,0.9l0.4,0.1l0.6-0.3
		l0.3,0.3l0.2-0.4l-0.3-2l0.6,0.4l0.9,0l-0.1-1.3l-0.6-0.8l0.5-0.6l0.1-0.5l0.8,0l0,0.4l0.4,0l0.3-0.4l0.7-0.2l0.1-0.5l0.8,0.1
		l0.7,0.5l-0.7,0.7l0.4,1.1l-0.3,0.1l0,0.7l-0.3,0.5l0.3,0.8l0.4-0.3l0.4-1.1l-0.1-0.9l0.8-0.6l0.6,0.1l0.2,1.4h1.1v-0.7l-0.5-0.4
		l-0.2,0.5l-0.4-0.1l0.5-0.6l0.1-0.6l0.3-0.2l0.1-1.1L232,509.6z M211.2,546.7l0.2,0.6l-0.5,0.1l-0.1-0.4L211.2,546.7z M235.2,496.5
		l-0.1,1.3l-0.3-0.2l0-0.7L235.2,496.5z M225,482.6l0.3,0.2l0,0.5l-0.5,0.4l-0.3-0.2L225,482.6z M226,485.2l0.2,0.9l1.4,0.6l0.2,0.3
		v0.7l-0.4,0.3l-0.1,0.4l-0.6,0l0.1,0.5l-1.2-0.2l-0.4,0.4l-0.2,0.5l-0.5,0l-0.2-0.6l-0.8-0.3l0.4-0.8l0.7-0.3l0.3-0.6l0.5-0.6
		l-0.3-0.2l0.7-1.1L226,485.2z M181.7,542.1l0.3,0.4l0.5,0.1l0.2,0.4l0.5,0l0.3,0.6l-0.5,0.3l0,0.5l-1.1,0.2l-0.2,0.2H181l-0.2-0.4
		l-0.1-0.7l0.5-0.5l0.2-0.9L181.7,542.1z M208.2,544.7l0.4,0.4l0.3,0.6l0.8-0.1l0.3-0.4l0.4,0.6l-0.1,1l0.2,0.7l0,0.7l0.5,0.1
		l-0.4,0.8l1,0l0,0.9l-1.2,0.3l0.3,0.5l-0.2,0.6l0.5,0.4l-0.1,0.5l-0.8,0l0-0.4l-0.5-0.1L209,552l-0.6,0l-0.9,0.2v-0.4l-0.4-0.5
		l1.1-1.6l-0.3-0.4l0-0.8l0.2-0.3l-0.3-0.9l0.5-0.5l-0.3-0.6l-0.2-0.7l-0.3-0.3l0.2-0.5L208.2,544.7z M214.6,550.2l0.2,0.7l-0.4-0.1
		L214.6,550.2z M181.8,556.1l0.5,0.7l-0.4,0.1l-0.6-0.4L181.8,556.1z M233.5,566.5l0,0.6l-0.2,0.2l-0.6-0.1l0.3-0.7L233.5,566.5z"/>
	<path id="TW-LIE" class="st0" d="M279.6,121.5l-0.1,0.6l-0.6,0l0.3-0.7L279.6,121.5z M346,85.8l0.5,0.3l-0.2,0.4l-0.4-0.3L346,85.8
		z M286.4,69.4l0.6,0.6l-1,0.2l-0.6,0.8l-0.8,0.7l-0.4-0.2l0.5-1l1-0.1L286.4,69.4z M283.4,64.7l-0.3,1l0.6,0.6l-0.5,0.4l0.2,0.6
		l-0.7,0.5h-0.8l-0.3-0.5l0-0.7l0.8-0.2v-0.5l-0.3-0.3l0.3-0.3l0.3,0.1l0.1-0.6L283.4,64.7z M281.2,116.4l0.2,0.2l-0.3,0.9l1.1,0.3
		l0.1-0.5h0.8v0.5l-0.5,0.6l-0.1,0.5l-0.8,0.2l0,0.7l-0.4,0l-0.5,0.4l-0.3-0.4l-1.2,1.3l-0.3-0.6l0.3-1l0.3-0.1l0.7-0.8l0-0.7
		l0.5-0.8l0-0.6L281.2,116.4z M319.7,54l0.1,0.5l-1.3,1.2l-0.4,0.5l-0.4,0.1l0.5-1.3h0.3l0.3-0.5L319.7,54z M357.7,47.9l0.1,0.6
		l0.3,0l0.2,0.7l-0.4,0.4L358,50l0.4,0.2l0.3-0.3l0.7,0.2l0-0.6l0.3-0.5l0.4-0.2l0.5,0v0.8l0.4,0.3l0.6-0.2l0.2,0.5l0.5,0.5l0.1,0.6
		l-0.6-0.2l-0.4,0.1l-0.2-0.5l-0.4,0.3l0,0.5l-0.6,0.4l-0.3,0.7l-0.7-0.2l-0.7,0.6l-0.3-0.1l-0.2-0.7l0.1-0.7l0.4-0.4l-0.3-0.6h-0.5
		l-0.6,0.4v-1.7l-0.5,0.4l-0.5,0.9l-0.3-0.2l0.2-0.4l-0.2-0.5l0.8-0.4l0-0.7L357.7,47.9L357.7,47.9z M284.9,72.4l0.3,0.6l0.6,0.1
		l-0.1,0.5l0.2,0.5l0.5-0.1l0.8,0.1l-0.1,0.9l-0.5,0.4l0.3,0.3l0,0.6l0.4,0.2l-0.2,0.5l-0.4,0.2l-0.1-0.8l-0.3-0.2l-0.1-0.6
		l-0.4-0.2l0.1-0.4l-1.1-0.1l-0.3,0.8l-0.6-0.1l-0.4,0.7l-0.2-0.7l-0.8-0.1l-0.2,0.2l-0.7,0.3h-0.5l-0.3,0.3v1.4l-0.1,1.2l0.3,0.2
		l-0.2,0.6l-0.9,0.1l-0.1-1.5l0.1-0.6l0.7-0.9l-0.4-0.7l0-0.4l0.5-0.3l0.5-0.6l0.6-0.3l0.5,0.2l0.5-0.7l0.8-0.7l0.2-0.6l0.3-0.3
		L284.9,72.4z M272.4,83l0.3,0l0.4,0.6l0.9,0l0,0.4l-0.6,0.8l0.2,0.6l0.6,0.1l0.1,0.3l0.6,0.1l0.3,0.8l0.7-0.7l0.5,0l-0.1-0.5
		l0.9-1.2l0.5-0.1l0.2,0.2l0.6-0.2l0.8,0.2l0,1.4l-0.5,0.1l-0.5,1.2l-0.5-0.6l-0.5,0.3l0,0.5l-1.1,1h-0.5l-0.3-0.5l-1.1,0.7
		l-0.2,0.4l-0.5,0.2l-0.1-0.7l-1,0.1l-0.6-0.2l-0.3-0.3l0-0.8l0.6-0.6l0.4-1l-0.1-0.6l0.3-0.6l-0.5-0.6v-0.7L272.4,83z M276.6,115.3
		l0,0.3l0.6,0.2l-0.4,0.7l-0.5,0.5l-0.7,0l-0.4,0.9l-0.3,0.1l-0.3-0.6l-0.6,0l-0.8-1.4l0.4-0.4l1.9,0L276.6,115.3z M286.8,72
		l0.5,0.2l0,0.4l-1-0.1L286.8,72z"/>
	<path id="TW-KIN" class="st0" d="M53,370.7l0.3,0.7l-0.4,0.2l-0.5,0.7l-0.8,0.3l-0.5,0.6l0.4,0.7l0.2,0.9l-0.2,0.4l-0.4,0.1
		l-0.4-0.3l-0.4,0.3l-0.1,0.6l0.4,0.4l-0.6,0.6h-0.5l-0.9,0.6l-0.5,0.1l-0.6,0.5l-1.3,0.1l-0.1-0.4l0.9,0l0-0.6l0.3-0.4l-0.2-0.5
		l-0.6-0.9l-1.7-0.7l-0.6,0.1l-1-0.8l-0.6-0.4l-1.1-0.2l-1.1,0.2l-0.5,0l-2.4,0.7l-2.2,1l-1,0.8l-0.8,0.8l-0.6,0.9l-0.3,0.6
		l-0.5,0.7l-0.3,1.2l-0.3,0.5l0,0.6l-0.5,0.2l-0.5-0.2l-0.2,0.4h-0.5l-0.1-0.4l-0.5-0.2l-1-0.2l-0.5-0.7v-0.2l-1.1,0l-0.4,0.1l0-0.7
		l-0.3,0l-0.4-0.6l-0.8-0.8l-0.7-0.1v-0.3l-0.5-0.4l0.6-0.4h0.5l0.3,0.3l0.8-0.3l0.1,0.3l0.5,0.2l0.5-0.4l0.5-0.8v-0.5l0.3-0.6
		l0.9,0.1l0-0.8l-0.2-0.3l0-1.5l-0.4-1.2l-0.6-0.9l-0.2-0.8l0.4-1.1h0.7l0.3-0.2v-0.6l-0.2-0.3l-0.5,0.4l-0.9-0.1l-0.3,0.1l-0.1,0.9
		l-0.6-0.5l0-0.5l-0.4-0.2l0.4-0.7l0-0.4l0.4-0.3h0.7l0.2-0.6l0.8-0.5h0.6l0.3-0.5l1.2,0.6l1.4,1.4l1.9,1.5l0.9,0.3l0.5,0.5l0.5-0.1
		l2,0.7h0.9l0.9-0.2l0-0.2l0.7-0.8l0.2-0.9v-0.6l-0.6-0.9H40l0.2-0.4l0.8-0.5l0.1-0.5l0.3-0.2l-0.2-0.8l0-1.5l-0.3-0.6l1.1-0.1
		l0.6-0.2l0.4-0.6l0.8-0.2l0-0.7l-0.3-0.2l0.1-0.5l0.5,0.1l0.8-0.6l0.4,0l0.6,0.4l0.3,0.4l0.6,1.8l0.3,0.4l0.4-0.1l1.1,0.1l0.2-0.1
		l0.8,0.5l-0.3,1.2l0.4,0.8l0.6,0.1l-0.1,0.7l0.3,1l0.9,1.2l0.1-0.3l0.5-0.2l0.3,0.3l-0.3,0.7l-0.4,0.3l0.1,0.7l-0.1,0.8l0.3,0.5
		l-0.1,0.7l0.8,1L53,370.7z M6,382.5l-0.1,0.2l-0.6,0.1l-0.6-0.6l0.6-0.2l0.2,0.4L6,382.5z M205.4,282.2l0.2,0.6l-0.8-0.2l-0.6,0.2
		l-0.4-0.5l1.1-0.4L205.4,282.2z M21.2,371.8l0.9,0.2l-0.3,1.3l-0.3,0l0,1.6l-0.3,0.7l-0.4-0.1l-0.1-0.4l-0.7-0.1l-0.8,0.2l-0.5,0.7
		l0.1,0.9l-0.5,0.2l-1-0.3l-0.8,0.5l-0.5,0.6l-0.2,0.5l-0.5,0l-0.5-0.7l-0.7-0.1l-0.4-0.2l0.7-0.6l0.3-0.4l-0.5-1.4l1.2-0.1l0.3-0.3
		l0.3-2.4l0.3-0.9L17,371l1,0l0.2-0.3l0.7-0.3l1.1,0.2l0.5,0.6L21.2,371.8z M7.3,381.1l0.3,0.6l-0.9,0.2l-0.6-0.7l0-0.4l-0.7-0.6
		l0.3-0.4l0.7,0.1l0,0.3l-0.3,0.4l0.6,0.5L7.3,381.1z M202.4,281.6l-0.7-0.1l-0.7-0.4l-0.3-0.8l0.5-0.2l0.2,0.4l0.9,0.2L202.4,281.6
		z"/>
	<path id="TW-KEE" class="st0" d="M559.7,257.4l-0.5,1.4l-0.7,0.9l-0.7,1.2l-0.8,0.5l-0.6-0.5l-0.8-0.5l-0.7,0.2l-0.9,0.6l-0.8,0.9
		l-0.9,1.3l-0.2,1.3l0.3,1.1l0.8,0.6l1.1,0.5l0.6,1.3l-0.5,1.1l-2.4,1.2l-1.4,0.6l-1.9,0.1l-1.8-0.4l-0.6-0.8l-1.6-1.7l-1.6-0.5
		l-1.9-0.2l-1.1-1.2l-0.6-0.5l-1.5-0.2l-0.6-0.8l-0.6-1l-0.9-0.8l-0.5-1.5l-0.4-1l0.1-1.3l-2.1-1.2l-0.6-1.7l0.6-0.6l2.1-0.5
		l0.7-0.8l1.2-0.1l1.5-0.5l1.1-0.5l0.8-0.5l2.6-1l0.8-0.5l0.3-0.8l0.3,0.6l-0.2,0.2v0.7l1.3-0.2l0.3,0.2l1.1-0.1l0.4,0.3l0.4,0
		l0.6,0.6l0.6-0.1l0.3,0.6l1.4,0.1l-0.2,0.7l0.4,0.1l-0.2,0.8l0.1,0.6l-1,0.7l-0.5,0.7l0.2,0.4l0.5-0.8l0.8-0.2l0.4-0.5l0.6-0.3
		v-0.3l0.5-0.6l0.2-0.4l-0.3-0.4l0-0.5l-0.4-0.4l0.7-0.6h0.7l0.6,0.5l0.9,0l0.1,0.2l-0.5,0.5l0.3,0.5l0.3,0.1l0.8,0l0.5,0.4l0,0.6
		l0.9,0.3l0.3-0.6l1,0.2l0.8-0.1l0.1,0.3l-0.3,0.4l-0.2,0.6l0.2,0.7l0.4,0.1l0.4,0.4L559.7,257.4z"/>
	<path id="TW-TPE" class="st0" d="M505.7,260.5l1-0.2l0.9-0.2l0.6-2.9l1.4-1.3l1.4-2.1l1.3-1.6l0.8-0.9l1.4-0.3l0.8-0.5l1.1-1
		l1.9-0.8l0.2-0.9l0.8-0.6l0.8-0.8l0.4-0.8l0.4-0.2l0.8,0.5l0.5,1.3l0.6,0.4l1.5,0.3l0.7,0.6l-0.4,1.9l0.4,1.3l0.9,0.6l0.2,1.7
		l-0.2,1.1l0.6,1l1.3,1.3l0.6,0.9l-0.9,1.3l-0.2,1.3l1.4,1l1.3,0.5l1.4,1l0.5,1.1l0.1,1.4l-0.3,1l-0.7,1l-0.7,0.7v0.8l0.6,0.6
		l0.5,0.9l-0.9,0.5l-0.1,0.7l0.7,0.8l1,0.9l1.8,1l0.9-0.2l1.6,0.2l0.5,0.6l-0.4,0.6h-1.4l-3.5,0.3l-2.5-0.2l-1.4,1.1l-0.4,1v1.4
		l0.5,1.7v2l0.9,0.7l0.6,0.7l-0.4,1.3l-1.7,0.2l-1.9-0.7h-2.8l-1.5-1.1l-0.9-1.8l-1.5-0.5l-1.3-0.9l-0.7-3.3l-1.2-1.5H514l-0.9,1.2
		l-1.3,0.6l-1.1-0.8l-0.2-2.2l0.1-1.1l1-1.1l1.2-1.2l0.1-3l-0.1-2.1l-1.2-2l-1.2-1.2l-2-0.2l-2.2-1.2l-0.5-0.6L505.7,260.5z"/>
	<path id="TW-TAO" class="st0" d="M509.2,333.9l-0.1,0.3l-1.2,0.4h-1.3l-0.9,0.4l-1.2,1.3l-0.6,3l-0.4,1.4l-0.9,1.4l-0.5,1.3
		l-1.6,2.3l-1.4,0.9l-1.4,1.1l-1.2,0.5l-1.8,0.4l-1.8-1.4l-1.3-1.3l-0.5-1.6l0.9-2.7l-1-0.6l-1.2-0.6v-1l0.7-2.5l0.1-1.5l-1.5-0.4
		l-0.9-0.8l-0.2-1.3l-0.8-1.2l-1.4-0.9l-0.8-0.6l-1.1-0.1l-0.9,0.4l-1.1,0.1l-0.1-1.4l0.8-1.6l0.5-1.1l-0.5-0.7l-0.8-0.8l0.3-2.8
		l0.5-0.6l-0.1-1.4l-1-1.6l-1.4-0.5l-1.7-0.3l-2.3-1.5l-0.5-1.8l-1.1-1L474,313l-0.8-0.4L472,313l-1.1,0.2l-1.6,0.1l-2.3-2.2l-1.6-1
		l-0.6-0.6l-2.3-1.6l-0.9-1.4l-1.8-0.3l-0.4-1.1l0.7-1.1l0.7-1.6l-0.3-1.8l-0.8-0.9l-5.3,0.1l-1-0.7l-0.2-1.1l-1-0.8l-0.8,0.2
		l-0.8,0.5l-1.1-0.9l-0.9-0.3l-1.7-0.7l-0.9-0.7l-1-0.6l0.5-1.6l-0.7-1.5l-0.3-1.2l-1.3-1l-1.2-0.5l-1.4,0.3l-0.8,0.5l-1.5-0.1
		l-1-0.4l-1.2,0.5l-0.6,0.6l-1.8-0.2l0.8-0.6l0.1-1l0.5-0.6l0.4,0l0.6-0.4l0.7-0.8l0.6-1.2l1.2-1.1l0.4-0.8l0.1-0.6l0-1.2l-0.2-0.6
		l0.6-0.7l0.2-0.8l0.3-0.9l1.7-2l-0.3-0.1l1.3-1.7l1.3-1.3l0.1-0.3l0.8-0.3l0.3-0.3l1.1-0.5h0.8l0.8-0.3l0.5-0.6l0.6-0.2l0.7-0.8
		l1.1-0.6l0.1-0.3l1.6-1l0.8-0.1l1-0.6l0.7-0.2l1,0l0.2-0.2l1.1-0.1l0.3-0.2l0.8-0.1l0.1-0.2l1.4-0.1l0.1-0.2l1.2-0.3l1.4-0.7h0.4
		l0.2-0.4l0.6-0.6l1-0.5l0.5,0l2.1-1.6l0.8-0.4l0.2-0.3l0.9-0.4l1.1-0.3l1.3-0.1l0.4-0.6h0.3l0.5,0.4l0.4-0.1l0.3-0.6l-0.3-0.5
		l0.8,0l0.4-0.2l0.5,0.1l0.7-0.3l1.1,0.2l0.3,0.5l0.5,0.1l0.4-0.1l0.6,0.2l0.5,0.6l1.1,1.3l1.3,1l2.1,0.5l1.4,0.2l1.6,1l1.4,0.6
		l0.8,1.5l0.4,1.3l0.6,0.8l3.3,0.5l2.2,0.1l1,0.6l0.7,1.5l-0.2,1.3l0.2,1.7l1.2,0.7l0.4,0.7l-0.3,0.8l-0.6,0.2l-0.9,0.6l0.1,0.8
		l0.4,0.3l-0.1,1l-0.7,0.5l-0.5,0.5l-1.1,0.3l-0.7,1.3l-1.1,1.1h-6.7l-0.4,0.9l0.3,0.9l0.1,1.4v1.7l-0.7,0.9l-0.2,1.3l0.2,1l0.9,0.2
		l0.6,0.3l-0.2,0.8l-0.9,0.9l-0.4,0.9l0.2,1l1.1,1.6l1,0.6l0.9,1.3l0.6,1.8l0.1,1.3l0.9,1.2l-0.3,0.5l-1.3,0.2l0.1,0.7l2.2,0.8
		l1.4,0.8h1.6l1.2-0.5h1.5l1.9,0.8l1.1,1l1.4,1.7l1.2,1.2l0.6,1.8l0.8,1.3l0.7,0.5l-0.3,1.3l-1,1.1l-1.5,1.3l-0.5,1.3l0.2,1.9l1,1.7
		l0.9,2l1.5,2.9l1.4,1.7l1.1,0.5l1,1l-0.1,1.9l0.5,0.9L509.2,333.9z"/>
	<path id="TW-HSZ" class="st0" d="M427.1,305.6l0.9,1.7l3,0.2l2.7,0.7l0.9,1l1.4,0.4l2.1,1.4l1.9,4l0.3,2.3l0.4,1.4l-0.3,1.3h-0.8
		l-2-1.5l-0.8-0.9l-1.1-0.7l-1,0.4l-0.6,1l-1.1,0.5l-1.2,0.1l-0.7,0.7l-0.8,1.2l-1.2,0.7l-1.6,1.9l-0.3,1.6l-0.5,1.3l-0.8,1.1
		l-0.8,0.4l-0.8-0.7l-1-0.6l-0.3-1.2l-0.7-0.5l-0.4-0.8h-0.8l-1,0.6l-1.1,0.1l-0.5-0.6l-0.1-0.6l0.7-0.6l0.4,0l1.3-0.6l1-0.8l0.3-1
		l0-1.8l0.9,0l0.3-0.5l0-1.2l0.3-1.1l-0.2-0.2l0.1-0.8l0.2-0.1l0.1-1.2l0-1.1l-0.2-0.6l0.1-0.7l-1,0.2l-0.6-1l0.2-0.7l0.7-1.2l0.4-1
		l0.8-0.9l0.3-1.5l0.5,0.4l0.3-0.7l-0.1-0.5l0.6,0l0.5,0.6l0.2,0.6l0.4,0l-0.1-0.7l0.3-0.1L427.1,305.6z"/>
	<path id="TW-HSQ" class="st0" d="M497.7,347.5l0.5,0.6l0.6,1l0,1.5l-0.6,0.9l-1,0.5l-0.9,0.7l0.2,1.5l0.4,1.3l-0.2,2.6l-0.7,1.5
		l-1.4,1.6l-1.9,1.7l-1.3,1l-1.3,1.2l-1.3,0.5l-0.6,1.1l-0.6,1.3l-0.9,1l-1,0.9l-0.5,0.9l-0.5,1.5l-0.7,0.9l-1.5,0.6h-2.5l-2.2,0.2
		l-1.3-0.2l-0.2,0l-0.3-0.9l-0.4-3.8l-1.2-1.2l-1-1.8l-1.1-0.7l-1.2-1.3l-1-0.9l-0.2-1.3l-0.5-0.6l-1.1-0.4l-1.2,0.1l-2.2,1.1
		l-3.7,0h-4.7l-3,0.5l-2.7,0.9l-2.6-0.4l-1.2-0.9v-2.1l0.5-1.2l0.7-1l0.4-1.3l-1.1-2.2l-0.9-0.6l0-0.8l0.8-2.4l0.8-1l0.5-1.2l0.2-1
		l-0.8-1.9l-0.6-0.8l-0.9-0.7l-0.6-1.1l-1.4-0.2l-0.9,0.4l-0.8-0.1l-1.1-1.1l-1.4-0.7l-1-1l-1.1-0.5l-0.6-0.9l-1.6-1.4l-1.6-0.8
		l-1.3-2l-0.6-1.4l-0.7-1l-0.7-0.3l0.4-1.1l0.9-0.5l0.5-0.9l-0.7-0.9l-1.4,0l-1.8,1l-1.2-0.5l-1.1-0.3l-0.8-1l0.3-0.1l0.8-1.1
		l0.5-1.3l0.3-1.6l1.6-1.9l1.2-0.7l0.8-1.2l0.7-0.7l1.2-0.1l1.1-0.5l0.6-1l1-0.4l1.1,0.7l0.8,0.9l2,1.5h0.8l0.3-1.3l-0.4-1.4
		L440,315l-1.9-4l-2.1-1.4l-1.4-0.4l-0.9-1l-2.7-0.7l-3-0.2l-0.9-1.7l0.3-0.7l-0.5-0.7l0.8-0.2v-0.9l-0.5,0.1l-0.1-0.4l0.3-0.6
		l0.5-0.6l0.3-0.6l0.3-0.3l0.2-0.8l0.3-0.5l0.2-0.9l0.4-0.9l1.1-1.2l0.3-0.6l0.5-0.4l-0.3-0.9l0.2-0.4l0-0.5l0.2-0.6l0.6-0.7
		l0.3-0.7l0.6-0.5l0.5-0.8l1.8,0.2l0.6-0.6l1.2-0.5l1,0.4l1.5,0.1l0.8-0.5l1.4-0.3l1.2,0.5l1.3,1l0.3,1.2l0.7,1.5l-0.5,1.6l1,0.6
		l0.9,0.7l1.7,0.7l0.9,0.3l1.1,0.9l0.8-0.5l0.8-0.2l1,0.8l0.2,1.1l1,0.7l5.3-0.1l0.8,0.9l0.3,1.8l-0.7,1.6l-0.7,1.1l0.4,1.1l1.8,0.3
		l0.9,1.4l2.3,1.6l0.6,0.6l1.6,1l2.3,2.2l1.6-0.1l1.1-0.2l1.2-0.4l0.8,0.4l0.5,0.7l1.1,1l0.5,1.8l2.3,1.5l1.7,0.3l1.4,0.5l1,1.6
		l0.1,1.4l-0.5,0.6l-0.3,2.8l0.8,0.8l0.5,0.7l-0.5,1.1l-0.8,1.6l0.1,1.4l1.1-0.1l0.9-0.4l1.1,0.1l0.8,0.6l1.4,0.9l0.8,1.2l0.2,1.3
		l0.9,0.8l1.5,0.4l-0.1,1.5l-0.7,2.5v1l1.2,0.6l1,0.6l-0.9,2.7l0.5,1.6l1.3,1.3l1.8,1.4l1.8-0.4L497.7,347.5z"/>
	<path id="TW-MIA" class="st0" d="M476.3,374.1l-0.5,0.7l-0.6,0.1l-1.1,0.8l-0.3,0.4l-0.6,2.4l-0.5,0.5l-1,0.8l-0.4,0.7l-0.3,2
		l-0.6,0.2H469l-0.5-0.6l-0.3-0.8l-0.3-1.1l-0.9-0.2l-0.7,0.3l-0.9,1.7l-1.9,1.4l-0.7,1.1l-0.5,0.9l-1.2,0.7l-1.7,0.2l-1.9,0.1
		l-0.9,0.7l-0.6,0.8l-1,0.8l-0.3,1.3l-0.5,0.6l-1.2,0.6l-0.6,0.5l-1,0.5l-3.5,0.1l-1.3,0.6l-0.9,0.7l-0.9,1.2l-0.7,1.3l-1.3,0.2
		h-1.8l-0.9-0.9l-0.9-2.1l-1-1.3l-1.4-1.3l-1.8-0.5l-4.7-1l-1.3-0.4l-1.5-0.2l-1.7,0l-0.7,0.2l-0.8,0.5l-0.2,1.3l0.1,1.1l0.3,1
		l0.1,1.2v1.2l-0.4,0.8l-0.6,0.7l-1.3,0.3l-1,0l-4.9,0.3l-3.6,0l-1.5-0.4l-1.4-0.8l-1.6-1.8l-1.4-1.2l-1.9-0.6l-2.6-0.3l-1.5-1.2
		l-1.4-0.8l-2.3-1.6l-2.3-1.3l-2.1-1l-0.9-0.4l-1.9-1.9l-1.4-2l-1.5-1.9l-1.1-1.5l-0.9-0.5l-1.2-0.1l-0.9-0.4l-0.8-1.4l-0.5-1.1
		l-0.8-1.4l-0.5-0.7l-0.9-0.8l0.8-0.6l1.5-0.8l0.4-0.5l0.8-0.6l0.3-0.5l0.1-0.6l0.4-0.3l0.2,0.5h0.5l0-0.4l0.3-0.6l-0.7,0.1l0.3-0.6
		l0.3,0l1.1-1.3l0.3-0.4l-0.1-0.4l0.7-0.7l-0.3-0.4l0.1-0.4l0.7-0.5v-0.9l0.4-0.2l0.2-0.7l0.3-0.4l0.5-1l0.6-1l0.2-0.1l0.6-1.6
		l0.6-2.1l0.8-2.2l0.9-1.6l0.5-1.5l0.2-1.4l0.4-0.8l0.5-1.3l1.1-1.7l0.5-0.4l0.5,0l1.2-0.6l1,0.7l0.4-0.1l1.2-0.8l0.5,0l0.7,0.3
		l1,0.8l0.8,0l0.3-0.3l-1.1-0.8l-0.6-0.6l-0.3-0.5l-0.4-0.3l-1.1,0l1-1.7v-1.1l0.3-0.4l0.9-1l0.4-0.2l-0.2-0.6h0.4l0.5-0.5l0.8-1.3
		l1.1,0l1-0.1l1.9-0.6l0.6,0.1l0.3-0.3l1.3,0.1l0.3-0.1h1l-0.1-1.2l0.5-0.5l0.7-0.5l2.6-2.5l0.1-0.8l0.5-0.2l0.5-1.4l0-1l0.5-1.3
		l0.3-0.1l0.5-0.6l1.5-1.2l0.1,0.6l0.5,0.6l1.1-0.1l1-0.6h0.8l0.4,0.8l0.7,0.5l0.3,1.2l1,0.6l0.8,0.7l0.5-0.2l0.8,1l1.1,0.3l1.2,0.5
		l1.8-1l1.4,0l0.7,0.9l-0.5,0.9l-0.9,0.5l-0.4,1.1l0.7,0.3l0.7,1l0.6,1.4l1.3,2l1.6,0.8l1.6,1.4l0.6,0.9l1.1,0.5l1,1l1.4,0.7
		l1.1,1.1l0.8,0.1l0.9-0.4l1.4,0.2l0.6,1.1l0.9,0.7l0.6,0.8l0.8,1.9l-0.2,1l-0.5,1.2l-0.8,1l-0.8,2.4l0,0.8l0.9,0.6l1.1,2.2
		l-0.4,1.3l-0.7,1l-0.5,1.2v2.1l1.2,0.9l2.6,0.4l2.7-0.9l3-0.5h4.7l3.7,0l2.2-1.1l1.2-0.1l1.1,0.4l0.5,0.6l0.2,1.3l1,0.9l1.2,1.3
		l1.1,0.7l1,1.8l1.2,1.2l0.4,3.8l0.3,0.9L476.3,374.1z"/>
	<path id="TW-ILA" class="st0" d="M553.9,393.5l-2.1,0.1l-1.2-0.8l-1-0.5l-2-0.5l-2.8-0.2l-4.4-1.6l-1.6-1.1l-1.4-1.1l-1.5-0.6
		l-1.1-0.3l-0.9-1l-0.8-0.7l-1-0.1l-0.4,1.3l0.3,1.1l0.7,0.7l0.2,0.7l-0.7,0.4H531l-2,0.5l-0.9,0.4l-0.5,0.7l0.3,0.6l0.9,0.8
		l-0.2,0.8l-1.2,0.6l-1.4-0.2l-1.5-0.5l-2-0.4l-2-1.7l-2.2-1.2l-2.1-0.6l-3.6-0.4l-2-0.2l-2.1-0.9l-1.5-0.8l-1.1-0.9l-0.5-0.6
		l-0.8-1.3l-1.2-1.2l-1.3-0.7l-2.4,0.1l-1.8,0.5l-1.2,0.5l-1.1,0.9l-0.9,0.7l-1.4,0.1l-1.2-1.6l-0.7-1.5l-1.1-0.9l-1.8-0.2l-2.4-1.2
		l-0.4-0.7v-0.8l0.5-1l0.2-1.4l-0.5-1.7l-0.7-0.5l-0.4-0.8l0.5-1.5l0.5-0.9l1-0.9l0.9-1l0.6-1.3l0.6-1.1l1.3-0.5l1.3-1.2l1.3-1
		l1.9-1.7l1.4-1.6l0.7-1.5l0.2-2.6l-0.4-1.3l-0.2-1.5l0.9-0.7l1-0.5l0.6-0.9l0-1.5l-0.6-1l-0.5-0.6l0,0l1.4-1.1l1.4-0.9l1.6-2.3
		l0.5-1.3l0.9-1.4l0.4-1.4l0.6-3l1.2-1.3l0.9-0.4h1.3l1.2-0.4l0.1-0.3l0.5-0.2l1.7,0.2l1.2-0.2l0.9-0.9l1.7-0.2l1.4-0.7l1.7-1
		l0.9-0.9l1-1.4l1.9-0.3l1.5-0.2l1.4-1.5l0.9-0.2l0.7-0.7l0.6-1.1l0.2-0.9l-0.1-1.9l-0.7-0.7l-0.4-0.6l-0.1-0.9l0.8-0.7l0.4-0.7
		v-1.5l0.1-1l1-0.6l0.6-0.6l1.3-0.2l1,0.3l0.7-2l0.6-0.8h1.4l1.2-0.2l1.4-0.4l1.2-0.2l0.9-0.4l1.2-0.2l1.2-0.6l1.2-0.9l0.5-1.1
		l1.1-0.8l1.1-0.2l0.9-0.3l0.6-0.9l0.9-1.1l1.2-0.6l1.2,0.2l1.2,0.4l1.9-0.2l1.3-0.6l0.7-1l0.1-1.3l0.5-2.1l2.5-2.6l2-0.4l2-0.1
		l1-0.4l1.4-0.8l0.9-0.9l0.5-1.4l-0.3-1.3l-0.9-1l-0.6-1.2l0.2-1.1l0.4-1.2l1.2-0.6l1.1-0.2l1.7,0.6l1.7,0.2l1.5-0.6l1.4-1.3l0.8-1
		l1.7-0.6h2.2l1.5-0.6l0.9-0.6h1.2l0.2,0.3l-0.5,0.4l-0.5,0.2l-1.2,0.8l-1.2,0.3l-1.1,0.6l-0.5,0.6v0.6l-0.5,0.3l-0.3,0.5v0.5
		l-0.5,0.5l-0.8,0.2l-0.2,0.4l-0.6,0.4l0,0.9l-0.8,0.1l-0.5-0.1l-0.6,0.4l-0.9,1l0.3,0.6v0.6l-0.4,0.4l0.1,0.9l-0.5,0.6L570,294
		l-0.3,0.6l-1.1,1.2l-0.8,0.1l-0.3,0.7l-1,1l-0.9,0.2l-0.2,0.2l-0.3,0.9l-0.7,0.7l-0.4,0.6l-0.1,0.5l-0.5,1l-0.6,1.8l-0.2,0.3
		l-0.6,1.8l-0.7,2.8l-0.3,1.8l-0.5,3.8l-0.1,2l0,2.8l0.2,1.7l0.5,2l0.3,1.1l0.5,1.4l0.5,1l0.2,0.8l0.7,1.5l-0.2,1.8l0,1.5l0.4,3.7
		l0.6,2.7l0.9,2.4l0.6,1.2l0.2,0.6l0.3,0.4l0.2,0.6l1.1,1.2l0.6,0.2l0.6,0l0.5,0.6l0.6,0l0.5,0.4l0.2,0.7l-1.1,0.1l0.2-0.3l-0.3-0.3
		l-0.8,0.3l-1-0.7l-0.9,0.2l-0.2,0.6l0.6,0.5l0.1,0.6l0.6-0.6l0.3,0.1l0,0.6l-0.3,0.2l-0.2,0.5l0.3,0.4l0.5-0.3l0.6,0.8l0.8,0.7
		l-0.2,0.3l-0.8,0.1l-0.5,0.2l0.2,1.4l0,1.9l0.2,1.2l0.3,0.6l-0.3,0.5l0.1,0.9l0.3,0.3l-0.8,1.1l-0.9,0l-0.5,0.2l-0.5,0.5l-1,0.4
		l-1,0.1l-0.3,0.4l-0.4,1.3l0,1l0.1,0.8l0.2,0.3l0.6,0l0.6,0.2l0.5,0.5l-0.2,0.3l0,1.2l0.3,0.3l1.2,0l0.3,0.5l-0.1,0.3l-0.7,0
		l-0.2-0.2l-1,0.1l-0.4,0.4l-0.5,0l-0.6,0.6l-0.2,0.5l-0.5,0l-0.3,0.4l-1.3,0.6l-0.5,0.9l0.2,0.3l0,0.6l-0.8,0.8l-0.1,0.3l-0.8,0.7
		l-0.8,0.6l-0.8,1.1l-0.4,0.9l-0.3,1.1l-0.4,0.7l-0.1,0.6l-0.5,2.2v1.6l-0.2,0.7l0,2.2l-0.5,0.6l-0.3,0.7v0.4l-0.6,0.9l-0.3,1.2
		l-0.6,1.4l-0.3,0.8l0.3,2l0.3,0.9L553.9,393.5z"/>
	<path id="TW-TXG" class="st0" d="M505.4,385.3l-0.3,0.5l-0.7,0.5l-0.8,0.4l-0.4,0.7v1.8l-0.5,2l-0.4,1.1l-0.4,0.9l-0.8,1.1
		l-1.8,0.4l-0.9,0.3l-1,1.1l-0.5,1.1l-0.7,0.8l-1.2,0.4l-0.6,0.7v1.4l0.1,2.2l-0.7,1l-1.1,0.6l-1.1,0.4l-1,0.3l-0.8,1.1l0.2,1.1
		l-0.5,0.8l-1,0.5h-1l-1.5-0.8h-0.9l-1.1-0.8l-1-0.3l-1.4,0.4l-1,0.4l-1.6-0.2l-1.1-0.3l-1-1.2l-0.8-0.8l-0.9,0.1l-0.8,1l-0.2,1.1
		l-0.4,1l-0.7,0.9l-1.7,0.1l-1.5-0.5l-1.4-0.2l-2,0.7l-0.5,0.2l-0.5,0.5l-0.6,0.4l-1.4-0.4l-1.6-1.2l-0.8,0.1l-0.5,0.6l-0.9,0.4
		l-0.8,0.1l-0.6,0.9l-0.3,0.6l-0.6,1.1l-1.1,0.4l-3.1,0.1h-1.9l-0.5,0.6l-0.5,1.2l-0.8,1.1l-1.6,1.7l-1.1,0.9l-1,1l-1.5,0.4
		l-3.2-0.2l-2.8,0.1l-0.6,0.3l-0.4,0.9l-0.6,2.4l-0.5,1.1l-0.9,0.7l-1.2,0.7l-1.7,0.2l-1-0.2l-1-0.8l-1-0.1l-1.2,0.5l-1.6,1l-1,1.1
		l-1,0.5l-1.2,0.1l-1.2-0.2l-0.9-0.6l-0.3-0.8l-0.9,0.1l-0.3,0.9v1.6l-0.3,0.6l-0.7,0.9l-0.5,0.2l-0.3-0.9l-0.2-1.8l-0.6-0.8l-1-0.4
		l-1-0.2l-0.7-0.8l-0.8-0.6l-1.1,0.3l-0.6,0.8l-0.2,0.9l-0.4,1.1l-0.8,0.6l-0.3,1.6l-0.1,1.5l-0.4,1.5l-0.8,0.5l-1.1,0.1l-1.7,1.4
		l-1,2.1l-0.2,1.1l-0.6,1.5l-0.4,1.2l-1.2,0.9l-1,1.4l-0.9,0.7l-1.3,0.5l-1.1,0.5l-1.3-0.4l-1.7-0.3h-3.7l-1.4-0.2l-1.6-0.8
		l-1.6-0.6l-1.1-0.8l-1.3-1.4l-1.8-0.1l-1.7-0.5l-1-0.2l-1-2.8l0.3-1.2l0.4-0.4l-0.2-1.2l-1.2-1.4l-0.6-2.9l-1.1-1.2l-1.1-0.6
		l-1.8,0.2l-1.9-0.7l-1.5-0.4l-1.4-0.9l-1.7-0.7l-1.7-0.9l-1.3-0.9l-0.4-1.6l0.4-1.2l-1-2.2l-0.4-1.4l-1-1.5l-1-1.2l-0.6-1.1
		l-0.7-0.4l0.2-0.2l0-0.7l-1.6-1.3l-0.3,0l-0.3-0.4h-0.4l-0.5-0.4l-2.1-0.7l0.2-0.2l1,0.4l0.4-1.4l0.2-0.2l0.8-2.2l0.8-0.2l0.1-0.6
		l0.8-1.7l0-1.1l0.7-1.8l1,0.2l1.1-2.3l0.6,0l0.1,0.6l-0.4,0.4l-0.2,0.9v0.9l-0.3,0.5l-0.2,0.7l-0.3,0.4l-0.5,1.2h-0.4l-0.5-0.3
		h-0.5l-0.1,0.5l-0.7,1.7l-0.1,0.5l-0.8,1.8l0.3,0.4l0.5-0.1v-0.6l0.3-0.1l0.3-1l0.5-1.1l0.8,0.4l0.5,0.9l0.3,0.4l0.3-1l-0.3-0.2
		l-0.2-0.9l0.5-1.6l0.9-2l0.6-2.1l0.3-0.2l0.6,0.3l0.2,0.6l-0.7,0.7l0.2,1.3l0.7-0.8l0-0.7l0.3-0.7l0-0.6l-0.3-0.2v-0.6l0.7-0.4
		l0.3,0.3l0.7,0l0.3-0.5l-0.5-0.1l-0.8,0.1l-0.4-0.1l-0.3,0.2l-1-0.1l-0.3-0.2l0.1-0.5h0.8l-0.4-0.7l0-0.3l1.2-2.4l0.5,0.2l0.3,0.3
		l0.4-0.4l0.6,0.4l1.1,0.5l0.7-0.6l0.1-1.4l0.2-0.6l-0.4-1.6l0.3-0.8l0.4-0.4h0.5l0.3-0.6l0.2,0l0.1-0.7l0.6-0.5l0.1-0.3l1.4-1.2
		l0.3-0.8l0.5-0.6l-0.3-1l0.3-0.1l0.5-1l0.1-0.9l0.7-0.9v-0.7l0.3-0.5l-0.1-0.4l0.6-0.3l-0.3-0.5l0.7-0.9l0.4-0.3l0.7-0.8l0.6-0.4
		l0.7-1.3h0.5l0.8-2.2l0.9,0.8l0.5,0.7l0.8,1.4l0.5,1.1l0.8,1.4l0.9,0.4l1.2,0.1l0.9,0.5l1.1,1.5l1.5,1.9l1.4,2l1.9,1.9l0.9,0.4
		l2.1,1l2.3,1.3l2.3,1.6l1.4,0.8l1.5,1.2l2.6,0.3l1.9,0.6l1.4,1.2l1.6,1.8l1.4,0.8l1.5,0.4l3.6,0l4.9-0.3l1,0l1.3-0.3l0.6-0.7
		l0.4-0.8v-1.2l-0.1-1.2l-0.3-1l-0.1-1.1l0.2-1.3l0.8-0.5l0.7-0.2l1.7,0l1.5,0.2l1.3,0.4l4.7,1l1.8,0.5l1.4,1.3l1,1.3l0.9,2.1
		l0.9,0.9h1.8l1.3-0.2l0.7-1.3l0.9-1.2l0.9-0.7l1.3-0.6l3.5-0.1l1-0.5l0.6-0.5l1.2-0.6l0.5-0.6l0.3-1.3l1-0.8l0.6-0.8l0.9-0.7
		l1.9-0.1l1.7-0.2l1.2-0.7l0.5-0.9l0.7-1.1l1.9-1.4l0.9-1.7l0.7-0.3l0.9,0.2l0.3,1.1l0.3,0.8l0.5,0.6h1.2l0.6-0.2l0.3-2l0.4-0.7
		l1-0.8l0.5-0.5l0.6-2.4l0.3-0.4l1.1-0.8l0.6-0.1l0.5-0.7l1.3,0.2l2.2-0.2h2.5l1.5-0.6l0.7-0.9l0.4,0.8l0.7,0.5l0.5,1.7l-0.2,1.4
		l-0.5,1v0.8l0.4,0.7l2.4,1.2l1.8,0.2l1.1,0.9l0.7,1.5l1.2,1.6l1.4-0.1l0.9-0.7l1.1-0.9l1.2-0.5l1.8-0.5l2.4-0.1l1.3,0.7l1.2,1.2
		L505.4,385.3z"/>
	<path id="TW-CHA" class="st0" d="M386.3,442.6l-0.1,1.3l-0.8,0.2l-2.3,0.2l-1.5-0.1l-0.2,1.2l0.5,1.5l0.5,0.6l0.6,1.5l-0.3,2.2
		l-0.8,1.1l-1,0.6l-0.5,1.2l-0.1,0.8l0.5,0.9v4.7l-0.1,1l-0.3,1.6l-0.4,1.4l-0.3,1.7l-1.1,1.9l0.4,1.6l0.1,1.1l-0.3,0.4l0.5,1.5
		l0.9,0.9l2,2.2l0.9,0.6l1.5,0.3l1.1-0.6l1.1-0.2l0.7,0.9l-0.4,1.9l-1.3,1.1l-1.8,0.4l-2.7,0.3l-0.2,0l-7.1-1.2l-3.7-0.9l-9.7,0.2
		l-4.9-2.6l-3.3-0.8l-1.2-0.4l-0.9-0.9l-0.7-0.4l-0.6,0.5l-1.7,0.3l-6.9-0.2l-1.9,0.8l-3.3,0.1l-4.5,0.4l-1.9-0.8l-2-0.5h-1.1
		l-0.1-0.3l0.7-0.2l-0.1-1l-0.4-0.8l-0.6-0.2l-0.3-0.3l-0.8-0.5l0.4-0.5v-0.5l-0.8-0.4l-0.6-0.1l-0.3-0.3v-0.6l0.3-0.1l0.7,0.3
		l0.5-1.6l0.3,0.5l0.6-0.4l1,0.2l0.3,0l0.7-0.6l0.8-0.5l0.2-0.9l1.1-1.6l0.3-1.2l0.4-0.5l0.9-1.4l0.5-1.4l0.2-0.2l0.2-0.8l0.7-1.3
		l0.3-0.8l-1.3-0.1l-0.8-0.2l0-0.5l0.5-0.9l0.4-0.4l0.4-0.8l0.4-0.6l0.5-1l0.4-0.5h0.3l-0.1-0.7l0.5-1.1l0.6-1.8l0.4-0.3l2.4,0
		l0-0.5l0.3-1.7l0.4-0.4l1.1-2.4l1.5-1.9l0.3-1.2l0.4,0l1.3-0.9l1.2-0.6l1.2-0.7h0.5l0.8-0.5l0-1l0.3-0.7l0.5-0.9l0.5,0l1-2.3
		l-0.6-0.4l-0.3-1.1l-0.6,0.7h-0.6l-0.6-0.4l0.2-0.9l-0.5-0.2l-0.3,0.4l0.2,0.7l-0.5,0.1h-1.5l-0.7,0.1l-0.5-0.3l0-0.4l0.4-0.4
		l0.3-0.6l0.7-0.8l0.1-0.4l0.6-0.9l0.4-0.3V426l0.8-0.8l0.4-0.6l1.4,0.1l0.5-0.2l0.2-0.6l0.2-1l0.7-0.8l-0.1-0.3l-0.6-0.4l0.7-1.1
		l1-1.2h2.7l0.7-0.1l1,0.1l0.3-0.4l0.5,0l0.3-0.6l-0.7-0.6l0.7-0.7l0.4-0.7h0.3l0.3-0.5l1-1l0.2-0.8l0.5-0.7l1.3,0.7l0.1-0.2
		l0.7,0.4l0.6,1.1l1,1.2l1,1.5l0.4,1.4l1,2.2l-0.4,1.2l0.4,1.6l1.3,0.9l1.7,0.9l1.7,0.7l1.4,0.9l1.5,0.4l1.9,0.7l1.8-0.2l1.1,0.6
		l1.1,1.2l0.6,2.9l1.2,1.4l0.2,1.2l-0.4,0.4l-0.3,1.2l1,2.8l1,0.2l1.7,0.5l1.8,0.1l1.3,1.4L386.3,442.6z"/>
	<path id="TW-YUN" class="st0" d="M381.5,480.4l0,0.6l0.4,0.5l0.4,1.3l0.7,1.6l0.5,1.4l0.2,1.3l-0.7,2.2l-0.8,0.3l-0.6,1.3l-0.1,2.7
		l0.2,1.2l0.8,0.6l0.2,1.1v1.7l-0.3,0.8l-0.6,1.2l-0.3,1.2l-0.6,0.7l-0.4,1.2l-0.4,3.3l0.1,1.1l0.6,0.2l0.8-0.8l0.5-0.7l0.6-0.4
		l0.4,0.7l0.1,1.3l0.6,1.2l1.3,0.4l1.6,0.7l1.3-0.5l1-0.6l0.9-0.8l1.5,0l0.7-0.4l0.5-0.8l0.6-0.2l1.3,0.2l0.7,0.9l0.2,1.5l-0.2,0.7
		l-0.6,0.7l1,1.6l0.2,1.4v1.4l-0.7,0.8l-0.9,0.3l-1.2-0.5l-1.1-0.8h-1.4l-0.9,0.4h-1.7l-1-0.1l-0.8-0.7l-1.9,0.9l-1,0.3l-0.5-1.1
		l-0.1-1.5l-1.4-0.6l-1,0.3l-0.8,0.5l-0.6,0.5l-1.4,0.5l-4-0.1l-2.4-0.7l-1.8-0.3l-2.7-1.1l-2.3-1.3l-1.6-1.7l-1-1.4l-0.1-1.2
		l-0.8-1l-1.1-0.7l-2.2,0.7l-0.9,0.6l-3.8,0.2l-1.3,0.3l-1.9,0.9l-1.2-0.4l-1.4-0.7l-1.4-0.1l-1.8,0.8l-1.1,2l-1.9,0.7l-0.7,0.4
		l-0.4,1l-0.9,0.9l-1.3,0.2l-1.4,0.4l-0.6,0.9l-0.4,1.4l-0.5,1l-2.2,0l-1.4,0.5l-0.8,0.6l-1.1,1.1l-0.3,1.3l-0.7,0.8l-1.1,0.6
		l-0.8,0.7l-0.6,0.8l-1.2-0.5l-0.4-1l-0.7-0.4l-0.8,0.3l-0.6,1l-0.1,2.3l-0.5,1.4l-0.6,0.8l-0.8,0.1l-1.9,0.1l-1.5-0.6l-1.2-0.5
		l-0.8-0.1l-1.1,0.2l-0.7,0.4l-1.3-0.1l-1-0.5l-0.5-0.7l-2.3-0.1l-0.7-0.3l-0.1-1.1l0.6-0.1l0.2-0.5l-0.2-0.7l-1.4-1.9l-0.2-0.5
		l0.2-1.2l-0.1-0.9l0.5-0.5l0.1-1.1l-0.4-0.2v-1.9l0.2-1.4l0.8-0.8l0.3-0.8h-0.3l-0.3,0.7l-0.6,0.1l0.1-1.1l-0.1-1.4l0.1-1.2
		l-0.2-0.4l0.1-0.6l0.1-1.5l0.7-1.7l0.6-1l0.1-0.8l0.4-0.7l0-0.5l0.3-0.8l0.3-0.4l0.9-2.1l0.8-0.8l0.5-1l0.6-0.7l0.7-0.3l0.4,0.4
		l0.6,0v-0.5l-1.8-0.4l-0.6,0.1l-0.4-0.4l0-1.1l0.2-1.4l-0.6-0.1l-0.6-0.5l0.1-0.5l0.5,0.2v0.5l0.5,0.1l0.2-0.4l0.2-1.6l0.3-1.2
		l0.4-1l1,0v-1.1h-0.6l-0.3-0.6l-0.5-0.3l0.5-1.1l-0.4-0.4l0.1-0.6l0.4-0.3l0.1-0.6l0.3-0.5l0.4,0l0.8-1.6l-0.4-0.2l-0.3,0.6
		l-0.4,0.1l-0.3-0.5l0.4-0.5l0.5-0.2l-0.1-0.6l-0.2-0.2l-0.6,0.4l-0.7-0.1l-0.5,0.4l-0.4,0.5l-0.6-0.4l0.6-0.4l0.5-0.6v-0.5h0.9
		l0.4-0.5l1.3-0.9l0.8-0.4l0.7-0.5l0.8-0.9l0.5,0.2v0.5l0.9,0.5l0.7,0.2l-0.2,0.4l0.5,0.3l0.8-1.1l0.2,0.1l1.3-0.1l0-0.3l-0.8-0.1
		l-0.5-0.2l0.2-0.3l0.9,0.1l1.5,0.4h0.7l0.5-1.1l0.1-1.1l1,0.1l-0.1,0.7l0.7,0.2l0.8-0.2l0.1,0.3h1.1l2,0.5l1.9,0.8l4.5-0.4l3.3-0.1
		l1.9-0.8l6.9,0.2l1.7-0.3l0.6-0.5l0.7,0.4l0.9,0.9l1.2,0.4l3.3,0.8l4.9,2.6l9.7-0.2l3.7,0.9l7.1,1.2L381.5,480.4z"/>
	<path id="TW-CYI" class="st0" d="M349.9,526.5l1.2-0.9l1.5-0.5l1.2,0.6l0.9,1.6l1.2,0.7l0.9-0.2l1.1-0.1l0.9,0.4l0.6,0.8l1,0.7
		l0.4,1.2l0.8,0.5l0.8,0.7l-0.4,1l-0.8,0.9l-0.8,0.2l-0.5,1.2l-0.9,0.3l-1.7-0.5l-0.4-0.6l-0.5-0.1l-0.6,0.5l-1.1,1.2l-0.8,1.5
		l-1.7,0.3l-0.8-1.1l-0.9-0.9l-0.7-1.3l-1.5-0.6h-2.4l-0.7-0.2l0.1-1l0.4-0.5l0.1-1l-0.7-0.9l-0.7-0.7V529l0.7-0.7l0.9-0.3h1
		l1.2,0.3l1.2-1.2L349.9,526.5z"/>
	<path id="TW-CYQ" class="st0" d="M395.3,509.7l4-0.1l1,0.3l1.2,0.8l1.7,0.4l1.7,0.5l2.5,0.1l1.3,0.5l0.4,1.3l0.2,4.3l-0.6,1.2
		l-0.8,0.6l-0.7,1l0.1,1.8l0.8,1.2l1.1,1.2l0.4,2l0.4,2.7l0.8,1.8l1.2,1.1l4.5,0.5h1.5l1.2-0.7l2.7-0.2l3,0.2l1.4,0.2l1.8,0.4h1.3
		l0.9,0.5l-0.3,0.9l-2.9-0.2l-1.2,0.8l-1.6,0.5l-3.2,0.4l-1.1,1.3l-0.8,1.7l-2.7,1.6l-1.2,0.1l-1.2,0.9l-0.9,1.6l-0.4,1.6l-1.2,1.6
		l-1.5,2.5l-1.7,0.7L407,549l-0.8,0.9l-1,1.9l-1,1.4l-1.7,0.5l-2,0.1l-1.3,1.3l-0.4,1.4l-1.6,1.1l-1.1,1.2l-2.8,1l-1.4,0.9l-0.2,2
		l-1.7,0.2l-1.7-0.2h-1l-0.7-0.9l-4,0.2l-0.1,1.7l-0.2,1.3l-0.2,1.9l0.1,1.5l0.7,1.3l0.9,1.1l0.2,0.6l-0.4,0.8l-0.4,0.3l-0.2,0.2
		l-1.7-0.2l-1.8,0.2l-0.6,0.4l-1.5-0.2l-0.9-0.8l-1.5-0.2l-1,0.3l-1.6,2l-1.3,0.2h-1.3l-0.9-1l-1.5-0.5l-1.4-0.1l-0.9-0.2l-0.8-0.8
		l0.1-1.8l0.9-0.5l0.4-1.1l-0.1-1.3l-0.3-0.9l-0.8-1.1l-0.1-2l0.1-1.5v-1.6l1.6-2.6l0.2-1.4l-0.9-1.4l-1.2-0.2l-2.3-0.9l-0.4-0.7
		l1.5-1.8l-0.6-0.6l-1.2,0l-2,0.2l-0.4-0.5l-0.1-1.3l1.7-1.3l0.4-0.6l-0.7-1.3l-0.9,0.5l-2.4,0.1l-1-0.9l-1.4-1.1l-0.7-0.7l-0.8-0.5
		l-1.2-0.3l-1.7,0.9l-1.4,0.1l-0.9-0.6l-0.9-0.3l-1.5,0.4l-0.8,0.7l-1.4,0.4l-3.2,0.1l-1.8,0.7l-1.5,1.1l-1,0.6L334,547h-1.9
		l-0.5,0.5l-0.4,1.1l-2.5,0.4l-0.6,0.8l-0.2,1.8l-0.4,0.9l-2.2,0.2l-0.7,0.5v1.8l-0.4,0.9l-1.9,0.4l-1.5,0.9l-1.1,1.5l-0.6,1.8
		l-0.6,1l-1.7,0.6h-1.3l-0.5-0.2l-0.7-0.7l-0.7-0.1l-0.2,0.9l-0.9,0.1l-1-0.9l-0.8-1l-0.9-0.9l-0.5-0.3l-1.3-0.4L308,558l-0.7-0.8
		l-1.1-0.6l-1.6,0.1l-0.9-0.4l0-1.5l0.7-0.1l0.2-0.4l-0.2-0.4h-0.5l0.7-1.7l0.5-0.9l0.1-0.8l1.1-0.5l1.8-1l0.2-0.9l0.5-1.2l0.6-0.5
		l0.3-1l-0.4-1.7l-0.2-0.3l-0.8,0.3l-0.3,0.7l-0.3-0.2l-0.2-0.7l-0.1-1.8l0.1-0.1l0.1-1.2l-0.4-0.5l-0.4-0.8l0.1-1.2v-1.2l-0.7-0.6
		l-0.9,0.5l-0.3-0.4l0-0.5l0.8-0.8l0.3,0v-0.7l0.7-1.8l0.5-0.5l0.3-0.6l-0.1-0.3l-1.3-0.5l-2.3-0.3l-0.8-0.7l-0.3-0.6l-0.1-0.9
		l0-2.4l0.2-0.5l0.4-0.4h0.8l1.3,0.4l0.8,0l0.7-0.3l0.7,0.3l2.3,0.1l0.5,0.7l1,0.5l1.3,0.1l0.7-0.4l1.1-0.2l0.8,0.1l1.2,0.5l1.5,0.6
		l1.9-0.1l0.8-0.1l0.6-0.8l0.5-1.4l0.1-2.3l0.6-1l0.8-0.3l0.7,0.4l0.4,1l1.2,0.5l0.6-0.8l0.8-0.7l1.1-0.6l0.7-0.8l0.3-1.3l1.1-1.1
		l0.8-0.6l1.4-0.5l2.2-0.1l0.5-1l0.4-1.4l0.6-0.9l1.4-0.4l1.3-0.2l0.9-0.9l0.4-1l0.7-0.4l1.9-0.7l1.1-2l1.8-0.8l1.4,0.1l1.4,0.7
		l1.2,0.4l1.9-0.9l1.3-0.3l3.8-0.2l0.9-0.6l2.2-0.7l1.1,0.7l0.8,1l0.1,1.2l1,1.4l1.6,1.7l2.3,1.3l2.7,1.1l1.8,0.3l2.4,0.7l4,0.1
		l1.4-0.5l0.6-0.5l0.8-0.5l1-0.3l1.4,0.6l0.1,1.5l0.5,1.1l1-0.3l1.9-0.9l0.8,0.7l1,0.1h1.7l0.9-0.4h1.4l1.1,0.8l1.2,0.5l0.9-0.3
		l0.7-0.8v-1.4l-0.2-1.4l-1-1.6l0.6-0.7L395.3,509.7z M349.9,526.5l-0.9,0.6l-1.2,1.2l-1.2-0.3h-1l-0.9,0.3l-0.7,0.7v0.6l0.7,0.7
		l0.7,0.9l-0.1,1l-0.4,0.5l-0.1,1l0.7,0.2h2.4l1.5,0.6l0.7,1.3l0.9,0.9l0.8,1.1l1.7-0.3l0.8-1.5l1.1-1.2l0.6-0.5l0.5,0.1l0.4,0.6
		l1.7,0.5l0.9-0.3l0.5-1.2l0.8-0.2l0.8-0.9l0.4-1l-0.8-0.7l-0.8-0.5l-0.4-1.2l-1-0.7l-0.6-0.8l-0.9-0.4l-1.1,0.1l-0.9,0.2l-1.2-0.7
		l-0.9-1.6l-1.2-0.6l-1.5,0.5L349.9,526.5z"/>
	<path id="TW-TNN" class="st0" d="M383.1,572.3l0.9,0.5l0.6,0.9v0.9l-0.8,0.9l-0.6,1.1l-0.9,1l-0.3,1.6l-0.2,1.4l-1.7,1.9l-0.9,0.9
		l-0.8,1l-0.8,0.4l-1.2,1.1l-1,1.6l-0.8,1.1l-0.4,1.4l-0.1,1.5l-0.4,0.9l-0.2,1.4l-1.1,1.1l-0.6,1.2l-1.6,0.2l-2,2.3l-0.9,0.3
		l-2.8,2.4l-0.7,0.4l-0.8,0.9l-0.5,1.5l-1.5,1.2l-2.9,2.2l-0.5,1.1l-0.6,1l-1.7,0.2l-0.8,0.5v1.2l-0.1,1l-2.1,1.5l-0.2,1.1l-0.4,0.7
		l-1.1,2.6l-0.4,1.6l-1.2,1.1l-0.3,0.8v1.5h-1.9l-1-0.5l-1.1-0.1l-1.2,0.1l-1.2,0.7l-0.5,0.8l-1,1l-0.7,1l-0.9,0.7l-1.1,0.5
		l-1.6,0.1l-2.2-0.1l-1.4-0.4l-1.4-0.1l-1.3-0.4l-1.6-0.2l-0.7-0.5l-0.9,0.3l-0.3,0.6l-0.6,0.3l-1.2-0.8H322l-1.4-1.6l-3.5-0.5
		l-1.7-0.5l-0.7-0.4l-0.7-0.2l-0.9,0l-0.4,0.1l-1.1,0.9l-0.3-0.1l0.1-1.3l0.2-1V620l-0.5-1.9l-0.8-1.5l-0.6-1l0-0.4l-0.3-0.4
		l-0.2-0.6l-0.3-0.3l-0.7-1.1l-1.1-1.2l-1.9-1.7l-1.6-1.5l-2.1-1.8l-0.5-0.2l-0.8-0.6l-0.7-0.3l-1.6-1l-0.3-0.3l-0.8-0.4l-1.3-0.3
		L295,603l0.3-0.4l0.2-1l-0.5-0.4l-0.7,0.6l-0.8,0.3l-0.5-0.7l-0.5-1l0.2-0.3h0.8l0.4-0.3l0-0.5l-0.4-1.1l0.5-0.2l-0.1-0.4l-0.6,0.2
		l-0.3-0.9l-2.3,0l-0.1,0.6l-0.6-0.3l-0.2-0.5l0.2-0.6l0-0.6l0.3-1.4l-0.1-1.1l0.9-0.7l1.3-0.8l0.5-0.4l0.8-0.5l0.8-0.3l1.5-0.8
		l1.6-0.1l0.3-0.7l0-0.4l0.2-0.6l-0.3-1.3l-0.8-0.5l-0.4-0.9l-0.3-2.1l-0.3-0.8l-0.5-0.3l-0.3-0.7l0.1-1.4l0.5-0.4l0.5-1.1l0.6-1
		l0.1-0.4l0.5-1.1l0.2-0.7l-0.2-0.5l0.2-0.4l0.1-1.6l0-1.2l1.1-0.6l1-0.2l0.3-0.5v-0.6l0.7-0.6l0.2-0.5l0.8-0.4l-0.3-0.4l-0.4,0
		l0-1.2l0.5-0.6l0.5,0l0.8-0.8l-0.1-0.5l-0.7-0.5l-0.9-0.7l-0.1-1l0.8-0.8V561l-0.9-0.1v-0.5l0.3-0.4l0.6-1.1l0.4-1.3l0.1-1l0.3-0.1
		l1,0.8l1.1,0.1l0.2-0.1l1.3-0.4l1.1,0.9l0.5,0.9l0.2-0.1l1.3,0.4l0.5,0.3l0.9,0.9l0.8,1l1,0.9l0.9-0.1l0.2-0.9l0.6,0.1l0.7,0.7
		l0.5,0.2h1.3l1.7-0.6l0.6-1l0.6-1.8l1.1-1.5l1.5-0.9l1.9-0.4l0.4-0.9v-1.8l0.7-0.5l2.2-0.2l0.4-0.9l0.2-1.8l0.6-0.8l2.5-0.4
		l0.4-1.1l0.5-0.5h1.9l1.4-0.7l1-0.6l1.5-1.1l1.8-0.7l3.2-0.1l1.4-0.4l0.8-0.7l1.5-0.4l0.9,0.3l0.9,0.6l1.4-0.1l1.7-0.9l1.2,0.3
		l0.8,0.5l0.7,0.7l1.4,1.1l1,0.9l2.4-0.1l0.9-0.5l0.7,1.3l-0.4,0.6l-1.7,1.3l0.1,1.3l0.4,0.5l2-0.2l1.2,0l0.6,0.6l-1.5,1.8l0.4,0.7
		l2.3,0.9l1.2,0.2l0.9,1.4l-0.2,1.4l-1.6,2.6v1.6l-0.1,1.5l0.1,2l0.8,1.1l0.3,0.9l0.1,1.3l-0.4,1.1l-0.9,0.5l-0.1,1.8l0.8,0.8
		l0.9,0.2l1.4,0.1l1.5,0.5l0.9,1h1.3l1.3-0.2l1.6-2l1-0.3l1.5,0.2l0.9,0.8l1.5,0.2l0.6-0.4l1.8-0.2l1.7,0.2L383.1,572.3z"/>
	<path id="TW-PIF" class="st0" d="M349.5,686.1l0.9-0.1l0.6-0.7l0.5-0.8l0.2-1.3l0.5-0.9l0.2-2.1l0.7-2.3l0.4-0.5l-0.2-1.4l-1.4-1.9
		h-0.8l0-8.8l0.2-2l0.3-1.1l0.1-0.9l0.6-0.4l0.4-0.7l0.7-2.1l0-2.8l0.5-0.9l0.1-8.5l0.7-1.9l0.9-3.4l0.5-3.4l1.1-0.7l1,0l0.8,0.6
		l0.8,0l0.9,0.5l0.7,0.7l1.7,0.1l2-0.8l1.3,0.1l1.3,0.6l1.5,0.1l0.8-0.4l0.9-0.9l0.9-1.3l0.5-1.2l0.8-0.8l2.2-1.4l1.3-1l1.2-1.1
		l2-0.1l1.8-0.5l1.7-0.1l0.9,0.4l0.6,1.1l0.3,1.5l0.9,0.5l1.1,0.1l2.3-0.6l1.1-0.7l0.5-1.1l1-1.2h1l1.8,0.2l1.3,0.3l3.4,2.1l2.7,3.6
		l1,0.9h1.1l0.7-0.5l0.8-0.9l0.9-0.8l0.9-0.4l0.9-1l0.8-0.7l1.5-0.2l1,0.4l0.6,0.7l0.8,0.4l1.3-0.5l1.8,1.3l0,0.1l0.6,2.8l0,1.8
		l0.4,0.8l1.3,0.8l1.9,0.1l1,0.7l0.5,0.7v3.3l0.4,0.6l-0.6,0.7l-0.3,1.1v3l-0.5,1.3l-0.5,0.8l-0.1,1.6l-0.5,0.9l-0.6,0.5h-4.8
		l-0.8,0.7l-0.9,2.1l-0.6,0.8l-1.2,0.3l-1.4,0.2l-0.7,0.3l-1.6,0.5l-1.2-0.1l-0.6,0.5v0.8l-0.4,0.6l-0.7,0.8l-0.5,1.8l-0.8,1.1
		l-0.5,0.9l-1,1.3l-0.2,0.9l-0.4,1l-0.7,0.7l-0.7,1.1v3l-0.6,0.7l-0.4,0.9l0.3,0.9l0.1,0.9l-1,2.2l-0.4,1.1l-0.2,1.1l0.5,1l0.5,0.5
		l0.6,1.1l0.2,1.6l1.2,2l0.5,1.1l0,1.9l-0.3,1l-0.9,0.6l-0.6,0.9l0.1,1.3l0.4,0.8l-0.1,0.9l0.6,0.7l0.7,0.3l0.9,0.9l0.7,1l1.7,1.8
		l0.3,1.2l0.4,0.5l-0.4,0.7l-0.8,0.8l-1.8,0.2l-1.1,0.4l-0.5,0.9l-0.3,1.3l-0.4,0.9l-0.6,1.9l-0.5,0.7l0,1.2l0.9,0.6l0.8,0.8l1,1
		l1.7,0.7l0.9,0l0.5,0.9l1.4,1.3l0.2,1.7l0,1.5l-0.7,0.6l-0.8,0.5l-0.3,0.6l0.5,0.8l0.7,0.3l0.8,0.8l0.8,0.9l0.4,1l-0.8,1.5l0.1,1.3
		l0.9,0.3h1.3l2.4,1.2l0.5,0.8l0.6,0.5l1.4,0.2l1,0.2l0.9,0.7l0.7,0.8l0.7,0.6l1-0.1l0.7-0.6l1-0.5l1-0.1l0.5-0.2l0.2,0.4v1.1
		l-0.4,0.5l-0.3,0.8l0,0.9l0.2,1l0.2,0.4l-0.1,1.1l-0.9,0.9v0.7l0.2,0.5l0,1l0.3,0.9v0.9l-0.3,0.7l0,0.7l0.3,0.4v1l-0.3,0.9l0.7,0.6
		l0,0.5l-0.3,0.4l-1.3,1l-0.1,0.6l0.1,0.8l0.6,1.9l0.4,0.5l0.4,0l1,0.5l-0.4,0.5l-0.1,1.3l-0.5,0.7l-0.5,0.6l0,1.8l0.3,0.6l0,1.2
		l0.1,0.5v2.2l0.6,1.3l0.3,0.4l0.1,0.7l-0.5,0.2l-1.1,0.9l-0.3,0.4v1.2l-0.8,0.6l-0.8,0.2v1.4l-0.2,0.6l-1.4,0.7l-0.6,0.5l-1.3,0.6
		h-0.9l-0.5,0.4l-0.1,1.2l0.3,0.3l0,0.9l-0.5,1.4l-0.2,0.7l0.1,1.2l0.4,1.5l0.7,1.1l0,0.4l0.8,0.6l0.8,1.3v0.2l0.5,0.8l-0.1,1.2
		l0.5,0.9l0.4,0.3l-0.3,0.4l-0.6,0.3h-1.3l-0.7-0.6l-0.3-1l-0.1-1.4l-0.8,0l-1-0.7l-0.3-0.9l-1.2-1.1l-0.4-0.8l-0.8,0.3l-0.9-0.1
		l-0.5-0.5l-0.1-0.5l-0.3,0l-0.2,0.6l-0.6,0l-0.1-0.9l-0.8-0.3l-1.5,0.1l-0.3-0.2l-0.4-0.6l-0.5-0.1l-0.7-0.4l-0.5-0.9l-0.4-0.2
		l-0.5,0l-0.2,0.3l-0.4,0.1l-0.1,0.5l-0.9,0.4l-0.3,0.5l-0.3,0.9l0,0.8l0.2,0.4l0,0.7h-0.3l-0.3,0.5l-0.5,0.2l0,1.2l-1.9,0.3
		l-0.5-0.3l-0.9-1.4l0-0.9l-0.3-0.3l-0.8,0.2l-0.3-0.6v-1l0.2-0.6l0-1.4l0.1-0.1l0-1.4l0.5-0.9v-0.9l-0.5-1.1l-0.7-0.6v-0.4
		l-0.3-0.7l-0.6-0.2l-0.9-0.9l-0.5-1.2l0-0.5l-0.3-0.3l-0.5-1.1l-0.3-0.9l0.1-0.8l0.3-0.6l0.4-0.5l0.9-0.5l-0.3-1.4l0.5-1l1,0
		l0.3-0.5l0.1-0.7l-0.1-0.8l-0.7-2.1l-0.3-0.4l0.3-0.4l0.4-0.2l0.7,0l1.3-0.9l-0.2-0.7l-0.1-1.4l-0.4-0.5l-0.1-1l-0.4-0.7l0.1-0.7
		l-0.3-0.2l-0.2-0.5l-0.4-0.1l-0.3-0.5l0.2-0.5l-0.8-0.7l0-0.7l0.4-0.8l-0.6-0.9l0-0.6l0.1-0.7l-0.5-1.2L390,744l-0.8-1.8l-0.4-0.5
		l-0.2-1.2l0.4-0.7v-0.5l-0.9-1.6l-0.2,0l-0.5-1.2l0-0.6l-0.6-1.1l-1.4-1.5l-0.8-0.7l-0.9-0.6l-0.1-0.3l0.2-1.3l0.3-0.3v-0.5
		l-0.3-0.5l-0.3-1l-0.1-0.8l-0.5-0.8l-0.1-0.6l0-1.8l-0.3-0.5l-0.5-0.6l-0.2-0.6l-1.7-1.9l-0.9-0.9l-1.1-0.8l-0.8-0.9l-0.7-1.3
		l-0.3-1l-0.5-0.6l-0.1-0.4l-0.5-0.2l-0.2-0.7l-0.6-0.8l-0.5-0.3l-0.5-0.5l-3.5-2.5l-0.9-0.5l-0.4-0.5l-0.4-0.1l-1-0.6l-0.7-0.3
		l-0.7-0.5l-3.4-1.7l-0.4-0.4l-1.6-0.9l-0.3-0.3l-1.3-0.5l-1.8-1l-2.4-1.8l-0.6-0.3l-0.9-1.1l-0.9-1l-0.5-0.9l0.5-0.5h0.6l-0.3-0.5
		h-0.4l-0.8,0.6l-0.2-1l-1.2-0.6v-8.4L349.5,686.1z M343.6,715l0.5,0.8l0.2,0.9l-0.6,0.5l-0.9,0.3l-1.5,1.6l-0.5,0.8l-0.7,0.7
		l-1.4-0.1l-0.3-0.9l0.5-0.9l0.6-0.6l0.1-0.9l0.6-1.2l0.6-0.8l0.7-0.5l1.1,0.1L343.6,715z"/>
	<path id="TW-KHH" class="st0" d="M416.1,634.5l0-0.1l-1.8-1.3l-1.3,0.5l-0.8-0.4l-0.6-0.7l-1-0.4l-1.5,0.2l-0.8,0.7l-0.9,1
		l-0.9,0.4l-0.9,0.8l-0.8,0.9l-0.7,0.5H403l-1-0.9l-2.7-3.6l-3.4-2.1l-1.3-0.3l-1.8-0.2h-1l-1,1.2l-0.5,1.1l-1.1,0.7l-2.3,0.6
		l-1.1-0.1l-0.9-0.5l-0.3-1.5l-0.6-1.1l-0.9-0.4l-1.7,0.1l-1.8,0.5l-2,0.1l-1.2,1.1l-1.3,1l-2.2,1.4l-0.8,0.8l-0.5,1.2l-0.9,1.3
		l-0.9,0.9l-0.8,0.4l-1.5-0.1l-1.3-0.6l-1.3-0.1l-2,0.8l-1.7-0.1l-0.7-0.7l-0.9-0.5l-0.8,0l-0.8-0.6l-1,0l-1.1,0.7l-0.5,3.4
		l-0.9,3.4l-0.7,1.9l-0.1,8.5l-0.5,0.9l0,2.8l-0.7,2.1l-0.4,0.7l-0.6,0.4l-0.1,0.9l-0.3,1l-0.2,2l0,8.8h0.8l1.4,1.9l0.2,1.4
		l-0.4,0.5l-0.7,2.3l-0.2,2.1l-0.5,0.9l-0.2,1.3l-0.5,0.8l-0.6,0.7l-0.9,0.1l-0.7,0l-0.4,0.6l-0.1,8.5l-0.3,0.4l-0.5,0l-0.6-0.2
		l-1.5-0.7l-1.6-1.2l-1.3-0.9l-1.8-1.4l-0.7-0.7l-0.5,0.1L339,690l-0.9-1l-0.4-0.1v-0.5l-0.5-0.3l-0.3-0.6l-0.8-0.5l-0.4-0.6h-0.5
		l-0.8-0.9l-0.8-0.6h-0.2l-0.8-0.8l-1-0.2l-0.4-0.5l0.3-1.2L331,681l-1.5-1.5l-2.1-2.5l-2.2-3.3l-0.2-1.3l0-0.4l-0.6-0.5l0.3-0.3
		l-0.4-1.1l-0.8-0.7l-0.3-1l-0.3-0.2l-0.2-0.8l-0.1-1.5l0.2-0.9l0.3-0.5l0.6-0.6l0.4,0l0.8-0.7l0-2.2l0.3-0.5l0.2,0.7l0,0.7h0.5
		l0.3-0.5l-0.1-0.6l0.2-0.8l-0.3-0.7v-0.5l0.5-0.2v-0.8l-0.8-0.5l-1.2,1.1l-0.9-1.8v-0.5l-0.4-1.3l-0.4-0.3l-0.1-0.5l-0.5-1
		l-0.2-0.8l-0.7-1.6l-0.5-0.7l0-0.5l-0.3-0.4l-0.2-0.8l-0.8-1.7l-1.2-3.1l-1-2.3l-0.7,0.2l-0.8-0.2l-0.1-0.9l0.7-0.1l0.3-0.3
		l-1.3-4.2l-0.3-0.3l-0.4-1.1l-0.4-1.8h0.8l0.7,0.3l0.6-0.7l0.1-1.2l0.4-0.3l0.1-1h-0.8l-0.5,0.4l0.1,0.6l-0.3,0.1l0.2,1l-0.7,0.3
		l-0.3-1l-0.5,0.1l0.3,1l-0.4,0l-0.4-1l-0.1-0.7l-0.5-1.4l-1.3-3.3l-0.3-1.2l0.5-0.6l1-0.8l0.9,0l0.7,0.2l0.7,0.4l1.7,0.5l3.5,0.5
		l1.4,1.6h3.2l1.2,0.8l0.6-0.3l0.3-0.6l0.9-0.3l0.7,0.5l1.6,0.2l1.3,0.4l1.4,0.1l1.4,0.4l2.2,0.1l1.6-0.1l1.1-0.5l0.9-0.7l0.7-1l1-1
		l0.5-0.8l1.2-0.7l1.2-0.1l1.1,0.1l1,0.5h1.9v-1.5l0.3-0.8l1.2-1.1l0.4-1.6l1.1-2.6l0.4-0.7l0.2-1.1l2.1-1.5l0.1-1v-1.2l0.8-0.5
		l1.7-0.2l0.6-1l0.5-1.1l2.9-2.2l1.5-1.2l0.5-1.5l0.8-0.9l0.7-0.4l2.8-2.4l0.9-0.3l2-2.3l1.6-0.2l0.6-1.2l1.1-1.1l0.2-1.4l0.4-0.9
		l0.1-1.5l0.4-1.4l0.8-1.1l1-1.6l1.2-1.1l0.8-0.4l0.8-1l0.9-0.9l1.7-1.9l0.2-1.4l0.3-1.6l0.9-1l0.6-1.1l0.8-0.9v-0.9l-0.6-0.9
		l-0.9-0.5l0.4-0.3l0.4-0.8l-0.2-0.6l-0.9-1.1l-0.7-1.3l-0.1-1.5l0.2-1.9l0.2-1.3l0.1-1.7l4-0.2l0.6,0.9h1l1.7,0.2l1.7-0.2l0.2-2
		l1.4-0.9l2.8-1l1.1-1.2l1.6-1.1l0.4-1.4l1.3-1.3l2-0.1l1.7-0.5l1-1.4l1-1.9l0.8-0.9l1.3,0.1l1.7-0.7l1.5-2.5l1.2-1.6l0.4-1.6
		l0.9-1.6l1.2-0.9l1.2-0.1l2.7-1.6l0.8-1.7l1.1-1.3l3.2-0.4l1.6-0.5l1.2-0.8l2.9,0.2l0.3-0.8l3.6,0.2l1.4,0.7l1.6,0.7l1.3,1l0.3,1.7
		l0.5,0.9l0.4,1.1l1,0.2l0.4,1.3l-0.2,3.2l-1,0.6l-2,0.8l-0.6,1.1l-0.8,1.3l-0.8,0.5l-0.7,2.1l0.6,0.4l1.3,0.5l1,0.9l1.6,0.7
		l1.6,1.1l1.8,1.4l1.3,0.9l0.3,1.2l-0.1,1.6l-0.3,0.3l-0.4,0.4l-1.5,0.6l-1.6,0.8l-1.7,1l-1.6,0.8l-2.1,0.5l-1.6,0.5l-1.4,0
		l-0.7,0.9l-1.4,2.3l-1.7,1.3l-1,1.2l-0.9,0.5l-1.3,0.2l-0.8,0.5l-0.8,0.7l-0.2,0.7l0.4,0.7l0.1,1.3l-0.5,1.1v2.8l0.4,0.6l0,0.7
		l-0.5,0.7l-1,0.6l-0.4,1l-2,2.1l0.1,11.3l-0.7,1.2l-1.2,1.6l-0.5,1.2l0.1,0.7l0.6,0.7l0.9,1.5l0.1,0.9l-0.5,0.8l-1.7,1.1l-0.9,0.6
		l-0.4,2l-0.5,0.7l-0.7,1.3l-1,1.2l-1,1.3l-1,1.4l-0.9,1.1l-0.5,0.8v4.6l0.6,0.9l0.4,1.3l0.1,2.4l0.9,3.2l0.9,0.7l1.3,0.1l1.4,0.4
		l1,1l0.4,1.2l-0.1,2.2L416.1,634.5z"/>
	<path id="TW-TTT" class="st0" d="M511,540.3l-0.3,0.9l-0.4,1.1l-0.3,0.3l-0.1,1.2l-0.3,0.5v0.7h-0.4l-0.3,0.5v0.8l-0.3,0.1
		l-0.2,1.6l-0.3,0.9l0,0.7l0.2,0.5v0.7l-0.3,0.6l0.1,0.7l-0.3,0.3l-0.4,1l0,2.1l-0.3,0.5v1.1l-0.4,0.4l-0.2,0.5v0.7l-1.1-0.2
		l-0.6,0.3l-0.7,0.6l-1.9,2.9l0,0.5l-0.5,0.4l-0.5,1.3l0.2,0.7l-0.1,1.2l-0.6,0.3l-0.5,1.5v0.8l-0.4,2.1l-0.3,0.2l-0.1,0.6l0.1,0.5
		l0.5-0.1l0.3,0.6l-0.9,1l-0.6,0.9l-0.4,0.2l-0.8,0l-0.2,0.5l-0.6,0.3l-0.4,1.3l0,0.9l0.3,0.5l0.1,1.1l0.3,0.5l0.6,0.7l-0.1,0.8
		l0.6,0.5l0.1,1l-0.2,0.2l-0.1,0.8l-0.3,0.8l-0.6,0.4l-0.1,0.4l0.1,0.6l-0.2,1l0.2,0.2l0.3,1.1l0.4,0.5l0.5,0.3l0.6,0.1l0,0.3
		l-1.1,1.3l-0.6,0.1l-0.6-0.5l-0.3,0.5v0.4l-0.9,1l-0.3,1.3l-0.3,0.2l-1.1,0.1l-0.3-0.1h-1.3l-0.5,0.5l-0.7,1v0.9l-0.5,0.4l0.3,1
		l-0.6,0.2l-0.7,0.5l-0.2,0.5l-0.1,0.9l-0.2,0.3v1.2l-0.3,0.2l0,0.6l-0.3,0.5l-0.5,1.4l-0.1,0.9l0.2,0.2l-0.5,0.4l0.1,0.6l-0.3,0.5
		l-0.5,0l-0.4,0.3l0,0.9L486,609l-0.4,0.1l-0.3,1.3l0.3,0.3l-0.2,1l-0.5,0.5l-0.2,0.9l-0.4,0.4v0.5l-0.6,0.8l-0.3,0l-0.5,0.7
		l-0.5,0.5l-0.1,0.5l-1.1,0.9l-0.6,0l-0.4,0.7l-0.5,0.3l-0.5,1.1l-0.2,0.7l-0.1,1.2l-0.5,0.3l0,0.6l-0.3,0.5l0,0.4l-0.5,0.5
		l-0.1,0.5l-0.8,0.5l-0.4,0.5l-0.1,1l-0.6,0.5l-0.2,0.8l-0.3,0.6l-0.7,1l-0.3,0.1l-0.7,0l-0.5,0.5l-0.4,0.9l0.2,0.6l-0.2,0.4
		l-0.6,0.3l-0.8-0.5l-0.8,0.1l-0.1,0.4l-0.9,0l-0.4,0.2l-0.7-0.1l-0.1,0.5L467,633l-0.3,0.5L466,634l-0.7,0.9l0.1,0.8l-0.2,0.9
		l-0.5,0.6v0.5l0.3,0.4l0.6,0.3l-0.1,0.3l0.3,0.9l0.3,0.4l0.2,0.9l0.4,0.9l0.3,1v0.8l-1.1,0.9l-0.7-0.4l-0.8,0.7l-0.5,0.7l0,0.8
		l-0.3,1.4l-0.3,0.4l-0.5,0.1l0.2,0.8l0.6-0.3l-0.5,1l-1.5,1.1l-0.8,0.2l-1.2,1.1l-3.6,3.9l-0.8,0.6l-0.7,0.1l-1.7,1.1l-0.4,0.4
		h-0.8l-0.9,0.3l-0.5,0.4l-1.3,0.7l-0.8,0.7l-0.4,0.1l-1.9,2l-0.6,0.5l-2.2,0.9l-1.2,0.8l-1,1.3l-0.7,1.5l-0.8,2l-0.3,1.1l-0.5,2
		l-0.3,3.3l0.1,1.1l-0.1,0.4l-0.6,0.5l-0.7,0.9l-0.4,0.1l-0.8,0.8l-0.5,0.3l-0.8,0.8l-0.5,0.7l-0.5,1.1l-0.2,0.8l-0.3,0.6l-0.4,1.6
		l-0.8,2.2v0.3l-0.7,1.6l-0.1,0.5l-0.4,0.9l-0.2,1.2l-0.5,1.2l-0.5,2.1l-0.3,0.9l-0.3,1.5l-0.3,0.8l-0.1,0.7l-0.8,1.8l-0.1,0.5
		l-0.6,1.6l-0.2,0.7L426,705l-0.7,1l-0.5,1.4l-0.2,1.1l-0.5,0.9l-0.3,0.4l-0.5,1.4l-0.1,0.8l-0.5,1.5l-0.1,1.2l-0.9,0.9l-0.1,0.6
		l-0.6,1.2l-0.2,0.9l-0.2,0.2l-0.4,1.7l-0.1,2v1.3l-0.1,0.9v3.1l0.1,1.1l0,1.4l0.2,0.8v0.5l0.3,1v1.1l0.3,0.8l-0.5,0.2l-1,0.1
		l-1,0.5l-0.7,0.6l-1,0.1l-0.7-0.6l-0.7-0.8l-0.9-0.7l-1-0.2l-1.4-0.2l-0.6-0.5l-0.5-0.8l-2.4-1.2h-1.3l-0.9-0.3l-0.1-1.3l0.8-1.5
		l-0.4-1l-0.8-0.9l-0.8-0.8l-0.7-0.3l-0.5-0.8l0.3-0.6l0.8-0.5l0.7-0.6l0-1.5l-0.2-1.7l-1.4-1.3l-0.5-0.9l-0.9,0l-1.7-0.7l-1-1
		l-0.8-0.8l-0.9-0.6l0-1.2l0.5-0.7l0.6-1.9l0.4-0.9l0.3-1.3l0.5-0.9l1.1-0.4l1.8-0.2l0.8-0.8l0.4-0.7l-0.4-0.5l-0.3-1.2L402,701
		l-0.7-1l-0.9-0.9l-0.7-0.3l-0.6-0.7l0.1-0.9l-0.4-0.8l-0.1-1.3l0.6-0.9l0.9-0.6l0.3-1l0-1.9l-0.5-1.1l-1.2-2l-0.2-1.6l-0.6-1.1
		l-0.5-0.5l-0.5-1l0.2-1.1l0.4-1.1l1-2.2l-0.1-0.9l-0.3-0.9l0.4-0.9l0.6-0.7v-3l0.7-1.1l0.7-0.7l0.4-1l0.2-0.9l1-1.3l0.5-0.9
		l0.8-1.1l0.5-1.8l0.7-0.8l0.4-0.6v-0.8l0.6-0.5l1.2,0.1l1.6-0.5l0.7-0.3l1.4-0.2l1.2-0.3l0.6-0.8l0.9-2.1l0.8-0.7h4.8l0.6-0.5
		l0.5-0.9l0.1-1.6l0.5-0.8l0.5-1.3v-3l0.3-1.1l0.6-0.7l-0.4-0.6v-3.3l-0.5-0.7l-1-0.7l-1.9-0.1l-1.3-0.8l-0.4-0.8l0-1.8l-0.6-2.8
		l0.6-0.9l0.1-2.2l-0.4-1.2l-1-1l-1.4-0.4l-1.3-0.1l-0.9-0.7l-0.9-3.2l-0.1-2.4l-0.4-1.3l-0.6-0.9v-4.6l0.5-0.8l0.9-1.1l1-1.4l1-1.3
		l1-1.2l0.7-1.3l0.5-0.7l0.4-2l0.9-0.6l1.7-1.1l0.5-0.8l-0.1-0.9l-0.9-1.5l-0.6-0.7l-0.1-0.7l0.5-1.2l1.2-1.6l0.7-1.2l-0.1-11.3
		l2-2.1l0.4-1l1-0.6l0.5-0.7l0-0.7l-0.4-0.6v-2.8l0.5-1.1l-0.1-1.3l-0.4-0.7l0.2-0.7l0.8-0.7l0.8-0.5l1.3-0.2l0.9-0.5l1-1.2l1.7-1.3
		l1.4-2.3l0.7-0.9l1.4,0l1.6-0.5l2.1-0.5l1.6-0.8l1.7-1l1.6-0.8l1.5-0.6l0.4-0.4l0.6,0.6l0.4,1.4l0.7,0.8l0.5,1l0,2l0.5,1.7l1.7,3.2
		l1.1,1l1.7,0.3l1.7,0.8l1.8,0.5l1.5,0.9l0.9,1l0.6,1.3l1,0.6l1.2,0.5l0.8-0.3l0.9-0.8l0.9-0.6h1.3l0.5,0.6l1.3,0.7l0.7,1.5l0.7,0.6
		l0,1.8l0.3,1.7l1,0.6l0.8,0.9l0.4,1.7l0.3,0.6l1.3,0.6l1.4,1.3l3.2,0.8l0.8,0.7l0.5,1.4l0.2,1.8l0.8,0.6l1.1,0.1l0.9-0.8l0.8-0.3
		l2.5-0.1l1.1-0.6l0.8-0.6l0.1-9l0.5-1l1.4-1.3l0.9-1.4l0.6-1.4l1.1-3.9l0.7-1.2l0.5-1.1l0.6-1.1l0.2-1.6l0.4-1.3l1.2-0.8l0.9-0.9
		l0-2.9l0.3-1.5l1-0.9l0.6-0.7l0.7-1.8l1.3-1.7l1.2-1.8l1.2-2.2l-0.2-0.8l-1.9-1.1l-0.2-1.7l0.4-1.4l0.8-2.2l1.4-2.5l0.6-1.5l0.9-1
		l1.4-0.4l0.6-0.6l1.9-0.3l2.9,0.5l0.9,0.9l1,0.6L511,540.3z M527.9,770.2v0.8l-0.5,0.2l-0.5,1.3l-0.5,0.8l-1-0.2l-0.6-0.5l-1.4,0
		l-0.9-1l-0.1-0.7l-0.5-0.5l-0.4-0.7l-3-0.2l-0.6-0.4l-0.5-0.8l-0.8-1l-0.5-0.4l-0.8-0.3l-0.9-0.6l-0.5-0.5v-3.9l-0.4-0.6l-0.5-0.5
		l-0.3-0.6l0.3-0.5l0.7,0l0.4,0.4l9.2-0.1l0.4,0.8l-0.4,0.8l0.9,1.7v1.1l-1.2,0v2l0.9,1.2l0.9,0.9l1.9,1.3l0.9,0.5L527.9,770.2z
		 M513.6,670.5l-0.4,0.5l-0.9-0.2l-0.4-0.4l-0.5-0.7l-0.9-0.5l-0.9-0.1l-0.6-0.5v-2.7l-1.4-0.9l0.1-1.4l1.5-0.1l0.9-0.5h1.2l0.4,0.5
		l2,0.1l0.6,0.5l0.4,1.4l-0.1,1.2l-0.6,0.5l-0.3,0.9l-0.4,0.3l-0.6,1.4l0.7,0.2L513.6,670.5z"/>
	<path id="TW-NAN" class="st0" d="M488.5,408.5l0.2,0.9l0.6,0.6l0.1,1.5l-0.5,0.6l-2.3,0.3l-0.8,0.5l-0.8,0.6l-0.8,1.2l-2,1.3
		l-1.4,0.5l-0.7,1.4l-0.7,1.8v2.1l0.5,1.3l1.4,0.4l1,0.8l0.8,1.4l0.4,0.9l1.2,0.1l0.8,0.9v2.1l-0.3,1.2l-0.7,1.2l-1.9,1.7l-0.9,1.1
		l-1.3,0.8l-0.6,1.4l-0.1,2.9l-0.2,1.4l-0.8,1.1l-2,4.1l0.1,1.8l0.9,0.6l0.4,1.2l-0.1,6.8l0.3,0.8l0.5,0.9l-0.2,0.9l-0.8,0.5l-1,1.1
		l-0.3,0.8l1,1.9l-0.1,1.5l-0.7,0.8l-1.4,0.6l-0.5,0.9l-0.9,2.4l-1,1.1l-0.3,2.5l-0.3,2.1l-1.8,1.8l0.5,1.5l-0.1,1.4l-0.4,0.5
		l-0.9,0.6l-1,0.2l-0.8,1l-0.1,1.2l0.5,0.6l1.2,0.5l1.4,1.5l0.6,1l0.1,1.4l0.4,0.9l0.8,1.1l0.1,3.8l-0.4,1.5l-0.6,1.9l-0.3,2.6
		l-0.5,2.3l-0.4,2.8l-0.4,2.3l-0.9,1.7l-0.8,1.2l-1.2,0.1H466l-1.2,1l-1.3,0.8l-0.9,0.3l-1.1-0.2l-1.3,0.1l-0.5,0.4v0.6l0.4,0.6
		l0.6,1.6l0.1,0.6l-0.9,0.6l-0.3,0.7l-0.3,1.1v4l-1.2,0.4l-1.1,1l-1.1,0.4l-0.9-0.4l-1.6-1l-1.2,0.1l-1.5,0.4l-0.8,0.3h-1.1
		l-0.7,0.2l-0.8,0.6l-0.4,1.1l-0.4,0.8l-0.9,0.6l-0.7,1.1l-0.6,1.2l-0.2,1l-0.7,0.4l-0.1,0.6l0.6,0.5l0.6,0.8l0.1,1.2l-0.3,0.9
		l-0.9,0.3l-0.3,0.4l-0.7,0.2l-0.7,0.5l-0.9,0.5l-1,0.1l-0.6,0.4l-0.4,0.5l-0.5-0.9l-0.3-1.7l-1.3-1l-1.6-0.7l-1.4-0.7l-3.6-0.2
		l0-0.1l-0.9-0.5h-1.3l-1.8-0.4l-1.4-0.2l-3-0.2l-2.7,0.2l-1.2,0.7h-1.5l-4.5-0.5l-1.2-1.1l-0.8-1.8l-0.4-2.7l-0.4-2l-1.1-1.2
		l-0.8-1.2l-0.1-1.8l0.7-1l0.8-0.6l0.6-1.2l-0.2-4.3l-0.4-1.3l-1.3-0.5l-2.5-0.1l-1.7-0.5l-1.7-0.4l-1.2-0.8l-1-0.3l-4,0.1l-0.2-1.5
		l-0.7-0.9l-1.3-0.2l-0.6,0.2l-0.5,0.8l-0.7,0.4l-1.5,0l-0.9,0.8l-1,0.6l-1.3,0.5l-1.6-0.7l-1.3-0.4l-0.6-1.2l-0.1-1.3l-0.4-0.7
		l-0.6,0.4l-0.5,0.7l-0.8,0.8l-0.6-0.2l-0.1-1.1l0.4-3.3l0.4-1.2l0.6-0.7l0.3-1.2l0.6-1.2l0.3-0.8v-1.7l-0.2-1.1l-0.8-0.6l-0.2-1.2
		l0.1-2.7l0.6-1.3l0.8-0.3l0.7-2.2l-0.2-1.3l-0.5-1.4l-0.7-1.6l-0.4-1.3l-0.4-0.5l0-0.6l2.7-0.3l1.8-0.4l1.3-1.1l0.4-1.9l-0.7-0.9
		L386,476l-1.1,0.6l-1.5-0.3l-0.9-0.6l-2-2.2l-0.9-0.9l-0.5-1.5l0.3-0.4l-0.1-1.1l-0.4-1.6l1.1-1.9l0.3-1.7l0.4-1.4l0.3-1.6l0.1-1
		v-4.7l-0.5-0.9l0.1-0.8l0.5-1.2l1-0.6l0.8-1.1l0.3-2.2l-0.6-1.5l-0.5-0.6l-0.5-1.5l0.2-1.2l1.5,0.1l2.3-0.2l0.8-0.2l0.1-1.3
		l0.9,0.6l1.6,0.6l1.6,0.8l1.4,0.2h3.7l1.7,0.3l1.3,0.4l1.1-0.5l1.3-0.5l0.9-0.7l1-1.4l1.2-0.9l0.4-1.2l0.6-1.5l0.2-1.1l1-2.1
		l1.7-1.4l1.1-0.1l0.8-0.5l0.4-1.5l0.1-1.5l0.3-1.6l0.8-0.6l0.4-1.1l0.2-0.9l0.6-0.8l1.1-0.3l0.8,0.6l0.7,0.8l1,0.2l1,0.4l0.6,0.8
		l0.2,1.8l0.3,0.9l0.5-0.2l0.7-0.9l0.3-0.6v-1.6l0.3-0.9l0.9-0.1l0.3,0.8l0.9,0.6l1.2,0.2l1.2-0.1l1-0.5l1-1.1l1.6-1l1.2-0.5l1,0.1
		l1,0.8l1,0.2l1.7-0.2l1.2-0.7l0.9-0.7l0.5-1.1l0.6-2.4l0.4-0.9l0.6-0.3l2.8-0.1l3.2,0.2l1.5-0.4l1-1l1.1-0.9l1.6-1.7l0.8-1.1
		l0.5-1.2l0.5-0.6h1.9l3.1-0.1l1.1-0.4l0.6-1.1l0.3-0.6l0.6-0.9l0.8-0.1l0.9-0.4l0.5-0.6l0.8-0.1l1.6,1.2l1.4,0.4l0.6-0.4l0.5-0.5
		l0.5-0.2l2-0.7l1.4,0.2l1.5,0.5l1.7-0.1l0.7-0.9l0.4-1l0.2-1.1l0.8-1l0.9-0.1l0.8,0.8l1,1.2l1.1,0.3l1.6,0.2l1-0.4l1.4-0.4l1,0.3
		l1.1,0.8h0.9l1.5,0.8H488.5z"/>
</g>
</svg>
