<?xml version="1.0" encoding="utf-8"?>
<!-- Generator: Adobe Illustrator 25.0.0, SVG Export Plug-In . SVG Version: 6.00 Build 0)  -->
<svg version="1.1" id="圖層_1" xmlns:amcharts="http://amcharts.com/ammap"
	 xmlns="http://www.w3.org/2000/svg" xmlns:xlink="http://www.w3.org/1999/xlink" x="0px" y="0px" viewBox="0 0 841.9 595.3"
	 style="enable-background:new 0 0 841.9 595.3;" xml:space="preserve">
<style type="text/css">
	.st0{fill:#CCCCCC;stroke:#FFFFFF;stroke-width:0.5;}
</style>
<defs>
	
		<amcharts:ammap  bottomLatitude="21.896256" leftLongitude="118.213542" projection="mercator" rightLongitude="122.011786" topLatitude="26.384199">
		</amcharts:ammap>
</defs>
<g>
	<path id="TW-NWT" class="st0" d="M640.7,192.8l-1.1-0.2l-1.8,0.9h-1.7l-1.3,0.5l-0.6,0.8l-1.1,1l-1.2,0.4l-1.3-0.2l-1.3-0.5
		l-0.8,0.1l-0.9,0.5l-0.5,1.8l0.4,0.9l0.7,0.8l0.2,1l-0.4,1.1l-0.7,0.7l-1.8,0.9l-1.6,0.1l-1.5,0.3l-2,2l-0.4,1.7l-0.1,1l-0.6,0.8
		l-1,0.4l-1.5,0.1l-1.8-0.4l-0.9,0.4l-1.2,1.6l-1.6,0.4l-0.8,0.6l-0.4,0.9l-0.9,0.7l-0.9,0.4l-3.6,0.9l-2.1,0.1l-0.4,0.6l-0.6,1.5
		l-0.8-0.2l-1,0.1l-1.2,0.9l-0.1,2l-0.9,1.1l0.1,0.7l0.9,1l0.1,1.5l-0.7,1.5l-0.6,0.5l-0.7,0.2l-1.1,1.2l-2.6,0.4l-1.5,1.8l-2.4,1.3
		l-1.3,0.1l-0.7,0.7l-0.9,0.1l-1.3-0.2l-0.4,0.2l-0.5-0.6l0.1-1.5l-0.8-0.8l-0.8-0.4l-1.1-1.3l-1.9-3.8l-0.8-1.3l-0.2-1.5l0.4-1
		l1.2-1l0.8-0.9l0.2-1l-0.5-0.4l-0.6-1l-0.5-1.4l-0.9-0.9l-1.1-1.3l-0.8-0.8l-1.5-0.6h-1.2l-0.9,0.4h-1.2l-1.1-0.6l-1.7-0.6
		l-0.1-0.6l1-0.2l0.2-0.4l-0.7-0.9l-0.1-1l-0.4-1.4l-0.7-1l-0.8-0.5l-0.8-1.2l-0.2-0.8l0.3-0.7l0.7-0.7l0.2-0.6l-1.2-0.4l-0.2-0.8
		l0.2-1l0.6-0.7L567,195l-0.2-0.7l0.3-0.7h5.2l0.8-0.9l0.6-1l0.8-0.2l0.9-0.7l0.1-0.8l-0.4-0.9l1.1-0.6l0.2-0.6l-0.3-0.6l-0.9-0.6
		l-0.2-1.3l0.2-1l-0.6-1.2l-0.8-0.5l-1.7-0.1l-2.5-0.4l-0.4-0.6l-0.3-1l-0.6-1.2l-1.1-0.5l-1.2-0.7l-2.7-0.6l-1-0.8l-0.8-1l1.5-0.9
		l1.1,0l2,0.2l2-0.2l0.8-0.3l1.8-0.9l0.9-0.8l2.9-1.4l1.3-1.1l0.8-1.6l1.1-0.2l0.9,0.4l1.5,1.8l0.6,1l0.4,1.6l0.6,1.6l0.5,0.6
		l0.1,0.9l0.4,0.4l1.7,0.9l1.6,0.1l0.9,0.9l0.9,1.5l0.1,1.7l-0.1,2.3l-1.7,1.8l-0.1,0.9l0.2,1.7l0.8,0.6l1-0.4l0.7-0.9h0.8l0.9,1.2
		l0.6,2.6l1,0.7l1.2,0.4l0.7,1.4l1.2,0.9h2.2l1.4,0.6l1.3-0.1l0.3-1l-1.1-1.1v-1.5l-0.4-1.3v-1.1l0.3-0.7l1.1-0.9l2,0.1l2.7-0.2h1.1
		l0.3-0.5l-0.4-0.5l-1.2-0.2l-0.7,0.2l-1.4-0.8l-1.3-1.3l0.1-0.6l0.7-0.4l-0.9-1.2v-0.6l1.1-1.3l0.2-0.8l-0.1-1.1l-0.4-0.9l-1.1-0.8
		l-1-0.4l-1.1-0.8l0.2-1l0.7-1l-0.4-0.7l-1-1l-0.5-0.8l0.2-0.9l-0.2-1.3l-0.7-0.5l-0.3-1l0.3-1.5l-0.6-0.5l-1.2-0.2l-0.5-0.3l-0.4-1
		l-0.6-0.4l-0.6,0.8l-1.2,1.1l-0.2,0.7l-1.5,0.6l-1.5,1.1l-1.1,0.2l-1.6,1.9l-1.1,1.7l-1.1,1l-0.4,2.3l-0.7,0.1l-0.8,0.2l0.5-1.2
		l-0.1-2.1l-1.5-2.5l-1.3-1.5l-1-0.6l-1.1-0.3l-1-0.8l1.3-0.8l0.8-2.3l1.4-1.4l1.1-3.3l0.6-0.5l1-0.3h1l0.4-0.4l0.8-2l2.6-1.5
		l0.5-0.7l0.7-0.3l2.1,0.1l0.9-1.3l0.8,0.6l2.2,0l0.7-1.1l0.6-0.3l0.5,0.3l0.6,0.9l1.6,0.8l1.1,0.3l1.2,0.8l0.7,0.7l1.2,2.4l0.1,1.4
		l0.5,0.9l1.2,0.5l0.3,0.5l-0.1,1.2l0.6,0.8l1.3,1.2l2.2,0.1l1.5-0.5l-0.3,1.3l-0.5,0.4l-0.3,0.8l0.2,0.6l0.9,0.3l1.2,0.8l-0.2,0.6
		l-0.6,0.4l-2,0.8l-1.5,0.8l-1.2,0.4l-1,0l-0.5,0.6l-1.6,0.4l-0.5,0.5l0.5,1.3l1.6,1l0,1l0.7,1.9l0.7,0.6l1,1.4l1.1,0.1l1.3,1.3
		l1.5,0.2l1.3,0.4l1.7,1.9l1.4,0.3l1.5,0l2.9-1.4l0.4-0.9l-0.5-1l-1.5-0.9l-0.3-0.8l0.2-1l1.3-1.7l1.3-0.6l1.1,0.7l0.6-0.4l1.1-1.6
		l0.4-1.1l0.9-0.1l0.2,1.6l0.6,0.2l0.5-0.3l1.4-0.4l0.6,0.4l3.7,0l1.2,0.5l1.4-0.1l0.5-0.4l1,0l0.4-0.5l1-0.4l0.3,0.7l-0.5,0.8
		l0.4,1.3l0,0.8l-0.5,0.5l-0.4,2.1l0.1,1l0.9,0.5l0.8,1.1v3.6l0.6,0.7l1.7,1.4l1.2-0.1l1-1l0.9,0.2l1.7,1.1l1.5,0.3l0.4,0.6
		l-0.1,0.6l-0.5,0.6l-1.8,0.9l-0.8,0.1l-1.5,1.1L640.7,192.8z"/>
	<path id="TW-HUA" class="st0" d="M530.4,390.5l0.3-0.4l1.3-0.4l2-1.2l0.7-0.2l0.2-0.7l0-0.9l-1-1l0.5-0.8l0.2-0.8l1-1.7l0.7-0.5
		l0.6-1.5l0.6-0.5l1.4-0.1l1.7-0.5l0.9-0.1l2,1.1l0.9-0.3l0.9-0.8l1-0.3v-3.1l0.5-1.4l0.7-0.5l0-0.5l-0.8-2.1l0.4-0.3l1-0.1l0.8,0.2
		l0.7-0.2l1.9-1.4l1.9-0.1l1.3-2.2l0.6-4l0.4-1.8l0.3-2l0.8-2.7l0-3l-0.9-1.6l0-1.1l-0.5-0.8l-1-1.2l-1-0.4l-0.4-0.5l0.1-1l0.6-0.8
		l0.8-0.1l1-0.9l0-1l-0.4-1.2l1.4-1.4l0.5-3.5l0.8-0.9l0.7-1.8l0.4-0.7l1.1-0.5l0.5-0.6l0.1-1.1l-0.8-1.5l0.3-0.6l1.3-1.2l0.1-0.7
		l-0.6-1.3l0.1-5.3l-0.3-1l-0.7-0.5l-0.1-1.4l1.5-3.2l0.6-0.9l0.2-1.1l0.1-2.2l0.5-1l1-0.6l0.7-0.8l1.5-1.3l0.5-0.9l0.3-0.9v-1.6
		l-0.6-0.7l-0.9,0l-1-1.8l-0.8-0.6l-1.1-0.3l-0.4-1v-1.6l1.1-2.5l1.1-0.4l1.5-1l0.6-0.9l1.2-0.8l1.8-0.2l0.4-0.5l0-1.1l-0.5-0.5
		l-0.1-0.7l0.8-0.4l0.4-0.6l-0.1-0.8l0.6-0.8l1.6-0.5l0.8-0.5l0.5-0.8l-0.1-2.8l0.5-0.5l1-0.3l0.9-1.5l0.8-0.8l2.1-0.5l0.6-0.9
		l0.6-1.6l0.4-1.6v-1.4l0.3-0.5l1.1-0.7l0.2-0.4l1.3,1.2l2.8,1.3l4.3,0.5l1.6,0.5l1.7,0.9l1.5,1.3l3.8,0.9l0.9-0.5l0.1-0.6l-0.9-1.1
		l0.4-0.5l2.2-0.7h0.9l0.5-0.3l-0.1-0.5l-0.5-0.5l-0.2-0.8l0.3-1l0.8,0.1l1.3,1.3l2.1,0.7l2.3,1.7l3.4,1.2l2.1,0.1l1.5,0.4l1.8,1
		l1.7,0l-0.1,0.8l-1.1,1.4l-0.8,0.6l-0.9,1.2l-0.5,1.6l-0.1,1.1l-1.2,1.3l-1.1,0.9l-1.2,0.3l-0.8,1.3l-0.2,0.7l-2,1.1l-0.7,0.7
		l-1.2,0.5l-1,1.5L606,295l-0.3,1.1l0.2,1.8l0.5,0.9l0.2,1.6l-0.3,1.2l-0.9,1.5l-0.8,0.8l-1.3,0.7l-1.2,1l-1.1,2.2l-0.2,1.1l0,1.8
		l0.6,2.1l1.4,2.5l1.3,1.1l0.4,1.4l-1.2,1.6l-0.8,1.3L602,321l0.2,0.6l-0.9,0l-0.5,0.3l-0.3,0.9l-0.7,0.7l-0.2,1.2l0.4,0.9l0.3,1.6
		l-0.6,1.6l-0.3,1.2l0.1,1.2l-0.4,3.2l-0.9,3.8l-1.1,2.2v0.6l-0.4,1l-0.7,0.8l-0.3,1.2l-0.1,1.9l-0.1,0.2l0.1,1.8l0.3,0.8l-0.1,0.7
		l-0.6,1.4v0.4l-0.7,1.1l-0.1,0.7l-0.7,0.5l-0.6,1.2v1.3l0.4,1.4l-0.7,2l0.1,0.6l-0.4,0.6l-0.3,1.2v0.9l-0.4,0.1l-0.6,1.2l-0.5,2.2
		l0,3.6l-0.2,0.5l-0.2,1.8l-1.2,2.3l-0.6,0.8l-0.4,1.4l-0.1,1.4l-0.3,0.2l-0.2,1.2l0.2,1.3l-0.1,0.7l0.5,1.6l0.5,0l0.2,0.6l-0.7,1.9
		l-0.7,0.8l-0.5-0.1l-0.6,0.5l0.8,0.4l-0.4,1.4l-0.2,2.3l-0.7,0.9l-1-0.7l-0.7-0.7l-2.3-0.4l-1.5,0.3l-0.5,0.5l-1,0.3l-0.7,0.8
		l-0.5,1.2l-1.1,1.9l-0.9,2.8l0.2,1.3l1.5,0.9l0.1,0.6l-0.9,1.7l-0.9,1.4l-1,1.3l-0.6,1.4l-1.3,1.2l-0.2,1.1l0,2.2l-0.7,0.7
		l-0.9,0.6l-0.5,2.3l-1.4,2.6l-0.9,3l-0.5,1.1l-0.7,1.1l-1.1,1l-0.4,0.8l-0.1,7l-1.5,0.9l-2,0.1l-1.3,0.9l-0.9-0.1l-0.6-0.5
		l-0.2-1.4l-0.4-1.1l-0.6-0.5l-2.5-0.6l-1.1-1l-1-0.5l-0.5-1.8l-1.4-1.2l-0.2-1.3l0-1.4l-0.6-0.5l-0.5-1.1l-1-0.5l-0.4-0.5h-1
		l-1.4,1.1l-0.6,0.2l-1.7-0.8l-0.5-1l-0.7-0.8l-1.1-0.7l-1.4-0.4l-1.3-0.6l-1.3-0.2l-0.9-0.8l-1.3-2.5l-0.4-1.3l0-1.5l-0.9-1.4
		l-0.3-1.1l-0.5-0.5l0.2-0.2l0.1-1.3l-0.2-0.9l-3.6-2.7l-1.2-0.5l-0.8-0.7l-1.5-0.8l0.6-1.6l0.6-0.4l1.1-1.9l1.6-0.6l0.8-0.5
		l0.2-2.4l-0.3-1l-0.8-0.1L530.4,390.5z"/>
	<path id="TW-PEN" class="st0" d="M357.2,382.4l0.1,0.8l-1,0.8l-2.6,0.3l0-0.9l1.2,0.3l1.1-0.9L357.2,382.4z M353.9,411.1l0.2,0.9
		l-0.6-0.1l-0.3-0.8L353.9,411.1z M345.9,417.6l0.8,0.2l-0.6,0.8l-0.1,1.8l-0.6-0.2l-0.9,0.7l0.3,1l-1.6-0.5l0.2-1.4l-1.2-1.1l0-0.4
		l1.4-0.5L345.9,417.6z M357.1,397.9l0.5,0.6l-0.2,0.9l-1.3,0.2l-0.2,0.6l-0.8-0.1l0-1l0.6,0.1l0.2-0.8l0.9-0.1L357.1,397.9z
		 M365.4,366.6l0.8,0.4v0.8l-0.3,0.8l-1-0.2l-0.7-0.7l0.6-0.3L365.4,366.6z M373.5,412.2l0.4,0.4l-1.1,2.1l-0.7-0.8l0.3-0.6
		l-0.1-0.8L373.5,412.2z M355.1,412.1l0.4,0.5l-0.7,0.6l-0.1-1L355.1,412.1z M371.9,361.2l0.5,0.7l-1.4,0.1l0.3-0.6L371.9,361.2z
		 M362.6,359.7l0.6,0.7l0.6,0.1l0.3-0.6l1,0.9l-0.1,0.6l0.6,1.3l0.1,0.9l-0.7-0.2l-0.3,0.9l1,0.7l0,0.4l-0.8,0.4l0.1,0.5l-0.5,0.5
		l-1.2-0.2l-0.4-0.4l0.8-0.7l-0.2-1.1l-1.3-0.9l-0.1-0.8l-0.4-0.8l-0.8-0.1l-0.6,0.9l-1.5-0.1l-1.3,1.8l0.2,0.6l-0.5,0.7l-0.8-0.1
		l-0.4,0.4l-1.3,0l0.4,1.9l-0.2,0.5l0.4,0.7l-0.6,1.4l-0.7,0.2l0.4,0.8l-0.5,0.8l0.4,0.6l-0.2,0.7l0.2,0.7l-2.6-0.5l-0.3,0.6
		l-0.9-0.1l-0.9,0.5l-1-0.2l0.2-0.6l1-0.5l0.4-0.8l1,0.7h0.4l1.1-1l0.2-1.2l-0.7-0.5l-0.7-0.2l-0.2-0.7l1.2-0.4l0.5-1l-0.8-1.3
		l0.6-0.6l-0.3-0.5l0.3-0.8l0.5-0.1l0.7-2.3l1.2,0l0,0.7l-0.5,0.4l0.2,0.5l1.2,0.6l1-0.5l0.8-1l0.7-2.4l1.1-0.2l1.6-0.5L362.6,359.7
		z M355.3,380.4l-0.2,0.9l-0.7-0.2l0.2-0.7L355.3,380.4z M366.4,413.5l0.6,0.1l-0.1,1.1l-0.5,0.2l-1-0.7l0.1-0.4L366.4,413.5z
		 M370.5,368.2l0.8,0.5l-0.2,1.1l0.7,0.2l-0.2,0.8l0.7-0.1l0.3-1.4l0.5,0.7l0.7,0.2l-0.1,0.7l0.6,0.8l-0.3,1.2l0.5,1.2l1.2,0.4
		l0,0.6l-1.2,0.6h-1l0.1-0.9l-0.9-0.5l-0.5,0.3l-1.7-0.1l-0.5-0.2l-1.1,1.2l-0.1,0.7l-1.1,0.2l-1.5,1.6l-0.7,0.5l-0.1,0.7l0.7,0.1
		l-0.5,1.1l0.1,0.7l-1-0.1l-0.2-0.3l-1.2-0.2l-0.5,0.5l-1,0.2l-0.7-0.3l0.4-1l-0.1-0.6l-0.8-0.5l-1,0.4l-0.6-1.2l-0.4,0l-1-1.2
		l0.2-0.7l0.5,0l0.5-0.6l0.3,1.5l0.7,0.4l-0.2,0.9l0.2,0.5l0.8-0.9l0.7,0.1l0.6,0.7l0.9-0.8l0.9,0.2l0.1-0.8l0.7-0.4l0.1-0.8
		l-1.4-0.2l-1.2,0.5l-0.5-0.2l-1.2,0l0.1-1l1.2,0l0.7-1l-0.6-0.4l-0.8,0.7l-0.6,0l-0.2-0.7l0.7-0.8l-0.1-0.6l-0.6-0.8l1.3-0.2l1.1-1
		l0.7,0.4v0.7l0.4,1.5l0.9-0.3L364,371l1.2,0.3l-0.1-1l-0.5-0.6l0.5-0.8l0.9,0.4l1.5-0.7l0.5,0.4l-0.5,0.5l0.3,0.8l-0.4,1l0.6,0.4
		l0.3-0.9l-0.1-0.7l0.6-0.5l0.5,0.1l0.2,1.1h0.8v-0.6l-0.5-0.5L370.5,368.2z M365.9,349.3l0.1,0.7l1.1,0.5l0.1,0.7l-0.8,0.9
		l-0.9-0.2l-0.4,0.7l-1.2-0.6l0.3-0.6l0.5-0.2L365.9,349.3z M331.7,393.3l1.1,0.6l0.2,0.5l-0.4,0.6l-1.5,0.3l-0.2-0.8L331.7,393.3z
		 M352.1,395.4l0.5,0.7l1.1,0l0.1,2.5l0.7,0l0,0.7l-0.9,0.2l0.4,1.5l-2.5,0.1l-0.3-0.6l0.8-1.2l-0.2-0.3l0.1-0.9l-0.2-0.7l0.4-0.4
		l-0.4-1L352.1,395.4z"/>
	<path id="TW-LIE" class="st0" d="M410.3,24.4l-0.2,0.8l0.2,1.2l-1.1,0.4l-0.2-0.9l0.3-0.8l0.6-0.6L410.3,24.4z M408.6,64.3
		l-0.1,0.9l1.6,0.3l-0.5,0.9l-0.6,0.2l0,0.5l-0.8,0l-0.9,1l-0.2-0.4l0.2-0.8l0.8-0.7l0-0.5L408.6,64.3z M438.3,16.1l0.1,0.4l-1,0.9
		l-0.2-0.5L438.3,16.1z M467.7,11.4l0.5,1l0.1,0.8l1.3-1.1l0.4,0.7l0.8,0l0.5,0.8l-2.3,1.2l-0.5,0.5l-0.4-0.7l0.4-0.9l-0.2-0.5
		l-0.8,0.3v-1.3l-0.4-0.8L467.7,11.4L467.7,11.4z M411.4,30.3l0.7,0.6l0.1,0.8h0.9l-0.1,0.7l-0.4,0.3l-1.4-0.4L411,33l-1.5-0.1
		l-1.3,0.7l0,2.5l-0.7,0.1l0-1.6l0.5-0.7l-0.3-0.9l1.2-1l0.4,0.2l1.1-1l0.4-0.7L411.4,30.3z M401.7,38.6l1.2,0.7l-0.5,0.6l0.1,0.5
		l1,0.4l0.2,0.6l1.5-1.8l1.6,0l0,1.1l-0.4,0.1l-0.4,0.9l-0.4-0.4l-0.4,0.6l-0.8,0.8l-0.7-0.4l-0.8,0.6l-1.4,0.1l-0.7-0.4l0-0.7
		l0.5-0.4l0.5-1.7l-0.4-0.5L401.7,38.6z M405,63.5l0.5,0.4l-0.7,0.9l-0.6,0l-0.3,0.7l-0.9-0.4l-0.6-1.1l0.3-0.3l1.5,0L405,63.5z"/>
	<path id="TW-KIN" class="st0" d="M232.2,260.8l0.3,0.5l-0.7,0.7l-0.6,0.2l-0.4,0.5l0.5,1.2l-1,0.4l0.2,0.7l-2.4,1.4l-0.2-1l-0.6-1
		l-1.3-0.6l-0.5,0.1l-1.2-1l-0.9-0.1l-1.2,0.1l-1.8,0.5l-1.7,0.7l-1.3,1.2l-1.1,1.7l-0.4,1.7l-1.4,0.3l-0.5-0.5l-0.8-0.1l-0.4-0.7
		l-1.1,0l-0.6-1.1l-1.6-1.3l0.5-0.3l0.6,0.2l0.6-0.2l0.5,0.4l0.8-0.9l0.2-0.8l0.7,0.1l-0.1-2l-0.9-2.3l0.5-1.4l-1,0l-0.1,0.7l-0.8-1
		l0.4-0.9l0.8-0.2l0.2-0.5l1.3-0.7l0.9,0.5l1.1,1.1l1.5,1.1l3,1.1h0.7l1.2-1l0.2-1.9l1.1-1.2l-0.1-1.8l-0.2-0.5l1.3-0.2l0.3-0.5
		l0.7-0.1l0.2-1l0.6-0.5l0.8,0.3l0.7,1.7l0.3,0.3h1.2l0.7,0.3l-0.2,0.9l0.7,1.2l0.2,0.7l0.7,0.9l0.2,1.1l0,1.6l0.7,0.8L232.2,260.8z
		 M207.7,261.7l0.7,0.1l-0.4,1l0,1.2l-0.3,0.6l-0.9-0.5l-0.7,0.2l-0.7,1.4l-0.8-0.2l-0.6,0.4l-0.5,0.9l-0.7-0.5L202,266l0.7-0.8
		l-0.4-1.1l1.1-0.3l0.4-2.5l0.5-0.3l0.7,0l0.7-0.5l0.8,0.1L207.7,261.7z M347.7,192l-1.1-0.4l-0.2-0.6l1.2,0.3L347.7,192z"/>
	<path id="TW-KEE" class="st0" d="M623.8,173.3l-0.4,1.1l-1.1,1.6l-0.6,0.4l-1.1-0.7l-1.3,0.6L618,178l-0.2,1l0.3,0.8l1.5,0.9l0.5,1
		l-0.4,0.9l-2.9,1.4l-1.5,0l-1.4-0.3l-1.7-1.9l-1.3-0.4l-1.5-0.2L608,180l-1.1-0.1l-1-1.4l-0.7-0.6l-0.7-1.9l0-1l-1.6-1l-0.5-1.3
		l0.5-0.5l1.6-0.4l0.5-0.6l1,0l1.2-0.4l1.5-0.8l2-0.8l0.6-0.4l0.2-0.6l0.1,1.1l1-0.2l1.6,0.3l1.2,0.8l1.1,0.1l0.2,0.7l0,1.6l1.3-1.6
		l-0.6-1l0.6-0.5h0.6l1.3,1.5l0.6,0l0.4,0.8l0.7,0.3l0.2-0.5l1.3,0l-0.3,1l0.1,0.5L623.8,173.3z"/>
	<path id="TW-TPE" class="st0" d="M582,175.7l0.8-0.2l0.7-0.1l0.4-2.3l1.1-1l1.1-1.7l1.6-1.9l1.1-0.2l1.5-1.1l1.5-0.6l0.2-0.7
		l1.2-1.1l0.6-0.8l0.6,0.4l0.4,1l0.5,0.3l1.2,0.2l0.6,0.5l-0.3,1.5l0.3,1l0.7,0.5l0.2,1.3l-0.2,0.9l0.5,0.8l1,1l0.4,0.7l-0.7,1
		l-0.2,1l1.1,0.8l1,0.4l1.1,0.8l0.4,0.9l0.1,1.1l-0.2,0.8l-1.1,1.3v0.6l0.9,1.2l-0.7,0.4l-0.1,0.6l1.3,1.3l1.4,0.8l0.7-0.2l1.2,0.2
		l0.4,0.5l-0.3,0.5h-1.1l-2.7,0.2l-2-0.1l-1.1,0.9l-0.3,0.7v1.1l0.4,1.3v1.5l1.1,1.1l-0.3,1l-1.3,0.1l-1.4-0.6h-2.2l-1.2-0.9
		l-0.7-1.4l-1.2-0.4l-1-0.7l-0.6-2.6l-0.9-1.2h-0.8l-0.7,0.9l-1,0.4l-0.8-0.6l-0.2-1.7l0.1-0.9l1.7-1.8l0.1-2.3l-0.1-1.7l-0.9-1.5
		l-0.9-0.9l-1.6-0.1l-1.7-0.9l-0.4-0.4L582,175.7z"/>
	<path id="TW-TAO" class="st0" d="M584.7,232.4l-1,0.5h-1l-0.7,0.3l-0.9,1l-0.8,3.4l-0.7,1.1l-0.4,1l-1.3,1.8l-2.2,1.5l-0.9,0.4
		l-1.4,0.3l-1.4-1.1l-1-1l-0.4-1.2l0.7-2.1l-1.7-0.9v-0.8l0.6-1.9l0.1-1.1l-1.2-0.3l-0.7-0.6l-0.1-1l-0.6-0.9l-1.7-1.1l-0.8-0.1
		l-1.5,0.4l-0.1-1.1l1-2.1l-1-1.1l0.2-2.1l0.4-0.5l-0.1-1.1l-0.8-1.2l-1.1-0.4l-1.3-0.2l-1.8-1.1l-0.4-1.4l-1.2-1.3l-0.6-0.3
		l-1.7,0.5l-1.3,0.1l-1.8-1.7l-3.6-2.4l-0.7-1.1l-1.4-0.2l-0.3-0.8l0.6-0.8l0.6-1.2l-0.2-1.4l-0.6-0.7l-4.1,0.1l-0.8-0.5l-0.1-0.8
		l-0.8-0.6l-1.3,0.6l-0.8-0.7l-2-0.8l-1.5-1l0.4-1.2l-0.6-1.1l-0.2-0.9l-1-0.8l-0.9-0.4l-1,0.2l-0.6,0.4l-1.2-0.1l-0.8-0.3l-0.9,0.4
		l-0.5,0.5l-1.4-0.2l0.6-0.5l0.1-0.8l0.4-0.5l0.8-0.4l1-1.5l0.9-0.9l0.3-0.6l0.1-1.4l-0.1-0.4l0.5-0.5l0.4-1.3l1-1.6l2.1-2.6
		l1.7-0.8l1.2-0.3l0.9-0.6l1.4-1.4l1.2-0.8l0.7-0.1l0.7-0.5l1.3-0.2l1.9-0.7l1.1-0.1l2.1-0.9l0.9-0.8l1.1-0.3l1.6-1.2l1.5-0.8
		l1.8-0.3l0.3-0.4l0.6,0.3l0.9-0.9l1.3-0.4l0.8,0.1l0.2,0.4l1.1,0.1l0.4,0.5l0.8,1l1,0.8l2.7,0.6l1.2,0.7l1.1,0.5l0.6,1.2l0.3,1
		l0.4,0.6l2.5,0.4l1.7,0.1l0.8,0.5l0.6,1.2l-0.2,1l0.2,1.3l0.9,0.6l0.3,0.6l-0.2,0.6l-1.1,0.6l0.4,0.9l-0.1,0.8l-0.9,0.7l-0.8,0.2
		l-0.6,1l-0.8,0.9h-5.2l-0.3,0.7l0.2,0.7l0.1,2.4l-0.6,0.7l-0.2,1l0.2,0.8l1.2,0.4l-0.2,0.6l-0.7,0.7l-0.3,0.7l0.2,0.8l0.8,1.2
		l0.8,0.5l0.7,1l0.4,1.4l0.1,1l0.7,0.9l-0.2,0.4l-1,0.2l0.1,0.6l1.7,0.6l1.1,0.6h1.2l0.9-0.4h1.2l1.5,0.6l0.8,0.8l1.1,1.3l0.9,0.9
		l0.5,1.4l0.6,1l0.5,0.4l-0.2,1l-0.8,0.9l-1.2,1l-0.4,1l0.2,1.5l0.8,1.3l1.9,3.8l1.1,1.3l0.8,0.4l0.8,0.8l-0.1,1.5L584.7,232.4z"/>
	<path id="TW-HSZ" class="st0" d="M521.3,210.5l0.7,1.3l2.3,0.2l2.1,0.5l0.7,0.8l1,0.3l1.6,1.1l1.5,3.1l0.3,1.8l0.3,1.1l-0.2,1H531
		l-1.5-1.2l-0.6-0.7l-0.8-0.5l-0.8,0.3l-0.5,0.8l-0.8,0.4l-1,0.1l-0.5,0.5l-0.6,1l-1,0.5l-1.3,1.5l-0.2,1.2l-0.4,1l-0.6,0.8
		l-0.6,0.3l-1.3-1l-0.2-1l-0.8-1.1h-0.6l-0.8,0.5l-0.8,0l-0.5-0.9l1.8-0.8l0.7-0.6l0.3-0.7l0-1.4l0.7,0l0.2-0.4l0.2-1.7l0.1-2.7
		l-0.1-1L518,215l-0.5-0.7l0.9-2.2l0.6-0.7l1.1-1.8l0.5,1L521.3,210.5z"/>
	<path id="TW-HSQ" class="st0" d="M575.8,242.9l0.9,1.3l0,1.2l-0.5,0.7l-1.5,1l0.5,2.1l-0.2,2l-0.6,1.2l-1,1.2l-2.4,2.1l-1,1l-1,0.4
		l-1,1.9l-1.5,1.5l-0.7,1.9l-0.6,0.7l-1.2,0.5h-2l-1.7,0.2l-1-0.1l-0.4-0.7l-0.3-3l-0.9-1l-0.8-1.4l-0.8-0.5l-1.7-1.7l-0.1-1
		l-0.4-0.5l-0.8-0.3l-0.9,0.1l-1.7,0.8l-6.5,0l-2.3,0.4l-2.1,0.7l-2-0.3l-0.9-0.7v-1.6l0.4-1l0.6-0.8l0.3-1l-0.8-1.7l-0.7-0.5l0-0.6
		l0.6-1.9l0.6-0.8l0.5-1.8l-0.6-1.5l-0.5-0.6l-0.7-0.5l-0.5-0.9l-1-0.2l-0.7,0.3l-0.6-0.1l-0.9-0.9l-1-0.5l-0.8-0.8l-0.8-0.4
		l-0.5-0.7l-1.2-1.1l-1.3-0.6l-1-1.5l-0.5-1.1L525,231l-0.6-0.2l0.3-0.8l0.7-0.4l0.3-0.7l-0.6-0.7l-1.1,0l-1.4,0.8l-1.8-0.6
		l-0.6-0.8l0.2-0.1l0.6-0.8l0.4-1l0.2-1.2l1.3-1.5l1-0.5l0.6-1l0.5-0.5l1-0.1l0.8-0.4l0.5-0.8l0.8-0.3l0.8,0.5l0.6,0.7l1.5,1.2h0.6
		l0.2-1l-0.3-1.1l-0.3-1.8l-1.5-3.1l-1.6-1.1l-1-0.3l-0.7-0.8l-2.1-0.5l-2.3-0.2l-0.7-1.3l0.5-1.2v-0.7l-0.5-0.2l0.7-0.9l0.8-1.7
		l0.5-1.4l1.5-1.8l-0.3-0.7l0.3-1.1l1.6-2.1l1.4,0.2l0.5-0.5l0.9-0.4l0.8,0.3l1.2,0.1l0.6-0.4l1-0.2l0.9,0.4l1,0.8l0.2,0.9l0.6,1.1
		l-0.4,1.2l1.5,1l2,0.8l0.8,0.7l1.3-0.6l0.8,0.6l0.1,0.8l0.8,0.5l4.1-0.1l0.6,0.7l0.2,1.4l-0.6,1.2l-0.6,0.8l0.3,0.8l1.4,0.2
		l0.7,1.1l3.6,2.4l1.8,1.7l1.3-0.1l1.7-0.5l0.6,0.3l1.2,1.3l0.4,1.4l1.8,1.1l1.3,0.2l1.1,0.4l0.8,1.2l0.1,1.1l-0.4,0.5l-0.2,2.1
		l1,1.1l-1,2.1l0.1,1.1l1.5-0.4l0.8,0.1l1.7,1.1l0.6,0.9l0.1,1l0.7,0.6l1.2,0.3l-0.1,1.1l-0.6,1.9v0.8l1.7,0.9l-0.7,2.1l0.4,1.2l1,1
		l1.4,1.1l1.4-0.3L575.8,242.9z"/>
	<path id="TW-MIA" class="st0" d="M559.3,263.5l-0.4,0.6l-0.5,0.1l-1.1,1l-0.5,1.9l-1.2,1l-0.3,0.6l-0.2,1.6l-1.4,0.2l-0.4-0.5
		l-0.5-1.4l-0.7-0.2l-0.5,0.3l-0.7,1.3l-1.5,1.1l-0.9,1.5l-0.9,0.5l-2.8,0.3l-0.7,0.5l-1.3,1.3l-0.2,1l-2.5,1.7l-2.7,0.1l-1,0.5
		l-0.7,0.5l-1.3,2l-1,0.2h-1.4l-0.7-0.7l-0.7-1.6l-0.8-1l-1.1-1l-1.4-0.4l-3.7-0.8l-1-0.3l-1.2-0.2l-1.3,0l-1.2,0.6l-0.2,1l0.3,1.6
		l0.1,1.9l-0.8,1.2l-1,0.3l-0.8,0l-3.8,0.3l-2.8,0l-1.2-0.3l-1.1-0.6l-1.3-1.4l-1.1-0.9l-1.5-0.5l-2-0.2l-1.2-0.9l-2.9-1.8l-1.8-1
		l-2.3-1l-1.4-1.5l-1.1-1.6l-2.1-2.6l-0.7-0.4l-0.9-0.1l-0.7-0.3l-1.6-3l-1.1-1.2l0.6-0.5l1.2-0.6l0.9-0.8l0.3-0.9l0.8,0.1l0.2-1.1
		l0.9-1l0.1-0.6l0.5-0.5l-0.1-0.6l0.6-0.4l0.3-0.9l0.8-1.6l0.6-0.8l1.6-4.6l0.7-1.2l0.4-1.2l0.1-1.1l0.7-1.6l0.9-1.3l1.7-0.7
		l0.7,0.6l1.2-0.7l0.9,0.2l0.8,0.6l0.8-0.2l-0.8-0.6l-1-1.1l-0.8,0l0.8-1.3v-0.9l2.5-3.1l1.7-0.1l2.2-0.6l2,0l-0.1-0.9l0.9-0.7
		l2-1.9l0.5-0.7l0.4-1.1l0-0.8l0.4-1l1.8-1.5l0.5,0.9l0.8,0l0.8-0.5h0.6l0.8,1.1l0.2,1l1.3,1l0.4-0.2l0.6,0.8l1.8,0.6l1.4-0.8l1.1,0
		l0.6,0.7l-0.3,0.7l-0.7,0.4l-0.3,0.8l0.6,0.2l0.6,0.8l0.5,1.1l1,1.5l1.3,0.6l1.2,1.1l0.5,0.7l0.8,0.4l0.8,0.8l1,0.5l0.9,0.9
		l0.6,0.1l0.7-0.3l1,0.2l0.5,0.9l0.7,0.5l0.5,0.6l0.6,1.5l-0.5,1.8l-0.6,0.8l-0.6,1.9l0,0.6l0.7,0.5l0.8,1.7l-0.3,1l-0.6,0.8l-0.4,1
		v1.6l0.9,0.7l2,0.3l2.1-0.7l2.3-0.4l6.5,0l1.7-0.8l0.9-0.1l0.8,0.3l0.4,0.5l0.1,1l1.7,1.7l0.8,0.5l0.8,1.4l0.9,1l0.3,3L559.3,263.5
		z"/>
	<path id="TW-ILA" class="st0" d="M619.3,278.5l-1.7,0l-1.8-1l-1.5-0.4l-2.1-0.1l-3.4-1.2l-2.3-1.7l-2.1-0.7l-1.3-1.3l-0.8-0.1
		l-0.3,1l0.2,0.8l0.5,0.5l0.1,0.5l-0.5,0.3h-0.9l-2.2,0.7l-0.4,0.5l0.9,1.1l-0.1,0.6l-0.9,0.5l-3.8-0.9l-1.5-1.3l-1.7-0.9l-1.6-0.5
		l-4.3-0.5l-2.8-1.3l-1.3-1.2l-0.6-1l-1-0.9l-1-0.5l-1.8,0l-2.4,0.7l-1.5,1.2l-1.1,0.1l-0.9-1.2l-0.5-1.2l-0.8-0.7l-1.4-0.2l-1.9-1
		l-0.3-1.1l0.4-0.8l0.2-1.1l-0.4-1.3l-0.8-1l0.7-1.9l1.5-1.5l1-1.9l1-0.4l1-1l2.4-2.1l1-1.2l0.6-1.2l0.2-2l-0.5-2.1l1.5-1l0.5-0.7
		l0-1.2l-0.9-1.3l0,0l2.2-1.5l1.3-1.8l0.4-1l0.7-1.1l0.8-3.4l0.9-1l0.7-0.3h1l1-0.5l0.4-0.2l1.3,0.2l0.9-0.1l0.7-0.7l1.3-0.1
		l2.4-1.3l1.5-1.8l2.6-0.4l1.1-1.2l0.7-0.2l0.6-0.5l0.7-1.5l-0.1-1.5l-0.9-1l-0.1-0.7l0.9-1.1l0.1-2l1.2-0.9l1-0.1l0.8,0.2l0.6-1.5
		l0.4-0.6l2.1-0.1l3.6-0.9l0.9-0.4l0.9-0.7l0.4-0.9l0.8-0.6l1.6-0.4l1.2-1.6l0.9-0.4l1.8,0.4l1.5-0.1l1-0.4l0.6-0.8l0.1-1l0.4-1.7
		l2-2l1.5-0.3l1.6-0.1l1.8-0.9l0.7-0.7l0.4-1.1l-0.2-1l-0.7-0.8l-0.4-0.9l0.5-1.8l0.9-0.5l0.8-0.1l1.3,0.5l1.3,0.2l1.2-0.4l1.1-1
		l0.6-0.8l1.3-0.5h1.7l1.8-0.9l1.1,0.2l-1.8,1.1l-1.8,0.7l-0.7,1.1l-0.2,0.7l-0.9,0.5l-0.7,0.6l0,0.7h-1l-1.2,1l0.2,0.9l-0.2,1
		l-0.7,0.5l-1,1.3l-0.6,0.1l-0.2,0.6l-0.7,0.7l-0.7,0.1l-0.4,0.9l-0.6,0.5l-0.8,1.6l-1,3l-0.5,2.1l-0.6,4.3l0,3.7l0.2,1.3l0.6,2.4
		l0.8,1.9l0.7,1.8l-0.1,2.6l0.3,2.9l0.5,2.1l0.7,1.8l1,2.2l0.8,0.9l0.9,0.1l0.4,0.5l0.9,0.2l0.2,0.6l-0.8,0.1l-1.5-0.9l-0.7,0.2
		l0.3,0.8h0.5l0.5,1.1l1,1.1l-1.1,0.5l0.1,1.1l0,1.5l0.4,1.4l-0.2,0.4l0.3,1l-0.6,0.8l-1.1,0.2l-0.4,0.4l-1.6,0.4l-0.5,1.3l0,0.8
		l0.3,0.8l0.9,0.1l0.3,0.6l0,0.9l0.7,0.7l-1.5,0.4l-0.6,0.8l-1.7,0.8l-0.4,0.7l0.1,0.7l-0.7,0.9l-1.2,1l-0.7,0.8l-0.8,2.1l-0.5,2.1
		l-0.2,3.4l-1,2l-0.9,2.7L619.3,278.5z"/>
	<path id="TW-TXG" class="st0" d="M581.8,272.1l-0.2,0.4l-1.1,0.7l-0.3,0.5v1.4l-0.4,1.6l-0.6,1.6l-0.6,0.9l-2.1,0.5l-0.8,0.8
		l-0.9,1.5l-1,0.3l-0.5,0.5l0.1,2.8l-0.5,0.8l-0.8,0.5l-1.6,0.5l-0.6,0.8l0.1,0.8l-0.4,0.6l-0.8,0.4H568l-1.1-0.6h-0.7l-0.9-0.6
		l-0.8-0.2l-1.8,0.6l-2.1-0.4l-1.4-1.5l-0.7,0l-0.6,0.8l-0.5,1.6l-0.5,0.7l-1.3,0.1l-1.2-0.4l-1.1-0.1l-2,0.7l-0.8,0.7l-1.1-0.3
		l-1.2-0.9l-0.6,0.1l-0.4,0.5l-1.3,0.4l-1.2,2.1l-0.8,0.3l-3.8,0l-1.4,2.2l-1.2,1.3l-1.6,1.5l-1.1,0.3l-2.5-0.1l-2.2,0.1l-0.5,0.2
		l-0.3,0.7l-0.5,1.8l-0.4,0.8l-1.6,1l-1.3,0.2l-0.8-0.1l-0.8-0.6l-0.8,0l-0.9,0.4L521,304l-0.8,0.8l-0.8,0.4l-1.9-0.1l-0.7-0.5
		l-0.2-0.6l-0.7,0l-0.2,0.7v1.2l-0.8,1.2l-0.7-0.6l-0.1-1.4l-0.5-0.6l-1.5-0.5L511,303l-0.9,0.2l-0.5,0.6l-0.5,1.6l-0.6,0.5
		l-0.3,1.2l0,1.1l-0.3,1.2l-0.6,0.4l-0.9,0.1l-1.3,1l-0.8,1.6l-0.2,0.8l-0.8,2.1l-0.9,0.7l-0.8,1.1l-0.7,0.5l-1.9,0.8l-2.3-0.5H494
		l-1-0.2l-2.5-1.1l-0.9-0.6l-1-1.1l-1.4-0.1l-2.1-0.5l-0.8-2.1l0.2-1l0.3-0.3l-0.2-0.9l-0.9-1.1l-0.5-2.3l-0.9-0.9l-0.8-0.5
		l-1.4,0.1l-1.5-0.5l-1.2-0.3l-1-0.7l-2.6-1.2l-1-0.7l-0.3-1.2l0.3-0.9l-0.8-1.7l-0.3-1.1l-2-3l-0.6-0.3l0.2-0.7l-1.2-1l-0.7-0.2
		l-1.1-0.7l1-2.9l0.7-0.1l0.7-1.8l0-0.8l0.5-1.4l0.8,0.1l0.8-1.7l0.2,0.7l-0.2,1.4l-1,2.1l-1-0.2l-0.7,2.1l-0.6,1.4l0.6,0.2l0.8-2.2
		l0.7,0.3l0.6,1l0.2-0.8l-0.4-0.9l1.1-2.8l0.5-1.6l0.7,0.1l0.2,0.5l-0.6,0.6l0.7,0.4l0.2-1.1l-0.2-1.1L472,282l0.4-0.5l-0.3-0.8
		l0.9-1.8l0.6,0.4l0.3-0.3l1.3,0.6l0.5-0.4l0.2-1.5l-0.3-1.2l0.2-0.6l0.7-0.3l0.5-1.1l1.6-1.6l0.6-1l0.1-0.9l0.4-0.7l0.1-0.7
		l0.5-0.7l0.3-1.9l0.5-0.7l1.4-1.2l0.6-1h0.4l0.6-1.7l1.1,1.2l1.6,3l0.7,0.3l0.9,0.1l0.7,0.4l2.1,2.6l1.1,1.6l1.4,1.5l2.3,1l1.8,1
		l2.9,1.8l1.2,0.9l2,0.2l1.5,0.5l1.1,0.9l1.3,1.4l1.1,0.6l1.2,0.3l2.8,0l3.8-0.3l0.8,0l1-0.3l0.8-1.2l-0.1-1.9l-0.3-1.6l0.2-1
		l1.2-0.6l1.3,0l1.2,0.2l1,0.3l3.7,0.8l1.4,0.4l1.1,1l0.8,1l0.7,1.6l0.7,0.7h1.4l1-0.2l1.3-2l0.7-0.5l1-0.5l2.7-0.1l2.5-1.7l0.2-1
		l1.3-1.3l0.7-0.5l2.8-0.3l0.9-0.5l0.9-1.5l1.5-1.1l0.7-1.3l0.5-0.3l0.7,0.2l0.5,1.4l0.4,0.5l1.4-0.2l0.2-1.6l0.3-0.6l1.2-1l0.5-1.9
		l1.1-1l0.5-0.1l0.4-0.6l1,0.1l1.7-0.2h2l1.2-0.5l0.6-0.7l0.8,1l0.4,1.3l-0.2,1.1l-0.4,0.8l0.3,1.1l1.9,1l1.4,0.2l0.8,0.7l0.5,1.2
		l0.9,1.2l1.1-0.1l1.5-1.2l2.4-0.7l1.8,0l1,0.5l1,0.9L581.8,272.1z"/>
	<path id="TW-CHA" class="st0" d="M489.7,316.5l-0.1,1l-2.4,0.3l-1.1-0.1l-0.2,0.9l0.4,1.1l0.4,0.5l0.5,1.1l-0.3,1.7l-0.6,0.8
		l-0.8,0.5l-0.5,1.5l0.4,0.7v3.6l-0.3,2.1l-0.6,2.4l-0.8,1.5l0.4,2l-0.3,0.3l0.4,1.2l2.3,2.4l0.7,0.5l1.2,0.2l0.9-0.5l0.8-0.2
		l0.5,0.7l-0.3,1.5l-1,0.9l-1.4,0.3l-2.1,0.2l-5.6-0.9l-2.8-0.7l-7.5,0.1l-3.8-2l-2.6-0.6l-0.9-0.3l-1.2-1l-0.5,0.4l-1.3,0.2
		l-5.4-0.2l-1.5,0.6l-2.6,0.1l-3.5,0.3l-1.5-0.6l-2.5-0.6l0.5-0.1l-0.4-1.4l-1.3-0.7l0.3-0.7l-1-0.4l1.2-1.4l0.5-0.3l1,0.1l1.1-0.8
		l0.2-0.7l0.8-1.2l0.2-1l1-1.5l0.7-1.9l0.7-1.6l-1.6-0.3l0-0.4l2-3.2l0.9-2.8l0.3-0.2l1.8,0l0.2-1.7l0.3-0.3l0.8-1.9l1.1-1.5
		l0.3-0.9l3.2-1.8l1-0.4l0-0.7l0.6-1.3l0.4,0l0.7-1.8l-0.5-0.3l-2-0.6l-2.1,0.1l-0.4-0.2l0.5-1l1.4-2.1l0.9-1.1l1.5,0l0.3-1.3
		l0.6-0.6l-0.5-0.5l1.3-1.8h3.4l0.8-0.8l-0.5-0.5l0.8-1.1l1.2-1.2l0.5-1.2l1.1,0.4l0.6,0.3l2,3l0.3,1.1l0.8,1.7l-0.3,0.9l0.3,1.2
		l1,0.7l2.6,1.2l1,0.7l1.2,0.3l1.5,0.5l1.4-0.1l0.8,0.5l0.9,0.9l0.5,2.3l0.9,1.1l0.2,0.9l-0.3,0.3l-0.2,1l0.8,2.1l2.1,0.5l1.4,0.1
		l1,1.1L489.7,316.5z"/>
	<path id="TW-YUN" class="st0" d="M486.1,345.6l0.6,1.9l0.9,2.3l0.1,1l-0.6,1.7l-0.6,0.3l-0.5,1l-0.1,2.1l0.1,0.9l0.6,0.5l0.2,0.8
		v1.3l-0.7,1.5l-0.2,0.9l-0.5,0.6l-0.3,0.9l-0.3,2.5l0.1,0.8l0.5,0.2l1-1.2l0.8,0.2l0.1,1l0.5,0.9l2.2,0.9l1-0.4l1.4-1.1l1.2,0
		l0.6-0.3l0.3-0.6l0.5-0.2l1,0.2l0.5,0.7l0.2,1.2l-0.6,1.1l0.8,1.2l0.2,2.2l-0.5,0.6l-0.7,0.2l-0.9-0.4l-0.9-0.6H493l-0.7,0.3
		l-2.1-0.1l-0.6-0.5l-1.4,0.7l-0.8,0.2l-0.4-0.9l-0.1-1.1l-1-0.5l-0.8,0.2l-1.1,0.8l-1.1,0.4l-3.1-0.1l-1.9-0.6l-1.4-0.3l-2.1-0.9
		l-1.7-1l-1.2-1.3l-0.8-1.1l-0.1-0.9l-0.6-0.8l-0.8-0.6l-1.7,0.5l-0.7,0.5l-3,0.2l-1,0.3l-1.5,0.7l-2-0.9l-1-0.1l-1.4,0.6L456,368
		l-2,0.9l-0.3,0.8l-0.7,0.7l-2.1,0.5l-0.5,0.7l-0.7,1.9l-1.7,0l-1.1,0.4l-1.5,1.4l-0.2,1l-0.5,0.6l-0.9,0.5l-1,1.1L442,378l-0.3-0.8
		l-0.6-0.3l-0.6,0.3l-0.5,0.8l-0.1,1.8l-0.3,1.1l-0.5,0.6l-2.1,0.2l-2.1-0.9l-1.5,0l-0.5,0.3l-1,0l-0.8-0.4l-0.4-0.6l-1.8-0.1
		l-0.5-0.2l-0.1-0.8l0.5-0.1l0-1l-1.1-1.4l-0.1-2l0.4-0.4l0.1-0.9l-0.3-0.2l0.1-6l-0.2-0.3l0.2-1.7l0.6-1.3l0.5-0.7l0.7-2.2l0.9-1.9
		l0.6-0.6l0.9-1.3l1.3-0.4l-2.2-0.5l0-0.9l0.6-3.7l0.3-0.8l0.7,0v-0.8h-0.5l-0.6-0.7l0.4-0.9l-0.3-0.3l1.1-2.5l0.2-0.8l-0.3-0.6
		l-1,0.2l0.7-1.1l2.1-1.4l0.7-0.7l0.4,0.6l1.2,0.5l0.2,0.5l0.6-0.8l1-0.7l1.7,0.3l0.4-0.9l0.1-0.8l0.8,0.1l-0.1,0.6l1.1,0l2.5,0.6
		l1.5,0.6l3.5-0.3l2.6-0.1l1.5-0.6l5.4,0.2l1.3-0.2l0.5-0.4l1.2,1l0.9,0.3l2.6,0.6l3.8,2l7.5-0.1l2.8,0.7L486.1,345.6z"/>
	<path id="TW-CYI" class="st0" d="M461.6,381.3l0.9-0.7l1.2-0.4l0.9,0.5l0.7,1.3l0.9,0.5l1.5-0.2l0.7,0.3l0.4,0.6l0.8,0.5l0.3,0.9
		l1.2,0.9l-0.3,0.8l-0.6,0.7l-0.6,0.2l-0.4,0.9l-0.7,0.2l-1.3-0.4l-0.7-0.5l-1.3,1.3l-0.6,1.1l-1.3,0.2l-1.3-1.5l-0.6-1l-1.2-0.5
		h-1.8l-0.6-0.2l0.4-1.2l0.1-0.8l-1.1-1.2v-0.5l0.6-0.5l1.5-0.2l0.9,0.2L461.6,381.3z"/>
	<path id="TW-CYQ" class="st0" d="M496.7,368.3l3.1-0.1l0.8,0.2l0.9,0.6l2.7,0.7l1.9,0.1l1,0.4l0.3,1l0.2,3.3l-0.4,0.9l-1.2,1.3
		l0.1,1.4l1.5,1.8l0.6,3.6l0.6,1.4l0.9,0.8l3.5,0.4h1.2l0.9-0.5l2.1-0.2l3.5,0.2l1.4,0.3h1l0.7,0.4l-0.2,0.7l-2.2-0.1l-0.9,0.6
		l-1.2,0.4l-2.5,0.3l-0.8,1l-0.6,1.3l-2.1,1.2l-0.9,0.1l-0.9,0.7l-0.7,1.2l-0.3,1.3l-0.9,1.2l-1.2,1.9l-1.3,0.5l-1-0.1l-0.6,0.7
		l-0.8,1.5l-0.8,1.1l-1.3,0.4l-1.6,0.1l-1,1l-0.3,1.1l-1.2,0.8l-0.8,0.9l-2.2,0.8l-1.1,0.7l-0.2,1.5l-1.3,0.2l-2.1-0.2l-0.5-0.7
		l-3.1,0.1l-0.4,3.7l0.1,1.1l1.4,2.3l-0.6,0.8l-1.4,0l-1.4,0.2l-0.5,0.3l-1.2-0.1l-0.7-0.6l-1.2-0.1l-0.8,0.2L479,418l-2,0.1
		l-0.7-0.8l-1.2-0.4l-1.8-0.2l-0.6-0.6l0.1-1.4l0.7-0.4l0.3-0.8l-0.3-1.7l-0.6-0.8l-0.1-1.6l0.1-2.4l1.2-2l0.2-1.1l-0.7-1.1
		l-0.9-0.1l-1.8-0.7l-0.3-0.5l1.2-1.4l-0.4-0.5l-2.5,0.1l-0.3-0.4l-0.1-1l1.3-1l0.3-0.5l-0.6-1l-0.7,0.4l-1.8,0.1l-3.1-2.4l-0.9-0.2
		l-1.3,0.7l-1.1,0.1l-1.4-0.7l-1.2,0.3l-0.6,0.5l-1.1,0.3l-2.5,0.1l-1.4,0.5l-1.2,0.8l-1.8,1h-1.4l-0.7,1.3l-1.9,0.3l-0.4,0.6
		l-0.2,1.4l-0.3,0.7l-1.7,0.1l-0.5,0.4v1.4l-0.3,0.7l-1.5,0.3l-1.2,0.7l-0.8,1.1l-0.4,1.4l-0.4,0.8l-1.3,0.5l-1.4-0.1l-0.6-0.5
		l-0.5-0.1l-0.2,0.7l-0.7,0.1l-0.8-0.7l-1.3-1.5l-1.5-0.5l-0.7-0.9l-0.8-0.5l-1.3,0.1l-0.7-0.3l0.1-1.8l0.9-2l0.1-0.7l2.2-1.1
		l0.6-1.6l0.4-0.4l0.2-0.8l-0.3-1.3l-1.3-0.2l-0.1-1.4l0.2-1l-0.6-1l0.1-1.9l-0.5-0.5l-0.7,0.4l-0.2-0.7l0.6-0.6l0.7-2l0.7-0.8
		l-1.1-0.7l-1.8-0.2l-0.6-0.6l-0.3-1.2l0-1.8l0.5-0.6l1.6,0.3l1.2-0.2l0.5,0.2l1.8,0.1l0.4,0.6l0.8,0.4l1,0l0.5-0.3l1.5,0l2.1,0.9
		l2.1-0.2l0.5-0.6l0.3-1.1l0.1-1.8l0.5-0.8l0.6-0.3l0.6,0.3l0.3,0.8l0.9,0.4l1-1.1l0.9-0.5l0.5-0.6l0.2-1l1.5-1.4l1.1-0.4l1.7,0
		l0.7-1.9l0.5-0.7l2.1-0.5l0.7-0.7l0.3-0.8l2-0.9l0.8-1.6l1.4-0.6l1,0.1l2,0.9l1.5-0.7l1-0.3l3-0.2l0.7-0.5l1.7-0.5l0.8,0.6l0.6,0.8
		l0.1,0.9l0.8,1.1l1.2,1.3l1.7,1l2.1,0.9l1.4,0.3l1.9,0.6l3.1,0.1l1.1-0.4l1.1-0.8l0.8-0.2l1,0.5l0.1,1.1l0.4,0.9l0.8-0.2l1.4-0.7
		l0.6,0.5l2.1,0.1l0.7-0.3h1.1l0.9,0.6l0.9,0.4l0.7-0.2l0.5-0.6l-0.2-2.2l-0.8-1.2L496.7,368.3z M461.6,381.3l-1.6,1.4l-0.9-0.2
		l-1.5,0.2l-0.6,0.5v0.5l1.1,1.2l-0.1,0.8l-0.4,1.2l0.6,0.2h1.8l1.2,0.5l0.6,1l1.3,1.5l1.3-0.2l0.6-1.1l1.3-1.3l0.7,0.5l1.3,0.4
		l0.7-0.2l0.4-0.9l0.6-0.2l0.6-0.7l0.3-0.8l-1.2-0.9l-0.3-0.9l-0.8-0.5l-0.4-0.6l-0.7-0.3l-1.5,0.2l-0.9-0.5l-0.7-1.3l-0.9-0.5
		l-1.2,0.4L461.6,381.3z"/>
	<path id="TW-TNN" class="st0" d="M487.3,416.7l0.7,0.4l0.4,0.7v0.7l-1.1,1.5l-0.7,0.8l-0.4,2.3l-2,2.2l-0.6,0.8l-0.6,0.3l-1,0.9
		l-1.4,2l-0.3,1.1l0,1.2l-0.3,0.7l-0.2,1.1L479,434l-0.5,0.9l-1.2,0.2l-1.5,1.8l-0.7,0.2l-3.3,2.9l-0.4,1.1l-1.1,0.9l-2.3,1.7
		l-0.9,1.6l-1.3,0.1l-0.6,0.4l-0.1,1.7l-1.6,1.1l-0.1,0.9l-0.3,0.5l-0.8,2l-0.3,1.3l-0.9,0.9l-0.2,0.6v1.1h-1.5l-0.8-0.4h-1.8
		l-0.9,0.5l-1.7,2.1l-1.5,0.9h-2.9l-1.1-0.3l-1-0.1l-2.2-0.5l-0.5-0.4l-0.7,0.2l-0.7,0.8l-0.9-0.6h-2.5l-1-1.2l-2.7-0.4l-1.9-0.7
		l-1.3-0.2l-1.2,0.8l-0.2-0.1l0.2-1.8v-1.3l-0.4-1.4l-1.1-1.9l-0.4-1.1l-0.8-1.1l-0.9-0.9l-2.6-2.5l-1.7-1.4l-3.7-2.3l-1-0.2
		l0.1-1.3l-0.4-0.3l-1.1,0.7l-0.8-1.3l0.7-0.2l0.3-0.6l-0.7-1.9l-2.5,0l0.4-2.1l-0.1-0.9l2.7-1.9l1.7-0.8l1.3-0.1l0.3-1.3l-0.3-1
		l-0.6-0.4l-0.3-0.7l-0.3-1.6l-0.3-0.6l-0.7-0.8l0.1-1.1l0.4-0.3l0.9-1.6l0.6-1.7l0.1-2.8l0.8-0.5l0.8-0.1l0.3-0.8l0.7-0.8l0.2-1.6
		l0.8-0.5l0.6-0.6l-0.1-0.4l-1.2-0.9l-0.1-0.8l0.6-0.6v-0.4l-0.7-0.5l0.7-1.2l0.6-1.9l0.7,0.6l0.8,0.1l1.1-0.4l1.5,1.4l1.5,0.5
		l1.3,1.5l0.8,0.7l0.7-0.1l0.2-0.7l0.5,0.1l0.6,0.5l1.4,0.1l1.3-0.5l0.4-0.8l0.4-1.4l0.8-1.1l1.2-0.7l1.5-0.3l0.3-0.7v-1.4l0.5-0.4
		l1.7-0.1l0.3-0.7l0.2-1.4l0.4-0.6l1.9-0.3l0.7-1.3h1.4l1.8-1l1.2-0.8l1.4-0.5l2.5-0.1l1.1-0.3l0.6-0.5l1.2-0.3l1.4,0.7l1.1-0.1
		l1.3-0.7l0.9,0.2l3.1,2.4l1.8-0.1l0.7-0.4l0.6,1l-0.3,0.5l-1.3,1l0.1,1l0.3,0.4l2.5-0.1l0.4,0.5l-1.2,1.4l0.3,0.5l1.8,0.7l0.9,0.1
		l0.7,1.1l-0.2,1.1l-1.2,2l-0.1,2.4l0.1,1.6l0.6,0.8l0.3,1.7l-0.3,0.8l-0.7,0.4l-0.1,1.4l0.6,0.6l1.8,0.2l1.2,0.4l0.7,0.8l2-0.1
		l1.2-1.5l0.8-0.2l1.2,0.1l0.7,0.6l1.2,0.1l0.5-0.3l1.4-0.2L487.3,416.7z"/>
	<path id="TW-PIF" class="st0" d="M461.3,504.6l0.7-0.1l0.9-1.2l0.2-1l0.4-0.7l0.2-1.6l0.5-1.8l0.3-0.4l-0.1-1.1l-1.1-1.5h-0.6
		l0-6.8l0.1-1.5l0.4-1.5l0.8-0.9l0.5-1.7l0-2.1l0.4-0.7l0.1-6.6l0.5-1.4l0.7-2.6l0.4-2.6l0.8-0.6l0.8,0l0.6,0.5l0.6,0l1.2,1l1.3,0.1
		l1.5-0.6l1,0.1l1,0.5l1.2,0.1l1.4-1l0.7-1l0.4-1l0.6-0.6l1.7-1.1l1.9-1.6l1.5-0.1l1.4-0.4l1.3-0.1l0.7,0.3l0.4,0.8l0.2,1.2l0.7,0.4
		l0.9,0.1l1.8-0.5l0.8-0.5l0.4-0.8l0.8-1l2.1,0.1l1,0.2l2.6,1.6l2.1,2.8l0.8,0.7h0.8l0.6-0.4l1.3-1.3l0.7-0.3l1.3-1.3l1.2-0.1
		l0.8,0.3l1,0.8l1-0.4l1.4,1.1l0.4,2.2l0,1.4l0.3,0.6l1,0.6l1.4,0.1l0.8,0.5l0.4,0.6v2.5l0.3,0.5l-0.4,0.5l-0.3,0.9v2.3l-0.8,1.6
		l-0.1,1.2l-0.9,1.1h-3.7l-0.6,0.5l-0.7,1.6l-0.5,0.6l-2,0.4l-1.8,0.7l-0.9-0.1l-0.5,0.4v0.7l-0.8,1.1l-0.4,1.4l-1.8,2.6l-0.4,1.5
		l-1.1,1.4v2.3l-0.8,1.2l0.3,1.4l-1.1,2.6l-0.1,0.8l1.2,2.1l0.1,1.2l0.9,1.6l0.4,0.8l0,1.5l-0.2,0.8l-0.7,0.5l-0.5,0.7l0.1,1
		l0.3,0.6l-0.1,0.7l1,0.8l1.2,1.5l1.3,1.4l0.6,1.3l-0.9,1.1l-1.4,0.1l-0.8,0.3l-1.4,3.9l-0.4,0.6l0,0.9l0.7,0.5l1.4,1.4l1.3,0.6
		l0.7,0l0.4,0.7l1.1,1l0.1,2.5l-1.2,0.8l-0.2,0.4l2.1,2.2l0.3,0.8l-0.6,1.1l0.1,1l0.7,0.3h1l1.8,1l0.9,1l1.9,0.3l1.8,1.6l0.8-0.1
		l1.3-0.9l1.2-0.2l0.1,1.1l-0.6,1l0,0.7l0.3,1.1l-0.1,0.9l-0.7,0.7l0.1,1.7l0.3,0.7l-0.3,1.2l0.3,0.9l-0.3,1.4l0.5,0.5l-0.2,0.7
		l-1,0.8v1l0.5,1.5l0.3,0.4l1.1,0.4l-0.3,0.4l-0.1,1l-0.8,1l0,1.4l0.2,0.5l0,3l0.8,1.8l-1.4,1.2v0.9l-1.2,0.6l-0.2,1.5l-2.6,1.3
		l-1.1,0.3l-0.1,0.9l0.2,0.9l-0.6,1.7l0.4,2.1l1.1,1.6l1,1.8l-0.1,0.9l0.7,0.9l-0.7,0.5h-1l-0.5-0.5l-0.3-1.8l-0.7,0l-0.7-0.5
		l-0.2-0.7l-0.9-0.9l-0.3-0.6l-0.7,0.2l-0.7-0.1l-0.7-0.8l-1.3-0.5l-1.1,0.1l-0.6-0.6l-0.9-0.4l-0.4-0.7l-0.7-0.1l-0.6,0.7l-0.7,0.3
		l-0.5,1l0.2,1.5l-0.8,0.6l0,0.9l-1.4,0.2l-0.4-0.2l-0.7-1.1l-0.2-0.9l-0.6,0.2l-0.2-0.5l0.3-2.4l0-1.1l0.4-0.7v-0.7l-0.4-0.9
		l-0.5-0.5l-0.2-0.8l-0.5-0.1l-0.7-0.7l-1-2.4l-0.1-1.3l0.5-0.8l0.7-0.4l-0.2-1.1l0.4-0.8l0.8,0l0.3-0.4l0-1.1l-0.5-1.6l0.2-0.7
		l0.5,0l1-0.7l-0.2-1.7l-0.7-1.7l0.1-0.5l-1-1.1l0.1-0.4l-0.6-0.6l0.3-1.2l-0.5-0.7l0.1-1l-0.4-0.9l-0.1-1.1L492,548l-0.3-0.3
		l-0.2-0.9l0.3-0.9l-1.3-2.2l-0.5-1.3l-1.1-1.2l-1.3-1l-0.1-0.2l0.3-1.7l-0.6-1.7l-0.5-1.1l0-1.4l-0.7-1.4l-2-2.1l-1.5-1.3l-0.7-1.7
		l-0.5-0.8l-0.4-0.1l-0.6-1.1l-3.5-2.6l-3.2-1.9l-2.6-1.3l-1.8-1.2l-1-0.4l-1.4-0.8l-1.9-1.4l-0.5-0.2l-1.4-1.6l-0.7-1l-0.2-0.7
		l-0.9-0.5L461.3,504.6z M456.8,526.9l0.5,1.3l-1.2,0.6l-2.1,2.4l-1,0l-0.2-0.7l0.8-1.1l0.1-0.7l0.5-0.9l1-1L456.8,526.9z"/>
	<path id="TW-KHH" class="st0" d="M512.8,464.7l-1.4-1.1l-1,0.4l-1-0.8l-0.8-0.3l-1.2,0.1l-1.3,1.3l-0.7,0.3l-1.3,1.3l-0.6,0.4h-0.8
		l-0.8-0.7l-2.1-2.8l-2.6-1.6l-1-0.2l-2.1-0.1l-0.8,1l-0.4,0.8l-0.8,0.5l-1.8,0.5l-0.9-0.1l-0.7-0.4l-0.2-1.2l-0.4-0.8l-0.7-0.3
		l-1.3,0.1l-1.4,0.4l-1.5,0.1l-1.9,1.6l-1.7,1.1l-0.6,0.6l-0.4,1l-0.7,1l-1.4,1l-1.2-0.1l-1-0.5l-1-0.1l-1.5,0.6l-1.3-0.1l-1.2-1
		l-0.6,0l-0.6-0.5l-0.8,0l-0.8,0.6l-0.4,2.6l-0.7,2.6l-0.5,1.4l-0.1,6.6l-0.4,0.7l0,2.1l-0.5,1.7l-0.8,0.9l-0.4,1.5l-0.1,1.5l0,6.8
		h0.6l1.1,1.5l0.1,1.1l-0.3,0.4l-0.5,1.8l-0.2,1.6l-0.4,0.7l-0.2,1l-0.9,1.2l-0.7,0.1l-0.6,0l-0.3,0.5l-0.1,6.6l-0.3,0.3l-0.9-0.1
		l-1.1-0.6l-2.3-1.6l-2.5-2l-1.6-2l-0.9-0.9h-0.4l-0.6-0.7l-1.4-1.1l-0.7-0.1l-0.3-0.4l0.2-0.9l-0.4-0.9l-1.1-1.2l-1.6-1.9l-1.7-2.6
		l-0.1-1.3l-0.6-1.4l-0.6-0.6l-0.6-1.5l0.1-1.8l0.7-0.8l0.9-0.6l0-1.7l1,0.3l0-1.1l-0.2-0.9l0.4-0.7l-0.6-0.4l-0.9,0.9l-0.7-1.4
		l-0.3-1.4l-0.8-1.4l-0.7-1.9l-0.4-0.6l-2-5l-0.8-1.8l-1.2,0l-0.1-0.7l0.8-0.3l-1-3.3l-0.5-1.1l-0.3-1.4l1.1,0.2l0.5-0.6l0.1-0.9
		l0.4-1h-0.6l-0.5,0.8l0.2,0.7l-0.6,0.2l-0.2-0.8l-0.7,0.1l-0.1-0.6l-1.4-3.7L432,457l1.2-1.1l1.3,0.2l1.9,0.7l2.7,0.4l1,1.2h2.5
		l0.9,0.6l0.7-0.8l0.7-0.2l0.5,0.4l2.2,0.5l1,0.1l1.1,0.3h2.9l1.5-0.9l1.7-2.1l0.9-0.5h1.8l0.8,0.4h1.5v-1.1l0.2-0.6l0.9-0.9
		l0.3-1.3l0.8-2l0.3-0.5l0.1-0.9l1.6-1.1l0.1-1.7l0.6-0.4l1.3-0.1l0.9-1.6l2.3-1.7l1.1-0.9l0.4-1.1l3.3-2.9l0.7-0.2l1.5-1.8l1.2-0.2
		l0.5-0.9l0.8-0.8l0.2-1.1l0.3-0.7l0-1.2l0.3-1.1l1.4-2l1-0.9l0.6-0.3l0.6-0.8l2-2.2l0.4-2.3l0.7-0.8l1.1-1.5v-0.7L488,417l-0.7-0.4
		l0.6-0.8l-1.4-2.3l-0.1-1.1l0.4-3.7l3.1-0.1l0.5,0.7l2.1,0.2l1.3-0.2l0.2-1.5l1.1-0.7l2.2-0.8l0.8-0.9l1.2-0.8l0.3-1.1l1-1l1.6-0.1
		l1.3-0.4l0.8-1.1l0.8-1.5l0.6-0.7l1,0.1l1.3-0.5l1.2-1.9l0.9-1.2l0.3-1.3l0.7-1.2l0.9-0.7l0.9-0.1l2.1-1.2l0.6-1.3l0.8-1l2.5-0.3
		l1.2-0.4l0.9-0.6l2.2,0.1l0.2-0.6l2.8,0.2l2.3,1.1l1,0.8l0.2,1.3l0.4,0.7l0.3,0.8l0.8,0.1l0.3,1l-0.2,2.4l-0.8,0.5l-1.6,0.6
		l-1.1,1.9l-0.6,0.4l-0.6,1.6l1.5,0.8l0.8,0.7l1.2,0.5l3.6,2.7l0.2,0.9l-0.1,1.3l-0.2,0.2l-0.3,0.3l-2.4,1.1l-2.5,1.4l-2.8,0.8
		l-1.1,0l-0.6,0.7l-1.1,1.8l-1.3,1l-0.8,0.9l-0.7,0.4l-1,0.2l-1.2,0.9l-0.2,0.6l0.3,0.5l0.1,1l-0.4,0.9v2.2l0.3,1.1L518,423
		l-0.8,0.5l-0.3,0.8l-1.5,1.6l0.1,8.7l-1.4,2.2l-0.4,0.9l0.1,0.6l1.1,1.7l0.1,0.7l-0.4,0.6l-2,1.3l-0.3,1.6l-1,1.6l-0.8,0.9
		l-2.6,3.6v3.6l0.8,1.7l0.1,1.9l0.7,2.4l0.7,0.5l2.1,0.4l0.8,0.8l0.3,0.9l-0.1,1.7L512.8,464.7z"/>
	<path id="TW-TTT" class="st0" d="M586.1,391.9l-0.7,1.7l-0.3,1.8h-0.3l-0.4,1.1l-0.4,2.5l0.2,0.9l-0.2,1l-0.5,1l0,1.7l-0.2,1.3
		l-0.5,0.7v0.5l-0.8-0.1l-1,0.7l-1.9,3l-0.4,1l0,1.5l-0.5,0.2l-0.4,1.2v0.6l-0.6,2.6l0.7,0.4l-1.1,1.4l-0.9,0.1l-0.6,0.6l-0.3,1
		l0.3,1.9l0.7,1l-0.1,0.6l0.5,0.4l0.1,0.7l-0.5,1.4l-0.5,0.3l-0.2,1.6l0.4,1l1.2,0.9l-0.9,1l-1-0.2l-0.2,0.7l-0.7,0.7l-0.3,1
		l-1.1,0.2l-1.2-0.1l-0.9,1.2v0.7l-0.4,0.3l0.3,0.8l-1,0.6l-0.3,1.3v1l-0.8,2.1l-0.5,2.1l-0.7,0.2l0,0.7l-0.7,0.7l-0.3,1l0,1
		l-0.4,0.4l-0.5,1.3l-1.6,1.6l-0.1,0.4l-0.9,0.7l-0.5,0l-0.7,0.7l-0.4,0.9l-0.2,1.5l-0.4,0.2l-0.3,1.2l-0.4,0.8l-0.9,0.8l-0.1,0.8
		l-0.5,0.4l-0.4,1.1l-0.5,0.8l-0.7,0.1l-0.7,1.1v0.7l-0.5,0.2l-0.6-0.4l-0.7,0.4l-1.5,0l-0.8,0.7l-1.3,1.4l-0.1,1.3l-0.4,0.5
		l1.1,2.1l0.7,2.2v0.6l-0.9,0.7l-0.5-0.3l-1,1.1l-0.3,1.7l-0.6,0.4l0.2,1.2l-1.2,0.8l-0.7,0.1l-0.9,0.9l-2.8,3l-1.2,0.6l-1.7,1.1
		l-1.3,0.2l-2.3,1.4l-1.9,1.9l-1.7,0.7l-0.9,0.6l-0.8,1l-1.1,2.7l-0.6,2.4l-0.3,2.5l0.1,0.9l-1.1,1.3l-0.3,0.1l-1.5,1.4l-0.4,0.6
		l-0.7,1.9l-0.9,3.2l-0.9,2.2l-1.1,4.2l-0.5,2.3l-0.6,1.4l-1.1,3.2L520,520l-0.6,2l-0.6,1l-0.8,2.9l-0.1,0.9l-0.7,0.7l-0.1,0.5
		l-0.8,1.8L516,531l-0.2,3.3v2.4l0.1,1.9l0.4,1.8v0.8l0.3,0.6l-1.2,0.2l-1.3,0.9l-0.8,0.1l-1.8-1.6l-1.9-0.3l-0.9-1l-1.8-1h-1
		l-0.7-0.3l-0.1-1l0.6-1.1l-0.3-0.8l-2.1-2.2l0.2-0.4l1.2-0.8l-0.1-2.5l-1.1-1l-0.4-0.7l-0.7,0l-1.3-0.6l-1.4-1.4l-0.7-0.5l0-0.9
		l0.4-0.6l1.4-3.9l0.8-0.3l1.4-0.1l0.9-1.1l-0.6-1.3l-1.3-1.4l-1.2-1.5l-1-0.8l0.1-0.7l-0.3-0.6l-0.1-1l0.5-0.7l0.7-0.5l0.2-0.8
		l0-1.5l-0.4-0.8l-0.9-1.6l-0.1-1.2l-1.2-2.1l0.1-0.8l1.1-2.6l-0.3-1.4l0.8-1.2v-2.3l1.1-1.4l0.4-1.5l1.8-2.6l0.4-1.4l0.8-1.1v-0.7
		l0.5-0.4l0.9,0.1l1.8-0.7l2-0.4l0.5-0.6l0.7-1.6l0.6-0.5h3.7l0.9-1.1l0.1-1.2l0.8-1.6v-2.3l0.3-0.9l0.4-0.5l-0.3-0.5v-2.5l-0.4-0.6
		l-0.8-0.5l-1.4-0.1l-1-0.6l-0.3-0.6l0-1.4l-0.4-2.2l0.4-0.7l0.1-1.7l-0.3-0.9l-0.8-0.8l-2.1-0.4l-0.7-0.5l-0.7-2.4l-0.1-1.9
		l-0.8-1.7v-3.6l2.6-3.6l0.8-0.9l1-1.6l0.3-1.6l2-1.3l0.4-0.6l-0.1-0.7l-1.1-1.7l-0.1-0.6l0.4-0.9l1.4-2.2l-0.1-8.7l1.5-1.6l0.3-0.8
		l0.8-0.5l0.4-0.5l-0.3-1.1v-2.2l0.4-0.9l-0.1-1l-0.3-0.5l0.2-0.6l1.2-0.9l1-0.2l0.7-0.4l0.8-0.9l1.3-1l1.1-1.8l0.6-0.7l1.1,0
		l2.8-0.8l2.5-1.4l2.4-1.1l0.3-0.3l0.5,0.5l0.3,1.1l0.9,1.4l0,1.5l0.4,1.3l1.3,2.5l0.9,0.8l1.3,0.2l1.3,0.6l1.4,0.4l1.1,0.7l0.7,0.8
		l0.5,1l1.7,0.8l0.6-0.2l1.4-1.1h1l0.4,0.5l1,0.5l0.5,1.1l0.6,0.5l0,1.4l0.2,1.3l1.4,1.2l0.5,1.8l1,0.5l1.1,1l2.5,0.6l0.6,0.5
		l0.4,1.1l0.2,1.4l0.6,0.5l0.9,0.1l1.3-0.9l2-0.1l1.5-0.9l0.1-7l0.4-0.8l1.1-1l0.7-1.1l0.5-1.1l0.9-3l1.4-2.6l0.5-2.3l0.9-0.6
		l0.7-0.7l0-2.2l0.2-1.1l1.3-1.2l0.6-1.4l1-1.3l0.9-1.4l0.9-1.7l-0.1-0.6l-1.5-0.9l-0.2-1.3l0.9-2.8l1.1-1.9l0.5-1.2l0.7-0.8l1-0.3
		l0.5-0.5l1.5-0.3l2.3,0.4l0.7,0.7L586.1,391.9z M599.2,569.6l-0.8,1.8l-0.4,0.6l-0.8-0.1l-0.5-0.4l-1.1,0l-0.7-0.7l-0.1-0.5
		l-0.7-0.9l-2.3-0.1l-0.5-0.3l-1-1.4l-1-0.5l-1.1-0.8v-3l-0.9-1.3l0.2-0.4l0.8,0.4l7.1-0.1l0.3,0.6l-0.3,0.6l0.7,1.3v0.8l-0.9,0v1.5
		l1.4,1.6L599.2,569.6z M588.1,492.5l-0.3,0.4l-0.7-0.2l-0.7-0.8l-0.7-0.4l-0.7-0.1l-0.4-0.4v-2.1l-1.1-0.7l0.1-1.1l1.2-0.1l0.7-0.4
		h0.9l0.3,0.4l1.6,0.1l0.4,0.4l0.3,1.1l-0.1,1l-0.4,0.4l-1,2L588.1,492.5z"/>
	<path id="TW-NAN" class="st0" d="M568.8,290.1l0.1,0.7l0.5,0.5l0,1.1l-0.4,0.5l-1.8,0.2L566,294l-0.6,0.9l-1.5,1l-1.1,0.4l-1.1,2.5
		v1.6l0.4,1l1.1,0.3l0.8,0.6l1,1.8l0.9,0l0.6,0.7v1.6l-0.3,0.9l-0.5,0.9l-1.5,1.3l-0.7,0.8l-1,0.6l-0.5,1l-0.1,2.2l-0.2,1.1
		l-0.6,0.9l-1.5,3.2l0.1,1.4l0.7,0.5l0.3,1l-0.1,5.3l0.6,1.3l-0.1,0.7l-1.3,1.2l-0.3,0.6l0.8,1.5l-0.1,1.1l-0.5,0.6l-1.1,0.5
		l-0.4,0.7l-0.7,1.8l-0.8,0.9l-0.5,3.5l-1.4,1.4l0.4,1.2l0,1l-1,0.9l-0.8,0.1l-0.6,0.8l-0.1,1l0.4,0.5l1,0.4l1,1.2l0.5,0.8l0,1.1
		l0.9,1.6l0,3l-0.8,2.7l-0.3,2l-0.4,1.8l-0.6,4l-1.3,2.2l-1.9,0.1l-1.9,1.4l-0.7,0.2l-0.8-0.2l-1,0.1l-0.4,0.3l0.8,2.1l0,0.5
		l-0.7,0.5l-0.5,1.4v3.1l-1,0.3l-0.9,0.8l-0.9,0.3l-2-1.1l-0.9,0.1l-1.7,0.5l-1.4,0.1l-0.6,0.5l-0.6,1.5l-0.7,0.5l-1,1.7l-0.2,0.8
		l-0.5,0.8l1,1l0,0.9l-0.2,0.7l-0.7,0.2l-2,1.2l-1.3,0.4l-0.7-0.3l-0.2-1.3l-1-0.8l-2.3-1.1l-2.8-0.2l0-0.1l-0.7-0.4h-1l-1.4-0.3
		l-3.5-0.2l-2.1,0.2l-0.9,0.5h-1.2l-3.5-0.4l-0.9-0.8l-0.6-1.4l-0.6-3.6l-1.5-1.8l-0.1-1.4l1.2-1.3l0.4-0.9l-0.2-3.3l-0.3-1l-1-0.4
		l-1.9-0.1l-2.7-0.7l-0.9-0.6l-0.8-0.2l-3.1,0.1l-0.2-1.2l-0.5-0.7l-1-0.2l-0.5,0.2l-0.3,0.6l-0.6,0.3l-1.2,0l-1.4,1.1l-1,0.4
		l-2.2-0.9l-0.5-0.9l-0.1-1l-0.8-0.2l-1,1.2l-0.5-0.2l-0.1-0.8l0.3-2.5l0.3-0.9l0.5-0.6l0.2-0.9l0.7-1.5v-1.3l-0.2-0.8l-0.6-0.5
		l-0.1-0.9l0.1-2.1l0.5-1l0.6-0.3l0.6-1.7l-0.1-1l-0.9-2.3l-0.6-1.9l2.1-0.2l1.4-0.3l1-0.9l0.3-1.5l-0.5-0.7l-0.8,0.2l-0.9,0.5
		l-1.2-0.2l-0.7-0.5l-2.3-2.4l-0.4-1.2l0.3-0.3l-0.4-2l0.8-1.5l0.6-2.4l0.3-2.1v-3.6l-0.4-0.7l0.5-1.5l0.8-0.5l0.6-0.8l0.3-1.7
		l-0.5-1.1l-0.4-0.5l-0.4-1.1l0.2-0.9l1.1,0.1l2.4-0.3l0.1-1l0.7,0.4l2.5,1.1l1,0.2h2.8l2.3,0.5l1.9-0.8l0.7-0.5l0.8-1.1l0.9-0.7
		l0.8-2.1l0.2-0.8l0.8-1.6l1.3-1l0.9-0.1l0.6-0.4l0.3-1.2l0-1.1l0.3-1.2l0.6-0.5l0.5-1.6l0.5-0.6l0.9-0.2l1.2,1.1l1.5,0.5l0.5,0.6
		l0.1,1.4l0.7,0.6l0.8-1.2v-1.2l0.2-0.7l0.7,0l0.2,0.6l0.7,0.5l1.9,0.1l0.8-0.4l0.8-0.8l1.2-0.8l0.9-0.4l0.8,0l0.8,0.6l0.8,0.1
		l1.3-0.2l1.6-1l0.4-0.8l0.5-1.8l0.3-0.7l0.5-0.2l2.2-0.1l2.5,0.1l1.1-0.3l1.6-1.5l1.2-1.3l1.4-2.2l3.8,0l0.8-0.3l1.2-2.1l1.3-0.4
		l0.4-0.5l0.6-0.1l1.2,0.9l1.1,0.3l0.8-0.7l2-0.7l1.1,0.1l1.2,0.4l1.3-0.1l0.5-0.7l0.5-1.6l0.6-0.8l0.7,0l1.4,1.5l2.1,0.4l1.8-0.6
		l0.8,0.2l0.9,0.6h0.7l1.1,0.6H568.8z"/>
</g>
</svg>
